Amiamie-Regular.ufo
<glyph name="exclam" format="2">
	<advance width="252"/>
	<unicode hex="0021"/>
	<note>
		exclam
	</note>
	<outline>
		<contour>
			<point x="79" y="188" type="line"/>
			<point x="172" y="188" type="line"/>
			<point x="184" y="690" type="line"/>
			<point x="67" y="690" type="line"/>
		</contour>
		<contour>
			<point x="79" y="132" type="line"/>
			<point x="79" y="-14" type="line"/>
			<point x="172" y="-14" type="line"/>
			<point x="172" y="132" type="line"/>
		</contour>
	</outline>
</glyph>
<glyph name="quotedbl" format="2">
	<advance width="357"/>
	<unicode hex="0022"/>
	<note>
		quotedbl
	</note>
	<outline>
		<contour>
			<point x="83" y="474" type="line"/>
			<point x="165" y="474" type="line"/>
			<point x="177" y="735" type="line"/>
			<point x="72" y="735" type="line"/>
		</contour>
		<contour>
			<point x="236" y="474" type="line"/>
			<point x="318" y="474" type="line"/>
			<point x="329" y="735" type="line"/>
			<point x="224" y="735" type="line"/>
		</contour>
	</outline>
</glyph>
<glyph name="numbersign" format="2">
	<advance width="601"/>
	<unicode hex="0023"/>
	<note>
		numbersign
	</note>
	<outline>
		<contour>
			<point x="401" y="281" type="line"/>
			<point x="428" y="410" type="line"/>
			<point x="530" y="410" type="line"/>
			<point x="530" y="476" type="line"/>
			<point x="442" y="476" type="line"/>
			<point x="488" y="690" type="line"/>
			<point x="419" y="690" type="line"/>
			<point x="373" y="476" type="line"/>
			<point x="283" y="476" type="line"/>
			<point x="329" y="690" type="line"/>
			<point x="260" y="690" type="line"/>
			<point x="214" y="476" type="line"/>
			<point x="100" y="476" type="line"/>
			<point x="100" y="410" type="line"/>
			<point x="200" y="410" type="line"/>
			<point x="173" y="281" type="line"/>
			<point x="70" y="281" type="line"/>
			<point x="70" y="215" type="line"/>
			<point x="159" y="215" type="line"/>
			<point x="113" y="0" type="line"/>
			<point x="182" y="0" type="line"/>
			<point x="228" y="215" type="line"/>
			<point x="318" y="215" type="line"/>
			<point x="272" y="0" type="line"/>
			<point x="341" y="0" type="line"/>
			<point x="387" y="215" type="line"/>
			<point x="500" y="215" type="line"/>
			<point x="500" y="281" type="line"/>
		</contour>
		<contour>
			<point x="269" y="410" type="line"/>
			<point x="359" y="410" type="line"/>
			<point x="332" y="281" type="line"/>
			<point x="242" y="281" type="line"/>
		</contour>
	</outline>
</glyph>
<glyph name="percent" format="2">
	<advance width="751"/>
	<unicode hex="0025"/>
	<note>
		percent
	</note>
	<outline>
		<contour>
			<point x="190" y="701" type="curve" smooth="yes"/>
			<point x="97" y="701"/>
			<point x="39" y="640"/>
			<point x="39" y="540" type="curve" smooth="yes"/>
			<point x="39" y="440"/>
			<point x="97" y="378"/>
			<point x="190" y="378" type="curve" smooth="yes"/>
			<point x="282" y="378"/>
			<point x="341" y="440"/>
			<point x="341" y="540" type="curve" smooth="yes"/>
			<point x="341" y="640"/>
			<point x="282" y="701"/>
		</contour>
		<contour>
			<point x="105" y="0" type="line"/>
			<point x="201" y="0" type="line"/>
			<point x="649" y="690" type="line"/>
			<point x="553" y="690" type="line"/>
		</contour>
		<contour>
			<point x="190" y="635" type="curve" smooth="yes"/>
			<point x="227" y="635"/>
			<point x="251" y="602"/>
			<point x="251" y="540" type="curve" smooth="yes"/>
			<point x="251" y="478"/>
			<point x="227" y="444"/>
			<point x="190" y="444" type="curve" smooth="yes"/>
			<point x="152" y="444"/>
			<point x="129" y="478"/>
			<point x="129" y="540" type="curve" smooth="yes"/>
			<point x="129" y="602"/>
			<point x="152" y="635"/>
		</contour>
		<contour>
			<point x="561" y="309" type="curve" smooth="yes"/>
			<point x="469" y="309"/>
			<point x="410" y="248"/>
			<point x="410" y="148" type="curve" smooth="yes"/>
			<point x="410" y="48"/>
			<point x="469" y="-14"/>
			<point x="561" y="-14" type="curve" smooth="yes"/>
			<point x="654" y="-14"/>
			<point x="712" y="48"/>
			<point x="712" y="148" type="curve" smooth="yes"/>
			<point x="712" y="248"/>
			<point x="654" y="309"/>
		</contour>
		<contour>
			<point x="561" y="243" type="curve" smooth="yes"/>
			<point x="599" y="243"/>
			<point x="622" y="210"/>
			<point x="622" y="148" type="curve" smooth="yes"/>
			<point x="622" y="86"/>
			<point x="599" y="52"/>
			<point x="561" y="52" type="curve" smooth="yes"/>
			<point x="524" y="52"/>
			<point x="500" y="86"/>
			<point x="500" y="148" type="curve" smooth="yes"/>
			<point x="500" y="210"/>
			<point x="524" y="243"/>
		</contour>
	</outline>
</glyph>
<glyph name="parenright" format="2">
	<advance width="336"/>
	<unicode hex="0029"/>
	<note>
		parenright
	</note>
	<outline>
		<contour>
			<point x="97" y="780" type="curve"/>
			<point x="32" y="780" type="line"/>
			<point x="110" y="654"/>
			<point x="154" y="505"/>
			<point x="154" y="350" type="curve" smooth="yes"/>
			<point x="154" y="195"/>
			<point x="110" y="46"/>
			<point x="32" y="-80" type="curve"/>
			<point x="97" y="-80" type="line"/>
			<point x="179" y="31"/>
			<point x="227" y="185"/>
			<point x="227" y="350" type="curve" smooth="yes"/>
			<point x="227" y="516"/>
			<point x="179" y="669"/>
		</contour>
	</outline>
</glyph>
<glyph name="plus" format="2">
	<advance width="601"/>
	<unicode hex="002B"/>
	<note>
		plus
	</note>
	<outline>
		<contour>
			<point x="335" y="284" type="line"/>
			<point x="514" y="284" type="line"/>
			<point x="514" y="348" type="line"/>
			<point x="335" y="348" type="line"/>
			<point x="335" y="551" type="line"/>
			<point x="266" y="551" type="line"/>
			<point x="266" y="348" type="line"/>
			<point x="87" y="348" type="line"/>
			<point x="87" y="284" type="line"/>
			<point x="266" y="284" type="line"/>
			<point x="266" y="83" type="line"/>
			<point x="335" y="83" type="line"/>
		</contour>
	</outline>
</glyph>
<glyph name="zero" format="2">
	<advance width="601"/>
	<unicode hex="0030"/>
	<note>
		zero
	</note>
	<outline>
		<contour>
			<point x="300" y="704" type="curve" smooth="yes"/>
			<point x="108" y="704"/>
			<point x="42" y="554"/>
			<point x="42" y="345" type="curve" smooth="yes"/>
			<point x="42" y="138"/>
			<point x="108" y="-14"/>
			<point x="300" y="-14" type="curve" smooth="yes"/>
			<point x="493" y="-14"/>
			<point x="558" y="138"/>
			<point x="558" y="345" type="curve" smooth="yes"/>
			<point x="558" y="554"/>
			<point x="493" y="704"/>
		</contour>
		<contour>
			<point x="300" y="70" type="curve" smooth="yes"/>
			<point x="202" y="70"/>
			<point x="161" y="168"/>
			<point x="161" y="345" type="curve" smooth="yes"/>
			<point x="161" y="524"/>
			<point x="202" y="620"/>
			<point x="300" y="620" type="curve" smooth="yes"/>
			<point x="399" y="620"/>
			<point x="439" y="524"/>
			<point x="439" y="345" type="curve" smooth="yes"/>
			<point x="439" y="168"/>
			<point x="399" y="70"/>
		</contour>
	</outline>
</glyph>
<glyph name="one" format="2">
	<advance width="601"/>
	<unicode hex="0031"/>
	<note>
		one
	</note>
	<outline>
		<contour>
			<point x="432" y="0" type="line"/>
			<point x="432" y="690" type="line"/>
			<point x="371" y="690" type="line" smooth="yes"/>
			<point x="340" y="690"/>
			<point x="311" y="683"/>
			<point x="279" y="664" type="curve" smooth="yes"/>
			<point x="127" y="571" type="line"/>
			<point x="127" y="463" type="line"/>
			<point x="322" y="575" type="line"/>
			<point x="322" y="0" type="line"/>
		</contour>
	</outline>
</glyph>
<glyph name="two" format="2">
	<advance width="601"/>
	<unicode hex="0032"/>
	<note>
		two
	</note>
	<outline>
		<contour>
			<point x="541" y="88" type="line"/>
			<point x="224" y="88" type="line"/>
			<point x="376" y="238" type="line" smooth="yes"/>
			<point x="497" y="356"/>
			<point x="545" y="420"/>
			<point x="545" y="511" type="curve" smooth="yes"/>
			<point x="545" y="620"/>
			<point x="471" y="705"/>
			<point x="325" y="705" type="curve" smooth="yes"/>
			<point x="179" y="705"/>
			<point x="90" y="626"/>
			<point x="76" y="480" type="curve" smooth="yes"/>
			<point x="75" y="470" type="line"/>
			<point x="185" y="470" type="line"/>
			<point x="186" y="480" type="line" smooth="yes"/>
			<point x="195" y="571"/>
			<point x="234" y="621"/>
			<point x="313" y="621" type="curve" smooth="yes"/>
			<point x="388" y="621"/>
			<point x="426" y="568"/>
			<point x="426" y="501" type="curve" smooth="yes"/>
			<point x="426" y="435"/>
			<point x="388" y="385"/>
			<point x="301" y="299" type="curve" smooth="yes"/>
			<point x="60" y="56" type="line"/>
			<point x="60" y="0" type="line"/>
			<point x="541" y="0" type="line"/>
		</contour>
	</outline>
</glyph>
<glyph name="three" format="2">
	<advance width="601"/>
	<unicode hex="0033"/>
	<note>
		three
	</note>
	<outline>
		<contour>
			<point x="411" y="366" type="curve"/>
			<point x="489" y="388"/>
			<point x="536" y="447"/>
			<point x="536" y="527" type="curve" smooth="yes"/>
			<point x="536" y="629"/>
			<point x="457" y="704"/>
			<point x="319" y="704" type="curve" smooth="yes"/>
			<point x="170" y="704"/>
			<point x="84" y="620"/>
			<point x="72" y="497" type="curve" smooth="yes"/>
			<point x="71" y="487" type="line"/>
			<point x="180" y="487" type="line"/>
			<point x="181" y="497" type="line" smooth="yes"/>
			<point x="189" y="576"/>
			<point x="239" y="620"/>
			<point x="307" y="620" type="curve" smooth="yes"/>
			<point x="374" y="620"/>
			<point x="417" y="577"/>
			<point x="417" y="514" type="curve" smooth="yes"/>
			<point x="417" y="437"/>
			<point x="360" y="392"/>
			<point x="282" y="391" type="curve" smooth="yes"/>
			<point x="262" y="390" type="line"/>
			<point x="262" y="309" type="line"/>
			<point x="282" y="309" type="line" smooth="yes"/>
			<point x="384" y="308"/>
			<point x="433" y="266"/>
			<point x="433" y="190" type="curve" smooth="yes"/>
			<point x="433" y="116"/>
			<point x="378" y="70"/>
			<point x="299" y="70" type="curve" smooth="yes"/>
			<point x="221" y="70"/>
			<point x="163" y="113"/>
			<point x="153" y="198" type="curve" smooth="yes"/>
			<point x="152" y="208" type="line"/>
			<point x="42" y="208" type="line"/>
			<point x="43" y="198" type="line" smooth="yes"/>
			<point x="58" y="52"/>
			<point x="152" y="-14"/>
			<point x="294" y="-14" type="curve" smooth="yes"/>
			<point x="438" y="-14"/>
			<point x="552" y="66"/>
			<point x="552" y="195" type="curve" smooth="yes"/>
			<point x="552" y="286"/>
			<point x="500" y="344"/>
		</contour>
	</outline>
</glyph>
<glyph name="four" format="2">
	<advance width="601"/>
	<unicode hex="0034"/>
	<note>
		four
	</note>
	<outline>
		<contour>
			<point x="481" y="169" type="line"/>
			<point x="568" y="169" type="line"/>
			<point x="568" y="257" type="line"/>
			<point x="481" y="257" type="line"/>
			<point x="481" y="690" type="line"/>
			<point x="368" y="690" type="line"/>
			<point x="34" y="226" type="line"/>
			<point x="34" y="169" type="line"/>
			<point x="372" y="169" type="line"/>
			<point x="372" y="0" type="line"/>
			<point x="481" y="0" type="line"/>
		</contour>
		<contour>
			<point x="372" y="556" type="curve"/>
			<point x="372" y="257" type="line"/>
			<point x="163" y="257" type="line"/>
			<point x="320" y="475" type="line" smooth="yes"/>
			<point x="341" y="503"/>
			<point x="357" y="530"/>
		</contour>
	</outline>
</glyph>
<glyph name="five" format="2">
	<advance width="601"/>
	<unicode hex="0035"/>
	<note>
		five
	</note>
	<outline>
		<contour>
			<point x="325" y="459" type="curve" smooth="yes"/>
			<point x="284" y="459"/>
			<point x="249" y="450"/>
			<point x="217" y="431" type="curve"/>
			<point x="178" y="384" type="line"/>
			<point x="206" y="603" type="line"/>
			<point x="526" y="603" type="line"/>
			<point x="526" y="690" type="line"/>
			<point x="117" y="690" type="line"/>
			<point x="68" y="286" type="line"/>
			<point x="171" y="286" type="line"/>
			<point x="201" y="350"/>
			<point x="242" y="375"/>
			<point x="301" y="375" type="curve" smooth="yes"/>
			<point x="386" y="375"/>
			<point x="436" y="314"/>
			<point x="436" y="221" type="curve" smooth="yes"/>
			<point x="436" y="127"/>
			<point x="383" y="70"/>
			<point x="298" y="70" type="curve" smooth="yes"/>
			<point x="221" y="70"/>
			<point x="182" y="115"/>
			<point x="168" y="186" type="curve"/>
			<point x="167" y="196" type="line"/>
			<point x="57" y="196" type="line"/>
			<point x="58" y="186" type="line" smooth="yes"/>
			<point x="72" y="52"/>
			<point x="156" y="-14"/>
			<point x="301" y="-14" type="curve" smooth="yes"/>
			<point x="433" y="-14"/>
			<point x="555" y="72"/>
			<point x="555" y="226" type="curve" smooth="yes"/>
			<point x="555" y="362"/>
			<point x="475" y="459"/>
		</contour>
	</outline>
</glyph>
<glyph name="nine" format="2">
	<advance width="601"/>
	<unicode hex="0039"/>
	<note>
		nine
	</note>
	<outline>
		<contour>
			<point x="301" y="704" type="curve" smooth="yes"/>
			<point x="160" y="704"/>
			<point x="49" y="608"/>
			<point x="49" y="455" type="curve" smooth="yes"/>
			<point x="49" y="323"/>
			<point x="130" y="225"/>
			<point x="277" y="225" type="curve" smooth="yes"/>
			<point x="327" y="225"/>
			<point x="365" y="237"/>
			<point x="402" y="267" type="curve"/>
			<point x="439" y="329" type="line"/>
			<point x="432" y="143"/>
			<point x="374" y="70"/>
			<point x="288" y="70" type="curve" smooth="yes"/>
			<point x="224" y="70"/>
			<point x="187" y="105"/>
			<point x="172" y="176" type="curve" smooth="yes"/>
			<point x="170" y="186" type="line"/>
			<point x="56" y="186" type="line"/>
			<point x="57" y="176" type="line" smooth="yes"/>
			<point x="68" y="60"/>
			<point x="152" y="-14"/>
			<point x="280" y="-14" type="curve" smooth="yes"/>
			<point x="432" y="-14"/>
			<point x="555" y="105"/>
			<point x="555" y="373" type="curve" smooth="yes"/>
			<point x="555" y="605"/>
			<point x="464" y="704"/>
		</contour>
		<contour>
			<point x="302" y="309" type="curve" smooth="yes"/>
			<point x="209" y="309"/>
			<point x="168" y="380"/>
			<point x="168" y="468" type="curve" smooth="yes"/>
			<point x="168" y="557"/>
			<point x="222" y="620"/>
			<point x="302" y="620" type="curve" smooth="yes"/>
			<point x="381" y="620"/>
			<point x="433" y="554"/>
			<point x="433" y="466" type="curve" smooth="yes"/>
			<point x="433" y="363"/>
			<point x="373" y="309"/>
		</contour>
	</outline>
</glyph>
<glyph name="less" format="2">
	<advance width="601"/>
	<unicode hex="003C"/>
	<note>
		less
	</note>
	<outline>
		<contour>
			<point x="175" y="266" type="line"/>
			<point x="523" y="422" type="line"/>
			<point x="523" y="503" type="line"/>
			<point x="104" y="308" type="line"/>
			<point x="104" y="223" type="line"/>
			<point x="523" y="28" type="line"/>
			<point x="523" y="110" type="line"/>
		</contour>
	</outline>
</glyph>
<glyph name="greater" format="2">
	<advance width="601"/>
	<unicode hex="003E"/>
	<note>
		greater
	</note>
	<outline>
		<contour>
			<point x="487" y="223" type="line"/>
			<point x="487" y="308" type="line"/>
			<point x="69" y="503" type="line"/>
			<point x="69" y="420" type="line"/>
			<point x="416" y="264" type="line"/>
			<point x="69" y="108" type="line"/>
			<point x="69" y="28" type="line"/>
		</contour>
	</outline>
</glyph>
<glyph name="F" format="2">
	<advance width="579"/>
	<unicode hex="0046"/>
	<note>
		F
	</note>
	<outline>
		<contour>
			<point x="205" y="389" type="line"/>
			<point x="205" y="603" type="line"/>
			<point x="562" y="603" type="line"/>
			<point x="562" y="690" type="line"/>
			<point x="95" y="690" type="line"/>
			<point x="95" y="0" type="line"/>
			<point x="205" y="0" type="line"/>
			<point x="205" y="302" type="line"/>
			<point x="524" y="302" type="line"/>
			<point x="524" y="389" type="line"/>
		</contour>
	</outline>
</glyph>
<glyph name="J" format="2">
	<advance width="568"/>
	<unicode hex="004A"/>
	<note>
		J
	</note>
	<outline>
		<contour>
			<point x="513" y="273" type="curve" smooth="yes"/>
			<point x="513" y="690" type="line"/>
			<point x="403" y="690" type="line"/>
			<point x="403" y="268" type="line" smooth="yes"/>
			<point x="403" y="236"/>
			<point x="403" y="212"/>
			<point x="402" y="191" type="curve" smooth="yes"/>
			<point x="396" y="116"/>
			<point x="360" y="70"/>
			<point x="287" y="70" type="curve" smooth="yes"/>
			<point x="213" y="70"/>
			<point x="170" y="110"/>
			<point x="165" y="204" type="curve" smooth="yes"/>
			<point x="163" y="242" type="line"/>
			<point x="53" y="242" type="line"/>
			<point x="54" y="204" type="line" smooth="yes"/>
			<point x="58" y="70"/>
			<point x="134" y="-14"/>
			<point x="277" y="-14" type="curve" smooth="yes"/>
			<point x="431" y="-14"/>
			<point x="503" y="67"/>
			<point x="510" y="184" type="curve" smooth="yes"/>
			<point x="513" y="223"/>
			<point x="513" y="245"/>
		</contour>
	</outline>
</glyph>
<glyph name="L" format="2">
	<advance width="588"/>
	<unicode hex="004C"/>
	<note>
		L
	</note>
	<outline>
		<contour>
			<point x="572" y="0" type="line"/>
			<point x="572" y="91" type="line"/>
			<point x="205" y="91" type="line"/>
			<point x="205" y="690" type="line"/>
			<point x="95" y="690" type="line"/>
			<point x="95" y="0" type="line"/>
		</contour>
	</outline>
</glyph>
<glyph name="Q" format="2">
	<advance width="748"/>
	<unicode hex="0051"/>
	<note>
		Q
	</note>
	<outline>
		<contour>
			<point x="595" y="87" type="curve"/>
			<point x="673" y="144"/>
			<point x="714" y="238"/>
			<point x="714" y="345" type="curve" smooth="yes"/>
			<point x="714" y="559"/>
			<point x="593" y="704"/>
			<point x="382" y="704" type="curve" smooth="yes"/>
			<point x="170" y="704"/>
			<point x="49" y="559"/>
			<point x="49" y="345" type="curve" smooth="yes"/>
			<point x="49" y="132"/>
			<point x="170" y="-14"/>
			<point x="382" y="-14" type="curve" smooth="yes"/>
			<point x="408" y="-14"/>
			<point x="431" y="-12"/>
			<point x="453" y="-7" type="curve" smooth="yes"/>
			<point x="481" y="-1"/>
			<point x="498" y="2"/>
			<point x="526" y="2" type="curve" smooth="yes"/>
			<point x="564" y="2"/>
			<point x="595" y="-7"/>
			<point x="662" y="-51" type="curve"/>
			<point x="721" y="22" type="line"/>
			<point x="679" y="57"/>
			<point x="640" y="79"/>
		</contour>
		<contour>
			<point x="167" y="345" type="curve" smooth="yes"/>
			<point x="167" y="517"/>
			<point x="247" y="620"/>
			<point x="382" y="620" type="curve" smooth="yes"/>
			<point x="516" y="620"/>
			<point x="596" y="517"/>
			<point x="596" y="345" type="curve" smooth="yes"/>
			<point x="596" y="174"/>
			<point x="516" y="70"/>
			<point x="382" y="70" type="curve" smooth="yes"/>
			<point x="247" y="70"/>
			<point x="167" y="174"/>
		</contour>
	</outline>
</glyph>
<glyph name="R" format="2">
	<advance width="635"/>
	<unicode hex="0052"/>
	<note>
		R
	</note>
	<outline>
		<contour>
			<point x="570" y="178" type="curve" smooth="yes"/>
			<point x="563" y="250"/>
			<point x="537" y="310"/>
			<point x="475" y="337" type="curve"/>
			<point x="548" y="359"/>
			<point x="603" y="412"/>
			<point x="603" y="502" type="curve" smooth="yes"/>
			<point x="603" y="620"/>
			<point x="528" y="673"/>
			<point x="428" y="686" type="curve" smooth="yes"/>
			<point x="395" y="690"/>
			<point x="370" y="690"/>
			<point x="333" y="690" type="curve" smooth="yes"/>
			<point x="95" y="690" type="line"/>
			<point x="95" y="0" type="line"/>
			<point x="205" y="0" type="line"/>
			<point x="205" y="288" type="line"/>
			<point x="312" y="288" type="line" smooth="yes"/>
			<point x="329" y="288"/>
			<point x="346" y="288"/>
			<point x="363" y="287" type="curve" smooth="yes"/>
			<point x="426" y="283"/>
			<point x="453" y="237"/>
			<point x="462" y="164" type="curve" smooth="yes"/>
			<point x="470" y="88"/>
			<point x="479" y="45"/>
			<point x="497" y="0" type="curve"/>
			<point x="618" y="0" type="line"/>
			<point x="590" y="38"/>
			<point x="578" y="91"/>
		</contour>
		<contour>
			<point x="320" y="373" type="curve" smooth="yes"/>
			<point x="205" y="373" type="line"/>
			<point x="205" y="603" type="line"/>
			<point x="327" y="603" type="line" smooth="yes"/>
			<point x="355" y="603"/>
			<point x="373" y="602"/>
			<point x="391" y="599" type="curve" smooth="yes"/>
			<point x="450" y="591"/>
			<point x="487" y="561"/>
			<point x="487" y="488" type="curve" smooth="yes"/>
			<point x="487" y="415"/>
			<point x="442" y="381"/>
			<point x="382" y="375" type="curve" smooth="yes"/>
			<point x="365" y="373"/>
			<point x="348" y="373"/>
		</contour>
	</outline>
</glyph>
<glyph name="W" format="2">
	<advance width="968"/>
	<unicode hex="0057"/>
	<note>
		W
	</note>
	<outline>
		<contour>
			<point x="778" y="0" type="line"/>
			<point x="966" y="690" type="line"/>
			<point x="852" y="690" type="line"/>
			<point x="712" y="88" type="line"/>
			<point x="573" y="680" type="line"/>
			<point x="422" y="680" type="line"/>
			<point x="279" y="91" type="line"/>
			<point x="147" y="690" type="line"/>
			<point x="26" y="690" type="line"/>
			<point x="204" y="0" type="line"/>
			<point x="350" y="0" type="line"/>
			<point x="495" y="588" type="line"/>
			<point x="633" y="0" type="line"/>
		</contour>
	</outline>
</glyph>
<glyph name="X" format="2">
	<advance width="648"/>
	<unicode hex="0058"/>
	<note>
		X
	</note>
	<outline>
		<contour>
			<point x="331" y="279" type="line"/>
			<point x="519" y="0" type="line"/>
			<point x="647" y="0" type="line"/>
			<point x="399" y="351" type="line"/>
			<point x="639" y="690" type="line"/>
			<point x="513" y="690" type="line"/>
			<point x="336" y="420" type="line"/>
			<point x="166" y="690" type="line"/>
			<point x="40" y="690" type="line"/>
			<point x="269" y="348" type="line"/>
			<point x="22" y="0" type="line"/>
			<point x="151" y="0" type="line"/>
		</contour>
	</outline>
</glyph>
<glyph name="Y" format="2">
	<advance width="602"/>
	<unicode hex="0059"/>
	<note>
		Y
	</note>
	<outline>
		<contour>
			<point x="371" y="0" type="line"/>
			<point x="371" y="270" type="line"/>
			<point x="615" y="690" type="line"/>
			<point x="493" y="690" type="line"/>
			<point x="321" y="371" type="line"/>
			<point x="143" y="690" type="line"/>
			<point x="18" y="690" type="line"/>
			<point x="262" y="270" type="line"/>
			<point x="262" y="0" type="line"/>
		</contour>
	</outline>
</glyph>
<glyph name="bracketleft" format="2">
	<advance width="333"/>
	<unicode hex="005B"/>
	<note>
		bracketleft
	</note>
	<outline>
		<contour>
			<point x="291" y="714" type="line"/>
			<point x="291" y="780" type="line"/>
			<point x="101" y="780" type="line"/>
			<point x="101" y="-80" type="line"/>
			<point x="291" y="-80" type="line"/>
			<point x="291" y="-14" type="line"/>
			<point x="169" y="-14" type="line"/>
			<point x="169" y="714" type="line"/>
		</contour>
	</outline>
</glyph>
<glyph name="backslash" format="2">
	<advance width="314"/>
	<unicode hex="005C"/>
	<note>
		backslash
	</note>
	<outline>
		<contour>
			<point x="246" y="-30" type="line"/>
			<point x="319" y="-30" type="line"/>
			<point x="68" y="720" type="line"/>
			<point x="-5" y="720" type="line"/>
		</contour>
	</outline>
</glyph>
<glyph name="bracketright" format="2">
	<advance width="324"/>
	<unicode hex="005D"/>
	<note>
		bracketright
	</note>
	<outline>
		<contour>
			<point x="33" y="-80" type="line"/>
			<point x="223" y="-80" type="line"/>
			<point x="223" y="780" type="line"/>
			<point x="33" y="780" type="line"/>
			<point x="33" y="714" type="line"/>
			<point x="155" y="714" type="line"/>
			<point x="155" y="-14" type="line"/>
			<point x="33" y="-14" type="line"/>
		</contour>
	</outline>
</glyph>
<glyph name="asciicircum" format="2">
	<advance width="601"/>
	<unicode hex="005E"/>
	<note>
		asciicircum
	</note>
	<outline>
		<contour>
			<point x="301" y="550" type="line"/>
			<point x="435" y="215" type="line"/>
			<point x="514" y="215" type="line"/>
			<point x="340" y="616" type="line"/>
			<point x="260" y="616" type="line"/>
			<point x="86" y="215" type="line"/>
			<point x="166" y="215" type="line"/>
		</contour>
	</outline>
</glyph>
<glyph name="b" format="2">
	<advance width="626"/>
	<unicode hex="0062"/>
	<note>
		b
	</note>
	<outline>
		<contour>
			<point x="358" y="545" type="curve" smooth="yes"/>
			<point x="304" y="545"/>
			<point x="249" y="530"/>
			<point x="219" y="505" type="curve"/>
			<point x="179" y="448" type="line"/>
			<point x="179" y="735" type="line"/>
			<point x="69" y="735" type="line"/>
			<point x="69" y="0" type="line"/>
			<point x="179" y="0" type="line"/>
			<point x="179" y="72" type="line"/>
			<point x="214" y="19" type="line"/>
			<point x="241" y="-2"/>
			<point x="296" y="-14"/>
			<point x="340" y="-14" type="curve" smooth="yes"/>
			<point x="477" y="-14"/>
			<point x="597" y="80"/>
			<point x="597" y="275" type="curve" smooth="yes"/>
			<point x="597" y="430"/>
			<point x="510" y="545"/>
		</contour>
		<contour>
			<point x="327" y="66" type="curve" smooth="yes"/>
			<point x="257" y="66"/>
			<point x="179" y="114"/>
			<point x="179" y="244" type="curve" smooth="yes"/>
			<point x="179" y="271" type="line" smooth="yes"/>
			<point x="179" y="413"/>
			<point x="250" y="465"/>
			<point x="332" y="465" type="curve" smooth="yes"/>
			<point x="428" y="465"/>
			<point x="481" y="380"/>
			<point x="481" y="265" type="curve" smooth="yes"/>
			<point x="481" y="133"/>
			<point x="415" y="66"/>
		</contour>
	</outline>
</glyph>
<glyph name="c" format="2">
	<advance width="544"/>
	<unicode hex="0063"/>
	<note>
		c
	</note>
	<outline>
		<contour>
			<point x="286" y="545" type="curve" smooth="yes"/>
			<point x="147" y="545"/>
			<point x="29" y="444"/>
			<point x="29" y="263" type="curve" smooth="yes"/>
			<point x="29" y="74"/>
			<point x="134" y="-14"/>
			<point x="273" y="-14" type="curve" smooth="yes"/>
			<point x="398" y="-14"/>
			<point x="490" y="49"/>
			<point x="515" y="176" type="curve"/>
			<point x="403" y="176" type="line"/>
			<point x="387" y="104"/>
			<point x="342" y="66"/>
			<point x="279" y="66" type="curve" smooth="yes"/>
			<point x="205" y="66"/>
			<point x="145" y="127"/>
			<point x="145" y="271" type="curve" smooth="yes"/>
			<point x="145" y="404"/>
			<point x="206" y="465"/>
			<point x="283" y="465" type="curve" smooth="yes"/>
			<point x="348" y="465"/>
			<point x="391" y="428"/>
			<point x="407" y="347" type="curve"/>
			<point x="518" y="347" type="line"/>
			<point x="505" y="464"/>
			<point x="420" y="545"/>
		</contour>
	</outline>
</glyph>
<glyph name="f" format="2">
	<advance width="312"/>
	<unicode hex="0066"/>
	<note>
		f
	</note>
	<outline>
		<contour>
			<point x="190" y="618" type="curve" smooth="yes"/>
			<point x="196" y="662"/>
			<point x="240" y="678"/>
			<point x="305" y="666" type="curve"/>
			<point x="305" y="748" type="line"/>
			<point x="287" y="752"/>
			<point x="266" y="754"/>
			<point x="244" y="754" type="curve" smooth="yes"/>
			<point x="144" y="754"/>
			<point x="89" y="706"/>
			<point x="80" y="624" type="curve" smooth="yes"/>
			<point x="78" y="606"/>
			<point x="78" y="580"/>
			<point x="78" y="561" type="curve" smooth="yes"/>
			<point x="78" y="527" type="line"/>
			<point x="21" y="527" type="line"/>
			<point x="21" y="450" type="line"/>
			<point x="78" y="450" type="line"/>
			<point x="78" y="0" type="line"/>
			<point x="187" y="0" type="line"/>
			<point x="187" y="450" type="line"/>
			<point x="296" y="450" type="line"/>
			<point x="296" y="527" type="line"/>
			<point x="187" y="527" type="line"/>
			<point x="187" y="567" type="line" smooth="yes"/>
			<point x="187" y="582"/>
			<point x="188" y="604"/>
		</contour>
	</outline>
</glyph>
<glyph name="k" format="2">
	<advance width="550"/>
	<unicode hex="006B"/>
	<note>
		k
	</note>
	<outline>
		<contour>
			<point x="179" y="166" type="line"/>
			<point x="226" y="218" type="line"/>
			<point x="406" y="0" type="line"/>
			<point x="549" y="0" type="line"/>
			<point x="304" y="282" type="line"/>
			<point x="546" y="531" type="line"/>
			<point x="411" y="531" type="line"/>
			<point x="179" y="275" type="line"/>
			<point x="179" y="735" type="line"/>
			<point x="69" y="735" type="line"/>
			<point x="69" y="0" type="line"/>
			<point x="179" y="0" type="line"/>
		</contour>
	</outline>
</glyph>
<glyph name="m" format="2">
	<advance width="883"/>
	<unicode hex="006D"/>
	<note>
		m
	</note>
	<outline>
		<contour>
			<point x="813" y="415" type="curve" smooth="yes"/>
			<point x="801" y="488"/>
			<point x="745" y="545"/>
			<point x="647" y="545" type="curve" smooth="yes"/>
			<point x="600" y="545"/>
			<point x="563" y="536"/>
			<point x="534" y="514" type="curve"/>
			<point x="485" y="444" type="line"/>
			<point x="465" y="503"/>
			<point x="412" y="545"/>
			<point x="328" y="545" type="curve" smooth="yes"/>
			<point x="280" y="545"/>
			<point x="243" y="536"/>
			<point x="215" y="514" type="curve"/>
			<point x="179" y="452" type="line"/>
			<point x="179" y="531" type="line"/>
			<point x="69" y="531" type="line"/>
			<point x="69" y="0" type="line"/>
			<point x="179" y="0" type="line"/>
			<point x="179" y="267" type="line" smooth="yes"/>
			<point x="179" y="411"/>
			<point x="221" y="464"/>
			<point x="286" y="464" type="curve" smooth="yes"/>
			<point x="343" y="464"/>
			<point x="377" y="434"/>
			<point x="385" y="377" type="curve" smooth="yes"/>
			<point x="388" y="350"/>
			<point x="389" y="321"/>
			<point x="389" y="281" type="curve" smooth="yes"/>
			<point x="389" y="0" type="line"/>
			<point x="498" y="0" type="line"/>
			<point x="498" y="267" type="line" smooth="yes"/>
			<point x="498" y="411"/>
			<point x="541" y="464"/>
			<point x="605" y="464" type="curve" smooth="yes"/>
			<point x="662" y="464"/>
			<point x="697" y="434"/>
			<point x="704" y="377" type="curve" smooth="yes"/>
			<point x="707" y="350"/>
			<point x="708" y="321"/>
			<point x="708" y="281" type="curve" smooth="yes"/>
			<point x="708" y="0" type="line"/>
			<point x="818" y="0" type="line"/>
			<point x="818" y="321" type="line" smooth="yes"/>
			<point x="818" y="364"/>
			<point x="817" y="388"/>
		</contour>
	</outline>
</glyph>
<glyph name="r" format="2">
	<advance width="353"/>
	<unicode hex="0072"/>
	<note>
		r
	</note>
	<outline>
		<contour>
			<point x="306" y="544" type="curve" smooth="yes"/>
			<point x="279" y="544"/>
			<point x="248" y="533"/>
			<point x="224" y="514" type="curve"/>
			<point x="179" y="441" type="line"/>
			<point x="179" y="531" type="line"/>
			<point x="69" y="531" type="line"/>
			<point x="69" y="0" type="line"/>
			<point x="179" y="0" type="line"/>
			<point x="179" y="276" type="line" smooth="yes"/>
			<point x="179" y="407"/>
			<point x="242" y="459"/>
			<point x="343" y="452" type="curve"/>
			<point x="343" y="538" type="line"/>
			<point x="332" y="542"/>
			<point x="321" y="544"/>
		</contour>
	</outline>
</glyph>
<glyph name="v" format="2">
	<advance width="538"/>
	<unicode hex="0076"/>
	<note>
		v
	</note>
	<outline>
		<contour>
			<point x="332" y="0" type="line"/>
			<point x="535" y="531" type="line"/>
			<point x="418" y="531" type="line"/>
			<point x="271" y="81" type="line"/>
			<point x="122" y="531" type="line"/>
			<point x="1" y="531" type="line"/>
			<point x="204" y="0" type="line"/>
		</contour>
	</outline>
</glyph>
<glyph name="w" format="2">
	<advance width="806"/>
	<unicode hex="0077"/>
	<note>
		w
	</note>
	<outline>
		<contour>
			<point x="634" y="0" type="line"/>
			<point x="803" y="531" type="line"/>
			<point x="686" y="531" type="line"/>
			<point x="577" y="97" type="line"/>
			<point x="471" y="530" type="line"/>
			<point x="337" y="530" type="line"/>
			<point x="234" y="98" type="line"/>
			<point x="125" y="531" type="line"/>
			<point x="1" y="531" type="line"/>
			<point x="170" y="0" type="line"/>
			<point x="297" y="0" type="line"/>
			<point x="403" y="429" type="line"/>
			<point x="508" y="0" type="line"/>
		</contour>
	</outline>
</glyph>
<glyph name="z" format="2">
	<advance width="478"/>
	<unicode hex="007A"/>
	<note>
		z
	</note>
	<outline>
		<contour>
			<point x="449" y="0" type="line"/>
			<point x="449" y="79" type="line"/>
			<point x="148" y="79" type="line"/>
			<point x="445" y="448" type="line"/>
			<point x="445" y="527" type="line"/>
			<point x="44" y="527" type="line"/>
			<point x="44" y="448" type="line"/>
			<point x="323" y="448" type="line"/>
			<point x="24" y="76" type="line"/>
			<point x="24" y="0" type="line"/>
		</contour>
	</outline>
</glyph>
<glyph name="braceright" format="2">
	<advance width="335"/>
	<unicode hex="007D"/>
	<note>
		braceright
	</note>
	<outline>
		<contour>
			<point x="259" y="317" type="curve"/>
			<point x="259" y="383" type="line"/>
			<point x="196" y="389"/>
			<point x="177" y="416"/>
			<point x="177" y="455" type="curve" smooth="yes"/>
			<point x="177" y="482"/>
			<point x="180" y="509"/>
			<point x="187" y="560" type="curve" smooth="yes"/>
			<point x="197" y="626"/>
			<point x="199" y="647"/>
			<point x="199" y="672" type="curve" smooth="yes"/>
			<point x="199" y="753"/>
			<point x="153" y="780"/>
			<point x="63" y="780" type="curve" smooth="yes"/>
			<point x="42" y="780" type="line"/>
			<point x="42" y="714" type="line"/>
			<point x="57" y="714" type="line" smooth="yes"/>
			<point x="113" y="714"/>
			<point x="131" y="699"/>
			<point x="131" y="667" type="curve" smooth="yes"/>
			<point x="131" y="647"/>
			<point x="129" y="632"/>
			<point x="120" y="570" type="curve" smooth="yes"/>
			<point x="111" y="506"/>
			<point x="107" y="479"/>
			<point x="107" y="452" type="curve" smooth="yes"/>
			<point x="107" y="396"/>
			<point x="138" y="358"/>
			<point x="192" y="349" type="curve"/>
			<point x="137" y="340"/>
			<point x="107" y="305"/>
			<point x="107" y="248" type="curve" smooth="yes"/>
			<point x="107" y="221"/>
			<point x="111" y="194"/>
			<point x="120" y="130" type="curve" smooth="yes"/>
			<point x="129" y="69"/>
			<point x="131" y="54"/>
			<point x="131" y="33" type="curve" smooth="yes"/>
			<point x="131" y="1"/>
			<point x="113" y="-14"/>
			<point x="57" y="-14" type="curve" smooth="yes"/>
			<point x="42" y="-14" type="line"/>
			<point x="42" y="-80" type="line"/>
			<point x="63" y="-80" type="line" smooth="yes"/>
			<point x="153" y="-80"/>
			<point x="199" y="-53"/>
			<point x="199" y="29" type="curve" smooth="yes"/>
			<point x="199" y="53"/>
			<point x="197" y="74"/>
			<point x="187" y="140" type="curve" smooth="yes"/>
			<point x="180" y="191"/>
			<point x="177" y="218"/>
			<point x="177" y="245" type="curve" smooth="yes"/>
			<point x="177" y="285"/>
			<point x="196" y="312"/>
		</contour>
	</outline>
</glyph>
<glyph name="asciitilde" format="2">
	<advance width="601"/>
	<unicode hex="007E"/>
	<note>
		asciitilde
	</note>
	<outline>
		<contour>
			<point x="521" y="369" type="curve"/>
			<point x="455" y="369" type="line"/>
			<point x="455" y="319"/>
			<point x="443" y="293"/>
			<point x="407" y="293" type="curve" smooth="yes"/>
			<point x="380" y="293"/>
			<point x="353" y="307"/>
			<point x="314" y="328" type="curve" smooth="yes"/>
			<point x="263" y="355"/>
			<point x="236" y="369"/>
			<point x="195" y="369" type="curve" smooth="yes"/>
			<point x="118" y="369"/>
			<point x="80" y="319"/>
			<point x="80" y="223" type="curve"/>
			<point x="146" y="223" type="line"/>
			<point x="146" y="271"/>
			<point x="157" y="299"/>
			<point x="194" y="299" type="curve" smooth="yes"/>
			<point x="220" y="299"/>
			<point x="246" y="286"/>
			<point x="287" y="264" type="curve" smooth="yes"/>
			<point x="338" y="237"/>
			<point x="365" y="223"/>
			<point x="405" y="223" type="curve" smooth="yes"/>
			<point x="482" y="223"/>
			<point x="521" y="273"/>
		</contour>
	</outline>
</glyph>
<glyph name="cent" format="2">
	<advance width="586"/>
	<unicode hex="00A2"/>
	<note>
		cent
	</note>
	<outline>
		<contour>
			<point x="336" y="70" type="curve"/>
			<point x="336" y="461" type="line"/>
			<point x="386" y="451"/>
			<point x="422" y="414"/>
			<point x="436" y="346" type="curve"/>
			<point x="542" y="346" type="line"/>
			<point x="530" y="455"/>
			<point x="455" y="533"/>
			<point x="336" y="543" type="curve"/>
			<point x="336" y="620" type="line"/>
			<point x="268" y="620" type="line"/>
			<point x="268" y="541" type="line"/>
			<point x="148" y="522"/>
			<point x="53" y="424"/>
			<point x="53" y="263" type="curve" smooth="yes"/>
			<point x="53" y="88"/>
			<point x="144" y="-1"/>
			<point x="268" y="-13" type="curve"/>
			<point x="268" y="-90" type="line"/>
			<point x="336" y="-90" type="line"/>
			<point x="336" y="-12" type="line"/>
			<point x="441" y="0"/>
			<point x="517" y="63"/>
			<point x="539" y="176" type="curve"/>
			<point x="432" y="176" type="line"/>
			<point x="419" y="117"/>
			<point x="383" y="81"/>
		</contour>
		<contour>
			<point x="164" y="270" type="curve" smooth="yes"/>
			<point x="164" y="380"/>
			<point x="209" y="441"/>
			<point x="268" y="458" type="curve"/>
			<point x="268" y="71" type="line"/>
			<point x="210" y="88"/>
			<point x="164" y="149"/>
		</contour>
	</outline>
</glyph>
<glyph name="sterling" format="2">
	<advance width="601"/>
	<unicode hex="00A3"/>
	<note>
		sterling
	</note>
	<outline>
		<contour>
			<point x="539" y="0" type="line"/>
			<point x="539" y="88" type="line"/>
			<point x="203" y="88" type="line"/>
			<point x="258" y="118"/>
			<point x="287" y="160"/>
			<point x="287" y="224" type="curve" smooth="yes"/>
			<point x="287" y="253"/>
			<point x="283" y="279"/>
			<point x="272" y="310" type="curve"/>
			<point x="457" y="310" type="line"/>
			<point x="457" y="374" type="line"/>
			<point x="247" y="374" type="line"/>
			<point x="221" y="433"/>
			<point x="212" y="462"/>
			<point x="212" y="511" type="curve" smooth="yes"/>
			<point x="212" y="566"/>
			<point x="245" y="620"/>
			<point x="314" y="620" type="curve" smooth="yes"/>
			<point x="378" y="620"/>
			<point x="412" y="581"/>
			<point x="421" y="504" type="curve"/>
			<point x="535" y="504" type="line"/>
			<point x="527" y="616"/>
			<point x="458" y="704"/>
			<point x="316" y="704" type="curve" smooth="yes"/>
			<point x="189" y="704"/>
			<point x="93" y="622"/>
			<point x="93" y="496" type="curve" smooth="yes"/>
			<point x="93" y="450"/>
			<point x="104" y="416"/>
			<point x="122" y="374" type="curve"/>
			<point x="76" y="374" type="line"/>
			<point x="76" y="310" type="line"/>
			<point x="151" y="310" type="line"/>
			<point x="167" y="272"/>
			<point x="173" y="245"/>
			<point x="173" y="208" type="curve" smooth="yes"/>
			<point x="173" y="151"/>
			<point x="147" y="96"/>
			<point x="67" y="78" type="curve"/>
			<point x="67" y="0" type="line"/>
		</contour>
	</outline>
</glyph>
<glyph name="yen" format="2">
	<advance width="601"/>
	<unicode hex="00A5"/>
	<note>
		yen
	</note>
	<outline>
		<contour>
			<point x="514" y="363" type="line"/>
			<point x="396" y="363" type="line"/>
			<point x="577" y="690" type="line"/>
			<point x="456" y="690" type="line"/>
			<point x="304" y="367" type="line"/>
			<point x="149" y="690" type="line"/>
			<point x="23" y="690" type="line"/>
			<point x="204" y="363" type="line"/>
			<point x="87" y="363" type="line"/>
			<point x="87" y="297" type="line"/>
			<point x="241" y="297" type="line"/>
			<point x="246" y="287" type="line"/>
			<point x="246" y="235" type="line"/>
			<point x="87" y="235" type="line"/>
			<point x="87" y="169" type="line"/>
			<point x="246" y="169" type="line"/>
			<point x="246" y="0" type="line"/>
			<point x="355" y="0" type="line"/>
			<point x="355" y="169" type="line"/>
			<point x="514" y="169" type="line"/>
			<point x="514" y="235" type="line"/>
			<point x="355" y="235" type="line"/>
			<point x="355" y="289" type="line"/>
			<point x="359" y="297" type="line"/>
			<point x="514" y="297" type="line"/>
		</contour>
	</outline>
</glyph>
<glyph name="section" format="2">
	<advance width="578"/>
	<unicode hex="00A7"/>
	<note>
		section
	</note>
	<outline>
		<contour>
			<point x="550" y="243" type="curve" smooth="yes"/>
			<point x="550" y="342"/>
			<point x="485" y="397"/>
			<point x="340" y="437" type="curve" smooth="yes"/>
			<point x="244" y="463"/>
			<point x="208" y="496"/>
			<point x="208" y="550" type="curve" smooth="yes"/>
			<point x="208" y="599"/>
			<point x="241" y="627"/>
			<point x="285" y="627" type="curve" smooth="yes"/>
			<point x="335" y="627"/>
			<point x="367" y="593"/>
			<point x="378" y="535" type="curve"/>
			<point x="489" y="535" type="line"/>
			<point x="478" y="637"/>
			<point x="409" y="704"/>
			<point x="287" y="704" type="curve" smooth="yes"/>
			<point x="175" y="704"/>
			<point x="94" y="640"/>
			<point x="94" y="536" type="curve" smooth="yes"/>
			<point x="94" y="500"/>
			<point x="106" y="469"/>
			<point x="126" y="444" type="curve"/>
			<point x="68" y="417"/>
			<point x="30" y="367"/>
			<point x="30" y="295" type="curve" smooth="yes"/>
			<point x="30" y="192"/>
			<point x="111" y="135"/>
			<point x="226" y="105" type="curve" smooth="yes"/>
			<point x="346" y="74"/>
			<point x="377" y="36"/>
			<point x="377" y="-17" type="curve" smooth="yes"/>
			<point x="377" y="-70"/>
			<point x="339" y="-97"/>
			<point x="288" y="-97" type="curve" smooth="yes"/>
			<point x="233" y="-97"/>
			<point x="190" y="-67"/>
			<point x="173" y="2" type="curve"/>
			<point x="62" y="2" type="line"/>
			<point x="76" y="-119"/>
			<point x="163" y="-174"/>
			<point x="283" y="-174" type="curve" smooth="yes"/>
			<point x="394" y="-174"/>
			<point x="491" y="-118"/>
			<point x="491" y="-8" type="curve" smooth="yes"/>
			<point x="491" y="36"/>
			<point x="478" y="70"/>
			<point x="455" y="98" type="curve"/>
			<point x="511" y="126"/>
			<point x="550" y="177"/>
		</contour>
		<contour>
			<point x="144" y="299" type="curve" smooth="yes"/>
			<point x="144" y="350"/>
			<point x="169" y="377"/>
			<point x="205" y="384" type="curve"/>
			<point x="233" y="370"/>
			<point x="264" y="359"/>
			<point x="297" y="349" type="curve" smooth="yes"/>
			<point x="395" y="319"/>
			<point x="436" y="288"/>
			<point x="436" y="232" type="curve" smooth="yes"/>
			<point x="436" y="196"/>
			<point x="413" y="166"/>
			<point x="376" y="154" type="curve"/>
			<point x="347" y="168"/>
			<point x="313" y="180"/>
			<point x="274" y="190" type="curve" smooth="yes"/>
			<point x="194" y="211"/>
			<point x="144" y="248"/>
		</contour>
	</outline>
</glyph>
<glyph name="dieresis" format="2">
	<advance width="300"/>
	<unicode hex="00A8"/>
	<note>
		dieresis
	</note>
	<outline>
		<contour>
			<point x="19" y="688" type="line"/>
			<point x="19" y="582" type="line"/>
			<point x="127" y="582" type="line"/>
			<point x="127" y="688" type="line"/>
		</contour>
		<contour>
			<point x="174" y="688" type="line"/>
			<point x="174" y="582" type="line"/>
			<point x="282" y="582" type="line"/>
			<point x="282" y="688" type="line"/>
		</contour>
	</outline>
</glyph>
<glyph name="macron" format="2">
	<advance width="300"/>
	<unicode hex="00AF"/>
	<note>
		macron
	</note>
	<outline>
		<contour>
			<point x="23" y="600" type="line"/>
			<point x="278" y="600" type="line"/>
			<point x="278" y="663" type="line"/>
			<point x="23" y="663" type="line"/>
		</contour>
	</outline>
</glyph>
<glyph name="plusminus" format="2">
	<advance width="601"/>
	<unicode hex="00B1"/>
	<note>
		plusminus
	</note>
	<outline>
		<contour>
			<point x="508" y="352" type="line"/>
			<point x="335" y="352" type="line"/>
			<point x="335" y="519" type="line"/>
			<point x="266" y="519" type="line"/>
			<point x="266" y="352" type="line"/>
			<point x="93" y="352" type="line"/>
			<point x="93" y="286" type="line"/>
			<point x="266" y="286" type="line"/>
			<point x="266" y="115" type="line"/>
			<point x="335" y="115" type="line"/>
			<point x="335" y="286" type="line"/>
			<point x="508" y="286" type="line"/>
		</contour>
		<contour>
			<point x="93" y="0" type="line"/>
			<point x="508" y="0" type="line"/>
			<point x="508" y="64" type="line"/>
			<point x="93" y="64" type="line"/>
		</contour>
	</outline>
</glyph>
<glyph name="acute" format="2">
	<advance width="300"/>
	<unicode hex="00B4"/>
	<note>
		acute
	</note>
	<outline>
		<contour>
			<point x="111" y="578" type="line"/>
			<point x="177" y="578" type="line"/>
			<point x="280" y="692" type="line"/>
			<point x="180" y="692" type="line"/>
		</contour>
	</outline>
</glyph>
<glyph name="Acircumflex" format="2">
	<advance width="656"/>
	<unicode hex="00C2"/>
	<note>
		Acircumflex
	</note>
	<outline>
		<contour>
			<point x="236" y="736" type="line"/>
			<point x="311" y="736" type="line"/>
			<point x="342" y="796" type="line"/>
			<point x="373" y="736" type="line"/>
			<point x="449" y="736" type="line"/>
			<point x="383" y="838" type="line"/>
			<point x="302" y="838" type="line"/>
		</contour>
		<contour>
			<point x="215" y="228" type="line"/>
			<point x="460" y="228" type="line"/>
			<point x="535" y="0" type="line"/>
			<point x="654" y="0" type="line"/>
			<point x="413" y="690" type="line"/>
			<point x="271" y="690" type="line"/>
			<point x="23" y="0" type="line"/>
			<point x="140" y="0" type="line"/>
		</contour>
		<contour>
			<point x="431" y="315" type="line"/>
			<point x="244" y="315" type="line"/>
			<point x="340" y="599" type="line"/>
		</contour>
	</outline>
</glyph>
<glyph name="Atilde" format="2">
	<advance width="656"/>
	<unicode hex="00C3"/>
	<note>
		Atilde
	</note>
	<outline>
		<contour>
			<point x="290" y="771" type="curve" smooth="yes"/>
			<point x="299" y="771"/>
			<point x="310" y="767"/>
			<point x="334" y="759" type="curve" smooth="yes"/>
			<point x="364" y="748"/>
			<point x="380" y="744"/>
			<point x="401" y="744" type="curve" smooth="yes"/>
			<point x="441" y="744"/>
			<point x="463" y="766"/>
			<point x="463" y="831" type="curve"/>
			<point x="410" y="831" type="line"/>
			<point x="410" y="814"/>
			<point x="405" y="808"/>
			<point x="394" y="808" type="curve" smooth="yes"/>
			<point x="386" y="808"/>
			<point x="374" y="812"/>
			<point x="350" y="820" type="curve" smooth="yes"/>
			<point x="321" y="831"/>
			<point x="305" y="835"/>
			<point x="283" y="835" type="curve" smooth="yes"/>
			<point x="244" y="835"/>
			<point x="222" y="813"/>
			<point x="222" y="748" type="curve"/>
			<point x="274" y="748" type="line"/>
			<point x="274" y="765"/>
			<point x="280" y="771"/>
		</contour>
		<contour>
			<point x="215" y="228" type="line"/>
			<point x="460" y="228" type="line"/>
			<point x="535" y="0" type="line"/>
			<point x="654" y="0" type="line"/>
			<point x="413" y="690" type="line"/>
			<point x="271" y="690" type="line"/>
			<point x="23" y="0" type="line"/>
			<point x="140" y="0" type="line"/>
		</contour>
		<contour>
			<point x="431" y="315" type="line"/>
			<point x="244" y="315" type="line"/>
			<point x="340" y="599" type="line"/>
		</contour>
	</outline>
</glyph>
<glyph name="Aring" format="2">
	<advance width="656"/>
	<unicode hex="00C5"/>
	<note>
		Aring
	</note>
	<outline>
		<contour>
			<point x="342" y="718" type="curve" smooth="yes"/>
			<point x="399" y="718"/>
			<point x="440" y="753"/>
			<point x="440" y="803" type="curve" smooth="yes"/>
			<point x="440" y="853"/>
			<point x="399" y="889"/>
			<point x="342" y="889" type="curve" smooth="yes"/>
			<point x="285" y="889"/>
			<point x="244" y="853"/>
			<point x="244" y="803" type="curve" smooth="yes"/>
			<point x="244" y="753"/>
			<point x="285" y="718"/>
		</contour>
		<contour>
			<point x="342" y="845" type="curve" smooth="yes"/>
			<point x="365" y="845"/>
			<point x="382" y="828"/>
			<point x="382" y="803" type="curve" smooth="yes"/>
			<point x="382" y="779"/>
			<point x="365" y="761"/>
			<point x="342" y="761" type="curve" smooth="yes"/>
			<point x="319" y="761"/>
			<point x="302" y="779"/>
			<point x="302" y="803" type="curve" smooth="yes"/>
			<point x="302" y="828"/>
			<point x="319" y="845"/>
		</contour>
		<contour>
			<point x="215" y="228" type="line"/>
			<point x="460" y="228" type="line"/>
			<point x="535" y="0" type="line"/>
			<point x="654" y="0" type="line"/>
			<point x="413" y="690" type="line"/>
			<point x="271" y="690" type="line"/>
			<point x="23" y="0" type="line"/>
			<point x="140" y="0" type="line"/>
		</contour>
		<contour>
			<point x="431" y="315" type="line"/>
			<point x="244" y="315" type="line"/>
			<point x="340" y="599" type="line"/>
		</contour>
	</outline>
</glyph>
<glyph name="Ccedilla" format="2">
	<advance width="708"/>
	<unicode hex="00C7"/>
	<note>
		Ccedilla
	</note>
	<outline>
		<contour>
			<point x="663" y="234" type="line"/>
			<point x="554" y="234" type="line"/>
			<point x="552" y="224" type="line" smooth="yes"/>
			<point x="533" y="131"/>
			<point x="476" y="70"/>
			<point x="372" y="70" type="curve" smooth="yes"/>
			<point x="250" y="70"/>
			<point x="168" y="176"/>
			<point x="168" y="347" type="curve" smooth="yes"/>
			<point x="168" y="510"/>
			<point x="249" y="620"/>
			<point x="377" y="620" type="curve" smooth="yes"/>
			<point x="481" y="620"/>
			<point x="538" y="561"/>
			<point x="557" y="468" type="curve" smooth="yes"/>
			<point x="559" y="458" type="line"/>
			<point x="668" y="458" type="line"/>
			<point x="667" y="468" type="line" smooth="yes"/>
			<point x="653" y="604"/>
			<point x="559" y="704"/>
			<point x="379" y="704" type="curve" smooth="yes"/>
			<point x="185" y="704"/>
			<point x="49" y="559"/>
			<point x="49" y="342" type="curve" smooth="yes"/>
			<point x="49" y="149"/>
			<point x="151" y="11"/>
			<point x="320" y="-11" type="curve"/>
			<point x="283" y="-81" type="line"/>
			<point x="353" y="-76"/>
			<point x="379" y="-91"/>
			<point x="379" y="-122" type="curve" smooth="yes"/>
			<point x="379" y="-146"/>
			<point x="359" y="-161"/>
			<point x="317" y="-161" type="curve" smooth="yes"/>
			<point x="298" y="-161"/>
			<point x="281" y="-159"/>
			<point x="263" y="-151" type="curve"/>
			<point x="263" y="-202" type="line"/>
			<point x="278" y="-208"/>
			<point x="296" y="-210"/>
			<point x="315" y="-210" type="curve" smooth="yes"/>
			<point x="393" y="-210"/>
			<point x="449" y="-181"/>
			<point x="449" y="-122" type="curve" smooth="yes"/>
			<point x="449" y="-76"/>
			<point x="420" y="-48"/>
			<point x="365" y="-41" type="curve"/>
			<point x="379" y="-14" type="line"/>
			<point x="551" y="-9"/>
			<point x="648" y="92"/>
			<point x="662" y="224" type="curve" smooth="yes"/>
		</contour>
	</outline>
</glyph>
<glyph name="Egrave" format="2">
	<advance width="600"/>
	<unicode hex="00C8"/>
	<note>
		Egrave
	</note>
	<outline>
		<contour>
			<point x="213" y="838" type="line"/>
			<point x="310" y="736" type="line"/>
			<point x="376" y="736" type="line"/>
			<point x="313" y="838" type="line"/>
		</contour>
		<contour>
			<point x="572" y="0" type="line"/>
			<point x="572" y="88" type="line"/>
			<point x="205" y="88" type="line"/>
			<point x="205" y="302" type="line"/>
			<point x="534" y="302" type="line"/>
			<point x="534" y="389" type="line"/>
			<point x="205" y="389" type="line"/>
			<point x="205" y="603" type="line"/>
			<point x="562" y="603" type="line"/>
			<point x="562" y="690" type="line"/>
			<point x="95" y="690" type="line"/>
			<point x="95" y="0" type="line"/>
		</contour>
	</outline>
</glyph>
<glyph name="Eacute" format="2">
	<advance width="600"/>
	<unicode hex="00C9"/>
	<note>
		Eacute
	</note>
	<outline>
		<contour>
			<point x="299" y="736" type="line"/>
			<point x="365" y="736" type="line"/>
			<point x="462" y="838" type="line"/>
			<point x="362" y="838" type="line"/>
		</contour>
		<contour>
			<point x="572" y="0" type="line"/>
			<point x="572" y="88" type="line"/>
			<point x="205" y="88" type="line"/>
			<point x="205" y="302" type="line"/>
			<point x="534" y="302" type="line"/>
			<point x="534" y="389" type="line"/>
			<point x="205" y="389" type="line"/>
			<point x="205" y="603" type="line"/>
			<point x="562" y="603" type="line"/>
			<point x="562" y="690" type="line"/>
			<point x="95" y="690" type="line"/>
			<point x="95" y="0" type="line"/>
		</contour>
	</outline>
</glyph>
<glyph name="Edieresis" format="2">
	<advance width="600"/>
	<unicode hex="00CB"/>
	<note>
		Edieresis
	</note>
	<outline>
		<contour>
			<point x="572" y="0" type="line"/>
			<point x="572" y="88" type="line"/>
			<point x="205" y="88" type="line"/>
			<point x="205" y="302" type="line"/>
			<point x="534" y="302" type="line"/>
			<point x="534" y="389" type="line"/>
			<point x="205" y="389" type="line"/>
			<point x="205" y="603" type="line"/>
			<point x="562" y="603" type="line"/>
			<point x="562" y="690" type="line"/>
			<point x="95" y="690" type="line"/>
			<point x="95" y="0" type="line"/>
		</contour>
		<contour>
			<point x="204" y="836" type="line"/>
			<point x="204" y="730" type="line"/>
			<point x="312" y="730" type="line"/>
			<point x="312" y="836" type="line"/>
		</contour>
		<contour>
			<point x="359" y="836" type="line"/>
			<point x="359" y="730" type="line"/>
			<point x="467" y="730" type="line"/>
			<point x="467" y="836" type="line"/>
		</contour>
	</outline>
</glyph>
<glyph name="Igrave" format="2">
	<advance width="277"/>
	<unicode hex="00CC"/>
	<note>
		Igrave
	</note>
	<outline>
		<contour>
			<point x="123" y="736" type="line"/>
			<point x="189" y="736" type="line"/>
			<point x="126" y="838" type="line"/>
			<point x="26" y="838" type="line"/>
		</contour>
		<contour>
			<point x="95" y="0" type="line"/>
			<point x="205" y="0" type="line"/>
			<point x="205" y="690" type="line"/>
			<point x="95" y="690" type="line"/>
		</contour>
	</outline>
</glyph>
<glyph name="Icircumflex" format="2">
	<advance width="277"/>
	<unicode hex="00CE"/>
	<note>
		Icircumflex
	</note>
	<outline>
		<contour>
			<point x="44" y="736" type="line"/>
			<point x="119" y="736" type="line"/>
			<point x="150" y="796" type="line"/>
			<point x="181" y="736" type="line"/>
			<point x="257" y="736" type="line"/>
			<point x="191" y="838" type="line"/>
			<point x="110" y="838" type="line"/>
		</contour>
		<contour>
			<point x="205" y="690" type="line"/>
			<point x="95" y="690" type="line"/>
			<point x="95" y="0" type="line"/>
			<point x="205" y="0" type="line"/>
		</contour>
	</outline>
</glyph>
<glyph name="Idieresis" format="2">
	<advance width="277"/>
	<unicode hex="00CF"/>
	<note>
		Idieresis
	</note>
	<outline>
		<contour>
			<point x="95" y="0" type="line"/>
			<point x="205" y="0" type="line"/>
			<point x="205" y="690" type="line"/>
			<point x="95" y="690" type="line"/>
		</contour>
		<contour>
			<point x="18" y="839" type="line"/>
			<point x="18" y="733" type="line"/>
			<point x="126" y="733" type="line"/>
			<point x="126" y="839" type="line"/>
		</contour>
		<contour>
			<point x="173" y="839" type="line"/>
			<point x="173" y="733" type="line"/>
			<point x="281" y="733" type="line"/>
			<point x="281" y="839" type="line"/>
		</contour>
	</outline>
</glyph>
<glyph name="Eth" format="2">
	<advance width="716"/>
	<unicode hex="00D0"/>
	<note>
		Eth
	</note>
	<outline>
		<contour>
			<point x="402" y="686" type="curve" smooth="yes"/>
			<point x="367" y="690"/>
			<point x="351" y="690"/>
			<point x="314" y="690" type="curve" smooth="yes"/>
			<point x="92" y="690" type="line"/>
			<point x="92" y="368" type="line"/>
			<point x="33" y="368" type="line"/>
			<point x="33" y="302" type="line"/>
			<point x="92" y="302" type="line"/>
			<point x="92" y="0" type="line"/>
			<point x="311" y="0" type="line" smooth="yes"/>
			<point x="348" y="0"/>
			<point x="364" y="0"/>
			<point x="399" y="4" type="curve" smooth="yes"/>
			<point x="559" y="24"/>
			<point x="680" y="147"/>
			<point x="680" y="353" type="curve" smooth="yes"/>
			<point x="680" y="562"/>
			<point x="562" y="667"/>
		</contour>
		<contour>
			<point x="380" y="92" type="curve" smooth="yes"/>
			<point x="358" y="88"/>
			<point x="334" y="88"/>
			<point x="301" y="88" type="curve" smooth="yes"/>
			<point x="201" y="88" type="line"/>
			<point x="201" y="302" type="line"/>
			<point x="329" y="302" type="line"/>
			<point x="329" y="368" type="line"/>
			<point x="201" y="368" type="line"/>
			<point x="201" y="603" type="line"/>
			<point x="304" y="603" type="line" smooth="yes"/>
			<point x="338" y="603"/>
			<point x="361" y="602"/>
			<point x="384" y="598" type="curve" smooth="yes"/>
			<point x="494" y="582"/>
			<point x="563" y="498"/>
			<point x="563" y="353" type="curve" smooth="yes"/>
			<point x="563" y="200"/>
			<point x="490" y="108"/>
		</contour>
	</outline>
</glyph>
<glyph name="Oacute" format="2">
	<advance width="750"/>
	<unicode hex="00D3"/>
	<note>
		Oacute
	</note>
	<outline>
		<contour>
			<point x="344" y="736" type="line"/>
			<point x="410" y="736" type="line"/>
			<point x="507" y="838" type="line"/>
			<point x="407" y="838" type="line"/>
		</contour>
		<contour>
			<point x="382" y="704" type="curve" smooth="yes"/>
			<point x="170" y="704"/>
			<point x="49" y="559"/>
			<point x="49" y="345" type="curve" smooth="yes"/>
			<point x="49" y="132"/>
			<point x="170" y="-14"/>
			<point x="382" y="-14" type="curve" smooth="yes"/>
			<point x="593" y="-14"/>
			<point x="714" y="132"/>
			<point x="714" y="345" type="curve" smooth="yes"/>
			<point x="714" y="559"/>
			<point x="593" y="704"/>
		</contour>
		<contour>
			<point x="382" y="70" type="curve" smooth="yes"/>
			<point x="247" y="70"/>
			<point x="167" y="174"/>
			<point x="167" y="345" type="curve" smooth="yes"/>
			<point x="167" y="517"/>
			<point x="247" y="620"/>
			<point x="382" y="620" type="curve" smooth="yes"/>
			<point x="516" y="620"/>
			<point x="596" y="517"/>
			<point x="596" y="345" type="curve" smooth="yes"/>
			<point x="596" y="174"/>
			<point x="516" y="70"/>
		</contour>
	</outline>
</glyph>
<glyph name="Ocircumflex" format="2">
	<advance width="750"/>
	<unicode hex="00D4"/>
	<note>
		Ocircumflex
	</note>
	<outline>
		<contour>
			<point x="276" y="736" type="line"/>
			<point x="351" y="736" type="line"/>
			<point x="382" y="796" type="line"/>
			<point x="413" y="736" type="line"/>
			<point x="489" y="736" type="line"/>
			<point x="423" y="838" type="line"/>
			<point x="342" y="838" type="line"/>
		</contour>
		<contour>
			<point x="382" y="704" type="curve" smooth="yes"/>
			<point x="170" y="704"/>
			<point x="49" y="559"/>
			<point x="49" y="345" type="curve" smooth="yes"/>
			<point x="49" y="132"/>
			<point x="170" y="-14"/>
			<point x="382" y="-14" type="curve" smooth="yes"/>
			<point x="593" y="-14"/>
			<point x="714" y="132"/>
			<point x="714" y="345" type="curve" smooth="yes"/>
			<point x="714" y="559"/>
			<point x="593" y="704"/>
		</contour>
		<contour>
			<point x="382" y="70" type="curve" smooth="yes"/>
			<point x="247" y="70"/>
			<point x="167" y="174"/>
			<point x="167" y="345" type="curve" smooth="yes"/>
			<point x="167" y="517"/>
			<point x="247" y="620"/>
			<point x="382" y="620" type="curve" smooth="yes"/>
			<point x="516" y="620"/>
			<point x="596" y="517"/>
			<point x="596" y="345" type="curve" smooth="yes"/>
			<point x="596" y="174"/>
			<point x="516" y="70"/>
		</contour>
	</outline>
</glyph>
<glyph name="Odieresis" format="2">
	<advance width="750"/>
	<unicode hex="00D6"/>
	<note>
		Odieresis
	</note>
	<outline>
		<contour>
			<point x="382" y="704" type="curve" smooth="yes"/>
			<point x="170" y="704"/>
			<point x="49" y="559"/>
			<point x="49" y="345" type="curve" smooth="yes"/>
			<point x="49" y="132"/>
			<point x="170" y="-14"/>
			<point x="382" y="-14" type="curve" smooth="yes"/>
			<point x="593" y="-14"/>
			<point x="714" y="132"/>
			<point x="714" y="345" type="curve" smooth="yes"/>
			<point x="714" y="559"/>
			<point x="593" y="704"/>
		</contour>
		<contour>
			<point x="382" y="70" type="curve" smooth="yes"/>
			<point x="247" y="70"/>
			<point x="167" y="174"/>
			<point x="167" y="345" type="curve" smooth="yes"/>
			<point x="167" y="517"/>
			<point x="247" y="620"/>
			<point x="382" y="620" type="curve" smooth="yes"/>
			<point x="516" y="620"/>
			<point x="596" y="517"/>
			<point x="596" y="345" type="curve" smooth="yes"/>
			<point x="596" y="174"/>
			<point x="516" y="70"/>
		</contour>
		<contour>
			<point x="254" y="839" type="line"/>
			<point x="254" y="733" type="line"/>
			<point x="362" y="733" type="line"/>
			<point x="362" y="839" type="line"/>
		</contour>
		<contour>
			<point x="409" y="839" type="line"/>
			<point x="409" y="733" type="line"/>
			<point x="517" y="733" type="line"/>
			<point x="517" y="839" type="line"/>
		</contour>
	</outline>
</glyph>
<glyph name="Yacute" format="2">
	<advance width="602"/>
	<unicode hex="00DD"/>
	<note>
		Yacute
	</note>
	<outline>
		<contour>
			<point x="278" y="736" type="line"/>
			<point x="344" y="736" type="line"/>
			<point x="441" y="838" type="line"/>
			<point x="341" y="838" type="line"/>
		</contour>
		<contour>
			<point x="371" y="0" type="line"/>
			<point x="371" y="270" type="line"/>
			<point x="615" y="690" type="line"/>
			<point x="493" y="690" type="line"/>
			<point x="321" y="371" type="line"/>
			<point x="143" y="690" type="line"/>
			<point x="18" y="690" type="line"/>
			<point x="262" y="270" type="line"/>
			<point x="262" y="0" type="line"/>
		</contour>
	</outline>
</glyph>
<glyph name="adieresis" format="2">
	<advance width="545"/>
	<unicode hex="00E4"/>
	<note>
		adieresis
	</note>
	<outline>
		<contour>
			<point x="365" y="77" type="line"/>
			<point x="375" y="0" type="line"/>
			<point x="484" y="0" type="line"/>
			<point x="476" y="59"/>
			<point x="474" y="95"/>
			<point x="474" y="135" type="curve" smooth="yes"/>
			<point x="474" y="322" type="line" smooth="yes"/>
			<point x="474" y="347"/>
			<point x="473" y="375"/>
			<point x="471" y="397" type="curve" smooth="yes"/>
			<point x="462" y="487"/>
			<point x="408" y="545"/>
			<point x="271" y="545" type="curve" smooth="yes"/>
			<point x="150" y="545"/>
			<point x="63" y="479"/>
			<point x="56" y="363" type="curve"/>
			<point x="166" y="363" type="line"/>
			<point x="172" y="429"/>
			<point x="205" y="465"/>
			<point x="269" y="465" type="curve" smooth="yes"/>
			<point x="332" y="465"/>
			<point x="359" y="435"/>
			<point x="362" y="392" type="curve" smooth="yes"/>
			<point x="364" y="372"/>
			<point x="364" y="354"/>
			<point x="364" y="334" type="curve" smooth="yes"/>
			<point x="364" y="321" type="line"/>
			<point x="330" y="321" type="line" smooth="yes"/>
			<point x="129" y="321"/>
			<point x="35" y="257"/>
			<point x="35" y="139" type="curve" smooth="yes"/>
			<point x="35" y="40"/>
			<point x="112" y="-14"/>
			<point x="206" y="-14" type="curve" smooth="yes"/>
			<point x="256" y="-14"/>
			<point x="302" y="-5"/>
			<point x="338" y="20" type="curve"/>
		</contour>
		<contour>
			<point x="246" y="66" type="curve" smooth="yes"/>
			<point x="188" y="66"/>
			<point x="151" y="92"/>
			<point x="151" y="148" type="curve" smooth="yes"/>
			<point x="151" y="229"/>
			<point x="235" y="258"/>
			<point x="364" y="248" type="curve"/>
			<point x="364" y="199" type="line" smooth="yes"/>
			<point x="364" y="113"/>
			<point x="315" y="66"/>
		</contour>
		<contour>
			<point x="139" y="689" type="line"/>
			<point x="139" y="583" type="line"/>
			<point x="247" y="583" type="line"/>
			<point x="247" y="689" type="line"/>
		</contour>
		<contour>
			<point x="294" y="689" type="line"/>
			<point x="294" y="583" type="line"/>
			<point x="402" y="583" type="line"/>
			<point x="402" y="689" type="line"/>
		</contour>
	</outline>
</glyph>
<glyph name="edieresis" format="2">
	<advance width="562"/>
	<unicode hex="00EB"/>
	<note>
		edieresis
	</note>
	<outline>
		<contour>
			<point x="526" y="279" type="curve" smooth="yes"/>
			<point x="526" y="429"/>
			<point x="443" y="545"/>
			<point x="289" y="545" type="curve" smooth="yes"/>
			<point x="136" y="545"/>
			<point x="29" y="432"/>
			<point x="29" y="264" type="curve" smooth="yes"/>
			<point x="29" y="76"/>
			<point x="136" y="-14"/>
			<point x="278" y="-14" type="curve" smooth="yes"/>
			<point x="394" y="-14"/>
			<point x="495" y="46"/>
			<point x="518" y="172" type="curve"/>
			<point x="407" y="172" type="line"/>
			<point x="396" y="105"/>
			<point x="346" y="66"/>
			<point x="282" y="66" type="curve" smooth="yes"/>
			<point x="210" y="66"/>
			<point x="152" y="108"/>
			<point x="143" y="235" type="curve"/>
			<point x="524" y="235" type="line"/>
			<point x="526" y="254"/>
			<point x="526" y="269"/>
		</contour>
		<contour>
			<point x="285" y="465" type="curve" smooth="yes"/>
			<point x="362" y="465"/>
			<point x="405" y="410"/>
			<point x="413" y="312" type="curve"/>
			<point x="144" y="312" type="line"/>
			<point x="156" y="414"/>
			<point x="210" y="465"/>
		</contour>
		<contour>
			<point x="155" y="686" type="line"/>
			<point x="155" y="580" type="line"/>
			<point x="263" y="580" type="line"/>
			<point x="263" y="686" type="line"/>
		</contour>
		<contour>
			<point x="310" y="686" type="line"/>
			<point x="310" y="580" type="line"/>
			<point x="418" y="580" type="line"/>
			<point x="418" y="686" type="line"/>
		</contour>
	</outline>
</glyph>
<glyph name="icircumflex" format="2">
	<advance width="251"/>
	<unicode hex="00EE"/>
	<note>
		icircumflex
	</note>
	<outline>
		<contour>
			<point x="18" y="578" type="line"/>
			<point x="91" y="578" type="line"/>
			<point x="124" y="643" type="line"/>
			<point x="157" y="578" type="line"/>
			<point x="231" y="578" type="line"/>
			<point x="165" y="692" type="line"/>
			<point x="84" y="692" type="line"/>
		</contour>
		<contour>
			<point x="179" y="531" type="line"/>
			<point x="69" y="531" type="line"/>
			<point x="69" y="0" type="line"/>
			<point x="179" y="0" type="line"/>
		</contour>
	</outline>
</glyph>
<glyph name="idieresis" format="2">
	<advance width="251"/>
	<unicode hex="00EF"/>
	<note>
		idieresis
	</note>
	<outline>
		<contour>
			<point x="69" y="0" type="line"/>
			<point x="179" y="0" type="line"/>
			<point x="179" y="531" type="line"/>
			<point x="69" y="531" type="line"/>
		</contour>
		<contour>
			<point x="-6" y="688" type="line"/>
			<point x="-6" y="582" type="line"/>
			<point x="102" y="582" type="line"/>
			<point x="102" y="688" type="line"/>
		</contour>
		<contour>
			<point x="149" y="688" type="line"/>
			<point x="149" y="582" type="line"/>
			<point x="257" y="582" type="line"/>
			<point x="257" y="688" type="line"/>
		</contour>
	</outline>
</glyph>
<glyph name="divide" format="2">
	<advance width="601"/>
	<unicode hex="00F7"/>
	<note>
		divide
	</note>
	<outline>
		<contour>
			<point x="302" y="546" type="curve" smooth="yes"/>
			<point x="267" y="546"/>
			<point x="240" y="519"/>
			<point x="240" y="484" type="curve" smooth="yes"/>
			<point x="240" y="449"/>
			<point x="267" y="422"/>
			<point x="302" y="422" type="curve" smooth="yes"/>
			<point x="337" y="422"/>
			<point x="364" y="449"/>
			<point x="364" y="484" type="curve" smooth="yes"/>
			<point x="364" y="519"/>
			<point x="337" y="546"/>
		</contour>
		<contour>
			<point x="82" y="286" type="line"/>
			<point x="519" y="286" type="line"/>
			<point x="519" y="352" type="line"/>
			<point x="82" y="352" type="line"/>
		</contour>
		<contour>
			<point x="302" y="212" type="curve" smooth="yes"/>
			<point x="267" y="212"/>
			<point x="240" y="185"/>
			<point x="240" y="150" type="curve" smooth="yes"/>
			<point x="240" y="115"/>
			<point x="267" y="88"/>
			<point x="302" y="88" type="curve" smooth="yes"/>
			<point x="337" y="88"/>
			<point x="364" y="115"/>
			<point x="364" y="150" type="curve" smooth="yes"/>
			<point x="364" y="185"/>
			<point x="337" y="212"/>
		</contour>
	</outline>
</glyph>
<glyph name="oslash" format="2">
	<advance width="625"/>
	<unicode hex="00F8"/>
	<note>
		oslash
	</note>
	<outline>
		<contour>
			<point x="529" y="434" type="curve"/>
			<point x="600" y="505" type="line"/>
			<point x="552" y="553" type="line"/>
			<point x="484" y="485" type="line"/>
			<point x="441" y="523"/>
			<point x="381" y="545"/>
			<point x="305" y="545" type="curve" smooth="yes"/>
			<point x="127" y="545"/>
			<point x="36" y="421"/>
			<point x="36" y="266" type="curve" smooth="yes"/>
			<point x="36" y="199"/>
			<point x="53" y="137"/>
			<point x="87" y="88" type="curve"/>
			<point x="25" y="26" type="line"/>
			<point x="73" y="-22" type="line"/>
			<point x="134" y="39" type="line"/>
			<point x="177" y="6"/>
			<point x="234" y="-14"/>
			<point x="305" y="-14" type="curve" smooth="yes"/>
			<point x="484" y="-14"/>
			<point x="574" y="111"/>
			<point x="574" y="266" type="curve" smooth="yes"/>
			<point x="574" y="329"/>
			<point x="559" y="387"/>
		</contour>
		<contour>
			<point x="153" y="266" type="curve" smooth="yes"/>
			<point x="153" y="386"/>
			<point x="209" y="465"/>
			<point x="305" y="465" type="curve" smooth="yes"/>
			<point x="351" y="465"/>
			<point x="388" y="447"/>
			<point x="414" y="415" type="curve"/>
			<point x="168" y="169" type="line"/>
			<point x="158" y="197"/>
			<point x="153" y="230"/>
		</contour>
		<contour>
			<point x="458" y="266" type="curve" smooth="yes"/>
			<point x="458" y="146"/>
			<point x="402" y="66"/>
			<point x="305" y="66" type="curve" smooth="yes"/>
			<point x="263" y="66"/>
			<point x="228" y="81"/>
			<point x="203" y="108" type="curve"/>
			<point x="446" y="352" type="line"/>
			<point x="454" y="326"/>
			<point x="458" y="298"/>
		</contour>
	</outline>
</glyph>
<glyph name="ydieresis" format="2">
	<advance width="537"/>
	<unicode hex="00FF"/>
	<note>
		ydieresis
	</note>
	<outline>
		<contour>
			<point x="318" y="-34" type="curve" smooth="yes"/>
			<point x="534" y="531" type="line"/>
			<point x="415" y="531" type="line"/>
			<point x="270" y="82" type="line"/>
			<point x="124" y="531" type="line"/>
			<point x="1" y="531" type="line"/>
			<point x="215" y="-25" type="line"/>
			<point x="207" y="-44" type="line" smooth="yes"/>
			<point x="181" y="-105"/>
			<point x="149" y="-127"/>
			<point x="99" y="-127" type="curve" smooth="yes"/>
			<point x="88" y="-127"/>
			<point x="77" y="-127"/>
			<point x="64" y="-126" type="curve"/>
			<point x="64" y="-207" type="line"/>
			<point x="80" y="-210"/>
			<point x="94" y="-210"/>
			<point x="116" y="-210" type="curve" smooth="yes"/>
			<point x="212" y="-210"/>
			<point x="270" y="-160"/>
		</contour>
		<contour>
			<point x="137" y="685" type="line"/>
			<point x="137" y="579" type="line"/>
			<point x="245" y="579" type="line"/>
			<point x="245" y="685" type="line"/>
		</contour>
		<contour>
			<point x="292" y="685" type="line"/>
			<point x="292" y="579" type="line"/>
			<point x="400" y="579" type="line"/>
			<point x="400" y="685" type="line"/>
		</contour>
	</outline>
</glyph>
<glyph name="aogonek" format="2">
	<advance width="545"/>
	<unicode hex="0105"/>
	<note>
		aogonek
	</note>
	<outline>
		<contour>
			<point x="371" y="-107" type="curve" smooth="yes"/>
			<point x="371" y="-50"/>
			<point x="409" y="-7"/>
			<point x="453" y="0" type="curve"/>
			<point x="484" y="0" type="line"/>
			<point x="476" y="59"/>
			<point x="474" y="95"/>
			<point x="474" y="135" type="curve" smooth="yes"/>
			<point x="474" y="322" type="line" smooth="yes"/>
			<point x="474" y="347"/>
			<point x="473" y="375"/>
			<point x="471" y="397" type="curve" smooth="yes"/>
			<point x="462" y="487"/>
			<point x="408" y="545"/>
			<point x="271" y="545" type="curve" smooth="yes"/>
			<point x="150" y="545"/>
			<point x="63" y="479"/>
			<point x="56" y="363" type="curve"/>
			<point x="166" y="363" type="line"/>
			<point x="172" y="429"/>
			<point x="205" y="465"/>
			<point x="269" y="465" type="curve" smooth="yes"/>
			<point x="332" y="465"/>
			<point x="359" y="435"/>
			<point x="362" y="392" type="curve" smooth="yes"/>
			<point x="364" y="372"/>
			<point x="364" y="354"/>
			<point x="364" y="334" type="curve" smooth="yes"/>
			<point x="364" y="321" type="line"/>
			<point x="330" y="321" type="line" smooth="yes"/>
			<point x="129" y="321"/>
			<point x="35" y="257"/>
			<point x="35" y="139" type="curve" smooth="yes"/>
			<point x="35" y="40"/>
			<point x="112" y="-14"/>
			<point x="206" y="-14" type="curve" smooth="yes"/>
			<point x="256" y="-14"/>
			<point x="302" y="-5"/>
			<point x="338" y="20" type="curve"/>
			<point x="365" y="77" type="line"/>
			<point x="374" y="9" type="line"/>
			<point x="319" y="-14"/>
			<point x="269" y="-67"/>
			<point x="269" y="-138" type="curve" smooth="yes"/>
			<point x="269" y="-201"/>
			<point x="309" y="-223"/>
			<point x="367" y="-223" type="curve" smooth="yes"/>
			<point x="408" y="-223"/>
			<point x="442" y="-212"/>
			<point x="468" y="-192" type="curve"/>
			<point x="468" y="-137" type="line"/>
			<point x="450" y="-151"/>
			<point x="433" y="-157"/>
			<point x="415" y="-157" type="curve" smooth="yes"/>
			<point x="388" y="-157"/>
			<point x="371" y="-144"/>
		</contour>
		<contour>
			<point x="246" y="66" type="curve" smooth="yes"/>
			<point x="188" y="66"/>
			<point x="151" y="92"/>
			<point x="151" y="148" type="curve" smooth="yes"/>
			<point x="151" y="229"/>
			<point x="235" y="258"/>
			<point x="364" y="248" type="curve"/>
			<point x="364" y="199" type="line" smooth="yes"/>
			<point x="364" y="113"/>
			<point x="315" y="66"/>
		</contour>
	</outline>
</glyph>
<glyph name="Dcaron" format="2">
	<advance width="719"/>
	<unicode hex="010E"/>
	<note>
		Dcaron
	</note>
	<outline>
		<contour>
			<point x="268" y="838" type="line"/>
			<point x="334" y="736" type="line"/>
			<point x="415" y="736" type="line"/>
			<point x="481" y="838" type="line"/>
			<point x="406" y="838" type="line"/>
			<point x="375" y="777" type="line"/>
			<point x="344" y="838" type="line"/>
		</contour>
		<contour>
			<point x="406" y="686" type="curve" smooth="yes"/>
			<point x="371" y="690"/>
			<point x="355" y="690"/>
			<point x="318" y="690" type="curve" smooth="yes"/>
			<point x="95" y="690" type="line"/>
			<point x="95" y="0" type="line"/>
			<point x="314" y="0" type="line" smooth="yes"/>
			<point x="351" y="0"/>
			<point x="367" y="0"/>
			<point x="402" y="4" type="curve" smooth="yes"/>
			<point x="562" y="24"/>
			<point x="684" y="147"/>
			<point x="684" y="353" type="curve" smooth="yes"/>
			<point x="684" y="562"/>
			<point x="566" y="667"/>
		</contour>
		<contour>
			<point x="383" y="92" type="curve" smooth="yes"/>
			<point x="361" y="88"/>
			<point x="338" y="88"/>
			<point x="304" y="88" type="curve" smooth="yes"/>
			<point x="205" y="88" type="line"/>
			<point x="205" y="603" type="line"/>
			<point x="308" y="603" type="line" smooth="yes"/>
			<point x="341" y="603"/>
			<point x="365" y="602"/>
			<point x="387" y="598" type="curve" smooth="yes"/>
			<point x="497" y="582"/>
			<point x="566" y="498"/>
			<point x="566" y="353" type="curve" smooth="yes"/>
			<point x="566" y="200"/>
			<point x="494" y="108"/>
		</contour>
	</outline>
</glyph>
<glyph name="dcroat" format="2">
	<advance width="632"/>
	<unicode hex="0111"/>
	<note>
		dcroat
	</note>
	<outline>
		<contour>
			<point x="557" y="590" type="line"/>
			<point x="600" y="590" type="line"/>
			<point x="600" y="656" type="line"/>
			<point x="557" y="656" type="line"/>
			<point x="557" y="735" type="line"/>
			<point x="447" y="735" type="line"/>
			<point x="447" y="656" type="line"/>
			<point x="330" y="656" type="line"/>
			<point x="330" y="590" type="line"/>
			<point x="447" y="590" type="line"/>
			<point x="447" y="459" type="line"/>
			<point x="412" y="512" type="line"/>
			<point x="385" y="533"/>
			<point x="330" y="545"/>
			<point x="286" y="545" type="curve" smooth="yes"/>
			<point x="149" y="545"/>
			<point x="29" y="451"/>
			<point x="29" y="257" type="curve" smooth="yes"/>
			<point x="29" y="101"/>
			<point x="116" y="-14"/>
			<point x="268" y="-14" type="curve" smooth="yes"/>
			<point x="322" y="-14"/>
			<point x="377" y="2"/>
			<point x="407" y="26" type="curve"/>
			<point x="447" y="84" type="line"/>
			<point x="447" y="0" type="line"/>
			<point x="557" y="0" type="line"/>
		</contour>
		<contour>
			<point x="293" y="66" type="curve" smooth="yes"/>
			<point x="198" y="66"/>
			<point x="145" y="151"/>
			<point x="145" y="266" type="curve" smooth="yes"/>
			<point x="145" y="398"/>
			<point x="211" y="465"/>
			<point x="298" y="465" type="curve" smooth="yes"/>
			<point x="369" y="465"/>
			<point x="447" y="417"/>
			<point x="447" y="288" type="curve" smooth="yes"/>
			<point x="447" y="260" type="line" smooth="yes"/>
			<point x="447" y="118"/>
			<point x="376" y="66"/>
		</contour>
	</outline>
</glyph>
<glyph name="ecaron" format="2">
	<advance width="562"/>
	<unicode hex="011B"/>
	<note>
		ecaron
	</note>
	<outline>
		<contour>
			<point x="177" y="692" type="line"/>
			<point x="243" y="578" type="line"/>
			<point x="324" y="578" type="line"/>
			<point x="390" y="692" type="line"/>
			<point x="317" y="692" type="line"/>
			<point x="284" y="626" type="line"/>
			<point x="251" y="692" type="line"/>
		</contour>
		<contour>
			<point x="526" y="279" type="curve" smooth="yes"/>
			<point x="526" y="429"/>
			<point x="443" y="545"/>
			<point x="289" y="545" type="curve" smooth="yes"/>
			<point x="136" y="545"/>
			<point x="29" y="432"/>
			<point x="29" y="264" type="curve" smooth="yes"/>
			<point x="29" y="76"/>
			<point x="136" y="-14"/>
			<point x="278" y="-14" type="curve" smooth="yes"/>
			<point x="394" y="-14"/>
			<point x="495" y="46"/>
			<point x="518" y="172" type="curve"/>
			<point x="407" y="172" type="line"/>
			<point x="396" y="105"/>
			<point x="346" y="66"/>
			<point x="282" y="66" type="curve" smooth="yes"/>
			<point x="210" y="66"/>
			<point x="152" y="108"/>
			<point x="143" y="235" type="curve"/>
			<point x="524" y="235" type="line"/>
			<point x="526" y="254"/>
			<point x="526" y="269"/>
		</contour>
		<contour>
			<point x="285" y="465" type="curve" smooth="yes"/>
			<point x="362" y="465"/>
			<point x="405" y="410"/>
			<point x="413" y="312" type="curve"/>
			<point x="144" y="312" type="line"/>
			<point x="156" y="414"/>
			<point x="210" y="465"/>
		</contour>
	</outline>
</glyph>
<glyph name="Gbreve" format="2">
	<advance width="722"/>
	<unicode hex="011E"/>
	<note>
		Gbreve
	</note>
	<outline>
		<contour>
			<point x="369" y="724" type="curve" smooth="yes"/>
			<point x="440" y="724"/>
			<point x="479" y="761"/>
			<point x="479" y="838" type="curve"/>
			<point x="417" y="838" type="line"/>
			<point x="416" y="803"/>
			<point x="398" y="786"/>
			<point x="369" y="786" type="curve" smooth="yes"/>
			<point x="340" y="786"/>
			<point x="322" y="803"/>
			<point x="321" y="838" type="curve"/>
			<point x="259" y="838" type="line"/>
			<point x="259" y="761"/>
			<point x="297" y="724"/>
		</contour>
		<contour>
			<point x="663" y="342" type="line"/>
			<point x="402" y="342" type="line"/>
			<point x="402" y="254" type="line"/>
			<point x="556" y="254" type="line"/>
			<point x="550" y="143"/>
			<point x="476" y="70"/>
			<point x="374" y="70" type="curve" smooth="yes"/>
			<point x="251" y="70"/>
			<point x="168" y="176"/>
			<point x="168" y="347" type="curve" smooth="yes"/>
			<point x="168" y="510"/>
			<point x="251" y="620"/>
			<point x="379" y="620" type="curve" smooth="yes"/>
			<point x="484" y="620"/>
			<point x="541" y="561"/>
			<point x="559" y="468" type="curve" smooth="yes"/>
			<point x="561" y="458" type="line"/>
			<point x="671" y="458" type="line"/>
			<point x="670" y="468" type="line" smooth="yes"/>
			<point x="656" y="604"/>
			<point x="562" y="704"/>
			<point x="381" y="704" type="curve" smooth="yes"/>
			<point x="187" y="704"/>
			<point x="49" y="559"/>
			<point x="49" y="342" type="curve" smooth="yes"/>
			<point x="49" y="132"/>
			<point x="165" y="-14"/>
			<point x="362" y="-14" type="curve" smooth="yes"/>
			<point x="439" y="-14"/>
			<point x="497" y="8"/>
			<point x="536" y="50" type="curve"/>
			<point x="567" y="117" type="line"/>
			<point x="571" y="0" type="line"/>
			<point x="663" y="0" type="line"/>
		</contour>
	</outline>
</glyph>
<glyph name="Idotaccent" format="2">
	<advance width="304"/>
	<unicode hex="0130"/>
	<outline>
		<contour>
			<point x="95" y="0" type="line"/>
			<point x="205" y="0" type="line"/>
			<point x="205" y="690" type="line"/>
			<point x="95" y="690" type="line"/>
		</contour>
		<contour>
			<point x="152" y="734" type="curve" smooth="yes"/>
			<point x="185" y="734"/>
			<point x="210" y="758"/>
			<point x="210" y="791" type="curve" smooth="yes"/>
			<point x="210" y="823"/>
			<point x="185" y="847"/>
			<point x="152" y="847" type="curve" smooth="yes"/>
			<point x="119" y="847"/>
			<point x="94" y="823"/>
			<point x="94" y="791" type="curve" smooth="yes"/>
			<point x="94" y="758"/>
			<point x="119" y="734"/>
		</contour>
	</outline>
</glyph>
<glyph name="Lacute" format="2">
	<advance width="588"/>
	<unicode hex="0139"/>
	<note>
		Lacute
	</note>
	<outline>
		<contour>
			<point x="112" y="736" type="line"/>
			<point x="178" y="736" type="line"/>
			<point x="275" y="838" type="line"/>
			<point x="175" y="838" type="line"/>
		</contour>
		<contour>
			<point x="572" y="0" type="line"/>
			<point x="572" y="91" type="line"/>
			<point x="205" y="91" type="line"/>
			<point x="205" y="690" type="line"/>
			<point x="95" y="690" type="line"/>
			<point x="95" y="0" type="line"/>
		</contour>
	</outline>
</glyph>
<glyph name="ldot" format="2">
	<advance width="383"/>
	<unicode hex="0140"/>
	<note>
		ldot
	</note>
	<outline>
		<contour>
			<point x="175" y="162" type="curve" smooth="yes"/>
			<point x="175" y="735" type="line"/>
			<point x="65" y="735" type="line"/>
			<point x="65" y="159" type="line" smooth="yes"/>
			<point x="65" y="127"/>
			<point x="65" y="103"/>
			<point x="66" y="83" type="curve" smooth="yes"/>
			<point x="70" y="15"/>
			<point x="109" y="-6"/>
			<point x="167" y="-6" type="curve" smooth="yes"/>
			<point x="192" y="-6"/>
			<point x="217" y="-4"/>
			<point x="239" y="-1" type="curve"/>
			<point x="239" y="76" type="line"/>
			<point x="192" y="72"/>
			<point x="178" y="82"/>
			<point x="176" y="112" type="curve" smooth="yes"/>
			<point x="175" y="128"/>
			<point x="175" y="144"/>
		</contour>
		<contour>
			<point x="306" y="463" type="curve" smooth="yes"/>
			<point x="269" y="463"/>
			<point x="241" y="436"/>
			<point x="241" y="400" type="curve" smooth="yes"/>
			<point x="241" y="364"/>
			<point x="269" y="337"/>
			<point x="306" y="337" type="curve" smooth="yes"/>
			<point x="343" y="337"/>
			<point x="370" y="364"/>
			<point x="370" y="400" type="curve" smooth="yes"/>
			<point x="370" y="436"/>
			<point x="343" y="463"/>
		</contour>
	</outline>
</glyph>
<glyph name="lslash" format="2">
	<advance width="297"/>
	<unicode hex="0142"/>
	<note>
		lslash
	</note>
	<outline>
		<contour>
			<point x="202" y="112" type="curve" smooth="yes"/>
			<point x="200" y="128"/>
			<point x="200" y="144"/>
			<point x="200" y="162" type="curve" smooth="yes"/>
			<point x="200" y="315" type="line"/>
			<point x="264" y="354" type="line"/>
			<point x="264" y="434" type="line"/>
			<point x="200" y="395" type="line"/>
			<point x="200" y="735" type="line"/>
			<point x="91" y="735" type="line"/>
			<point x="91" y="330" type="line"/>
			<point x="27" y="291" type="line"/>
			<point x="27" y="211" type="line"/>
			<point x="91" y="250" type="line"/>
			<point x="91" y="159" type="line" smooth="yes"/>
			<point x="91" y="127"/>
			<point x="91" y="103"/>
			<point x="92" y="83" type="curve" smooth="yes"/>
			<point x="95" y="15"/>
			<point x="135" y="-6"/>
			<point x="193" y="-6" type="curve" smooth="yes"/>
			<point x="218" y="-6"/>
			<point x="243" y="-4"/>
			<point x="265" y="-1" type="curve"/>
			<point x="265" y="76" type="line"/>
			<point x="218" y="72"/>
			<point x="204" y="82"/>
		</contour>
	</outline>
</glyph>
<glyph name="Nacute" format="2">
	<advance width="737"/>
	<unicode hex="0143"/>
	<note>
		Nacute
	</note>
	<outline>
		<contour>
			<point x="341" y="736" type="line"/>
			<point x="407" y="736" type="line"/>
			<point x="504" y="838" type="line"/>
			<point x="404" y="838" type="line"/>
		</contour>
		<contour>
			<point x="507" y="0" type="line"/>
			<point x="665" y="0" type="line"/>
			<point x="664" y="690" type="line"/>
			<point x="556" y="690" type="line"/>
			<point x="556" y="358" type="line" smooth="yes"/>
			<point x="556" y="287"/>
			<point x="557" y="195"/>
			<point x="559" y="117" type="curve"/>
			<point x="250" y="690" type="line"/>
			<point x="95" y="690" type="line"/>
			<point x="95" y="0" type="line"/>
			<point x="205" y="0" type="line"/>
			<point x="205" y="330" type="line" smooth="yes"/>
			<point x="205" y="401"/>
			<point x="204" y="490"/>
			<point x="201" y="569" type="curve"/>
		</contour>
	</outline>
</glyph>
<glyph name="uni0145" format="2">
	<advance width="737"/>
	<unicode hex="0145"/>
	<note>
		Ncommaaccent
	</note>
	<outline>
		<contour>
			<point x="507" y="0" type="line"/>
			<point x="665" y="0" type="line"/>
			<point x="664" y="690" type="line"/>
			<point x="556" y="690" type="line"/>
			<point x="556" y="358" type="line" smooth="yes"/>
			<point x="556" y="287"/>
			<point x="557" y="195"/>
			<point x="559" y="117" type="curve"/>
			<point x="250" y="690" type="line"/>
			<point x="95" y="690" type="line"/>
			<point x="95" y="0" type="line"/>
			<point x="205" y="0" type="line"/>
			<point x="205" y="330" type="line" smooth="yes"/>
			<point x="205" y="401"/>
			<point x="204" y="490"/>
			<point x="201" y="569" type="curve"/>
		</contour>
		<contour>
			<point x="360" y="-200" type="line"/>
			<point x="431" y="-59" type="line"/>
			<point x="431" y="-48" type="line"/>
			<point x="350" y="-48" type="line"/>
			<point x="290" y="-200" type="line"/>
		</contour>
	</outline>
</glyph>
<glyph name="uni0146" format="2">
	<advance width="606"/>
	<unicode hex="0146"/>
	<note>
		ncommaaccent
	</note>
	<outline>
		<contour>
			<point x="538" y="393" type="curve" smooth="yes"/>
			<point x="528" y="486"/>
			<point x="463" y="545"/>
			<point x="349" y="545" type="curve" smooth="yes"/>
			<point x="296" y="545"/>
			<point x="257" y="536"/>
			<point x="215" y="504" type="curve"/>
			<point x="179" y="443" type="line"/>
			<point x="179" y="531" type="line"/>
			<point x="69" y="531" type="line"/>
			<point x="69" y="0" type="line"/>
			<point x="179" y="0" type="line"/>
			<point x="179" y="238" type="line" smooth="yes"/>
			<point x="179" y="404"/>
			<point x="241" y="464"/>
			<point x="317" y="464" type="curve" smooth="yes"/>
			<point x="392" y="464"/>
			<point x="424" y="422"/>
			<point x="429" y="362" type="curve" smooth="yes"/>
			<point x="431" y="335"/>
			<point x="431" y="312"/>
			<point x="431" y="287" type="curve" smooth="yes"/>
			<point x="431" y="0" type="line"/>
			<point x="541" y="0" type="line"/>
			<point x="541" y="299" type="line" smooth="yes"/>
			<point x="541" y="342"/>
			<point x="540" y="366"/>
		</contour>
		<contour>
			<point x="269" y="-48" type="line"/>
			<point x="209" y="-200" type="line"/>
			<point x="279" y="-200" type="line"/>
			<point x="350" y="-59" type="line"/>
			<point x="350" y="-48" type="line"/>
		</contour>
	</outline>
</glyph>
<glyph name="Ncaron" format="2">
	<advance width="737"/>
	<unicode hex="0147"/>
	<note>
		Ncaron
	</note>
	<outline>
		<contour>
			<point x="273" y="838" type="line"/>
			<point x="339" y="736" type="line"/>
			<point x="420" y="736" type="line"/>
			<point x="486" y="838" type="line"/>
			<point x="411" y="838" type="line"/>
			<point x="380" y="777" type="line"/>
			<point x="349" y="838" type="line"/>
		</contour>
		<contour>
			<point x="201" y="569" type="curve"/>
			<point x="507" y="0" type="line"/>
			<point x="665" y="0" type="line"/>
			<point x="664" y="690" type="line"/>
			<point x="556" y="690" type="line"/>
			<point x="556" y="358" type="line" smooth="yes"/>
			<point x="556" y="287"/>
			<point x="557" y="195"/>
			<point x="559" y="117" type="curve"/>
			<point x="250" y="690" type="line"/>
			<point x="95" y="690" type="line"/>
			<point x="95" y="0" type="line"/>
			<point x="205" y="0" type="line"/>
			<point x="205" y="330" type="line" smooth="yes"/>
			<point x="205" y="401"/>
			<point x="204" y="490"/>
		</contour>
	</outline>
</glyph>
<glyph name="Eng" format="2">
	<advance width="737"/>
	<unicode hex="014A"/>
	<note>
		Eng
	</note>
	<outline>
		<contour>
			<point x="665" y="-65" type="curve" smooth="yes"/>
			<point x="665" y="690" type="line"/>
			<point x="556" y="690" type="line"/>
			<point x="556" y="383" type="line" smooth="yes"/>
			<point x="556" y="312"/>
			<point x="557" y="235"/>
			<point x="559" y="157" type="curve"/>
			<point x="250" y="690" type="line"/>
			<point x="95" y="690" type="line"/>
			<point x="95" y="0" type="line"/>
			<point x="205" y="0" type="line"/>
			<point x="205" y="330" type="line" smooth="yes"/>
			<point x="205" y="401"/>
			<point x="204" y="484"/>
			<point x="201" y="563" type="curve"/>
			<point x="555" y="-28" type="line"/>
			<point x="555" y="-71" type="line" smooth="yes"/>
			<point x="555" y="-113"/>
			<point x="538" y="-136"/>
			<point x="483" y="-138" type="curve"/>
			<point x="483" y="-223" type="line"/>
			<point x="593" y="-223"/>
			<point x="655" y="-194"/>
			<point x="664" y="-106" type="curve" smooth="yes"/>
			<point x="665" y="-92"/>
			<point x="665" y="-83"/>
		</contour>
	</outline>
</glyph>
<glyph name="eng" format="2">
	<advance width="606"/>
	<unicode hex="014B"/>
	<note>
		eng
	</note>
	<outline>
		<contour>
			<point x="538" y="393" type="curve" smooth="yes"/>
			<point x="528" y="486"/>
			<point x="463" y="545"/>
			<point x="349" y="545" type="curve" smooth="yes"/>
			<point x="296" y="545"/>
			<point x="257" y="536"/>
			<point x="215" y="504" type="curve"/>
			<point x="179" y="443" type="line"/>
			<point x="179" y="531" type="line"/>
			<point x="69" y="531" type="line"/>
			<point x="69" y="0" type="line"/>
			<point x="179" y="0" type="line"/>
			<point x="179" y="238" type="line" smooth="yes"/>
			<point x="179" y="404"/>
			<point x="241" y="464"/>
			<point x="317" y="464" type="curve" smooth="yes"/>
			<point x="392" y="464"/>
			<point x="424" y="422"/>
			<point x="429" y="362" type="curve" smooth="yes"/>
			<point x="431" y="335"/>
			<point x="431" y="312"/>
			<point x="431" y="287" type="curve" smooth="yes"/>
			<point x="431" y="-46" type="line" smooth="yes"/>
			<point x="431" y="-56"/>
			<point x="431" y="-66"/>
			<point x="430" y="-74" type="curve" smooth="yes"/>
			<point x="426" y="-114"/>
			<point x="403" y="-125"/>
			<point x="352" y="-125" type="curve"/>
			<point x="352" y="-210" type="line"/>
			<point x="475" y="-210"/>
			<point x="532" y="-183"/>
			<point x="540" y="-90" type="curve" smooth="yes"/>
			<point x="541" y="-76"/>
			<point x="541" y="-67"/>
			<point x="541" y="-49" type="curve" smooth="yes"/>
			<point x="541" y="299" type="line" smooth="yes"/>
			<point x="541" y="342"/>
			<point x="540" y="366"/>
		</contour>
	</outline>
</glyph>
<glyph name="Omacron" format="2">
	<advance width="750"/>
	<unicode hex="014C"/>
	<note>
		Omacron
	</note>
	<outline>
		<contour>
			<point x="255" y="758" type="line"/>
			<point x="510" y="758" type="line"/>
			<point x="510" y="821" type="line"/>
			<point x="255" y="821" type="line"/>
		</contour>
		<contour>
			<point x="382" y="704" type="curve" smooth="yes"/>
			<point x="170" y="704"/>
			<point x="49" y="559"/>
			<point x="49" y="345" type="curve" smooth="yes"/>
			<point x="49" y="132"/>
			<point x="170" y="-14"/>
			<point x="382" y="-14" type="curve" smooth="yes"/>
			<point x="593" y="-14"/>
			<point x="714" y="132"/>
			<point x="714" y="345" type="curve" smooth="yes"/>
			<point x="714" y="559"/>
			<point x="593" y="704"/>
		</contour>
		<contour>
			<point x="382" y="70" type="curve" smooth="yes"/>
			<point x="247" y="70"/>
			<point x="167" y="174"/>
			<point x="167" y="345" type="curve" smooth="yes"/>
			<point x="167" y="517"/>
			<point x="247" y="620"/>
			<point x="382" y="620" type="curve" smooth="yes"/>
			<point x="516" y="620"/>
			<point x="596" y="517"/>
			<point x="596" y="345" type="curve" smooth="yes"/>
			<point x="596" y="174"/>
			<point x="516" y="70"/>
		</contour>
	</outline>
</glyph>
<glyph name="OE" format="2">
	<advance width="1101"/>
	<unicode hex="0152"/>
	<note>
		OE
	</note>
	<outline>
		<contour>
			<point x="1073" y="0" type="line"/>
			<point x="1073" y="88" type="line"/>
			<point x="706" y="88" type="line"/>
			<point x="706" y="302" type="line"/>
			<point x="1035" y="302" type="line"/>
			<point x="1035" y="389" type="line"/>
			<point x="706" y="389" type="line"/>
			<point x="706" y="603" type="line"/>
			<point x="1063" y="603" type="line"/>
			<point x="1063" y="690" type="line"/>
			<point x="596" y="690" type="line"/>
			<point x="596" y="559" type="line"/>
			<point x="568" y="628" type="line"/>
			<point x="516" y="684"/>
			<point x="462" y="704"/>
			<point x="364" y="704" type="curve" smooth="yes"/>
			<point x="170" y="704"/>
			<point x="49" y="551"/>
			<point x="49" y="345" type="curve" smooth="yes"/>
			<point x="49" y="140"/>
			<point x="170" y="-14"/>
			<point x="364" y="-14" type="curve" smooth="yes"/>
			<point x="453" y="-14"/>
			<point x="516" y="6"/>
			<point x="568" y="60" type="curve"/>
			<point x="596" y="129" type="line"/>
			<point x="596" y="0" type="line"/>
		</contour>
		<contour>
			<point x="382" y="70" type="curve" smooth="yes"/>
			<point x="247" y="70"/>
			<point x="167" y="180"/>
			<point x="167" y="345" type="curve" smooth="yes"/>
			<point x="167" y="512"/>
			<point x="247" y="620"/>
			<point x="382" y="620" type="curve" smooth="yes"/>
			<point x="516" y="620"/>
			<point x="596" y="512"/>
			<point x="596" y="345" type="curve" smooth="yes"/>
			<point x="596" y="180"/>
			<point x="516" y="70"/>
		</contour>
	</outline>
</glyph>
<glyph name="uni0157" format="2">
	<advance width="353"/>
	<unicode hex="0157"/>
	<note>
		rcommaaccent
	</note>
	<outline>
		<contour>
			<point x="306" y="544" type="curve" smooth="yes"/>
			<point x="279" y="544"/>
			<point x="248" y="533"/>
			<point x="224" y="514" type="curve"/>
			<point x="179" y="441" type="line"/>
			<point x="179" y="531" type="line"/>
			<point x="69" y="531" type="line"/>
			<point x="69" y="0" type="line"/>
			<point x="179" y="0" type="line"/>
			<point x="179" y="276" type="line" smooth="yes"/>
			<point x="179" y="407"/>
			<point x="242" y="459"/>
			<point x="343" y="452" type="curve"/>
			<point x="343" y="538" type="line"/>
			<point x="332" y="542"/>
			<point x="321" y="544"/>
		</contour>
		<contour>
			<point x="171" y="-48" type="line"/>
			<point x="90" y="-48" type="line"/>
			<point x="30" y="-200" type="line"/>
			<point x="100" y="-200" type="line"/>
			<point x="171" y="-59" type="line"/>
		</contour>
	</outline>
</glyph>
<glyph name="rcaron" format="2">
	<advance width="353"/>
	<unicode hex="0159"/>
	<note>
		rcaron
	</note>
	<outline>
		<contour>
			<point x="85" y="692" type="line"/>
			<point x="151" y="578" type="line"/>
			<point x="232" y="578" type="line"/>
			<point x="298" y="692" type="line"/>
			<point x="225" y="692" type="line"/>
			<point x="192" y="626" type="line"/>
			<point x="159" y="692" type="line"/>
		</contour>
		<contour>
			<point x="306" y="544" type="curve" smooth="yes"/>
			<point x="279" y="544"/>
			<point x="248" y="533"/>
			<point x="224" y="514" type="curve"/>
			<point x="179" y="441" type="line"/>
			<point x="179" y="531" type="line"/>
			<point x="69" y="531" type="line"/>
			<point x="69" y="0" type="line"/>
			<point x="179" y="0" type="line"/>
			<point x="179" y="276" type="line" smooth="yes"/>
			<point x="179" y="407"/>
			<point x="242" y="459"/>
			<point x="343" y="452" type="curve"/>
			<point x="343" y="538" type="line"/>
			<point x="332" y="542"/>
			<point x="321" y="544"/>
		</contour>
	</outline>
</glyph>
<glyph name="Sacute" format="2">
	<advance width="595"/>
	<unicode hex="015A"/>
	<note>
		Sacute
	</note>
	<outline>
		<contour>
			<point x="272" y="736" type="line"/>
			<point x="338" y="736" type="line"/>
			<point x="435" y="838" type="line"/>
			<point x="335" y="838" type="line"/>
		</contour>
		<contour>
			<point x="316" y="704" type="curve" smooth="yes"/>
			<point x="187" y="704"/>
			<point x="78" y="629"/>
			<point x="78" y="507" type="curve" smooth="yes"/>
			<point x="78" y="387"/>
			<point x="165" y="338"/>
			<point x="296" y="307" type="curve" smooth="yes"/>
			<point x="408" y="281"/>
			<point x="450" y="244"/>
			<point x="450" y="172" type="curve" smooth="yes"/>
			<point x="450" y="109"/>
			<point x="393" y="70"/>
			<point x="321" y="70" type="curve" smooth="yes"/>
			<point x="240" y="70"/>
			<point x="180" y="115"/>
			<point x="162" y="200" type="curve"/>
			<point x="48" y="200" type="line"/>
			<point x="62" y="61"/>
			<point x="163" y="-14"/>
			<point x="321" y="-14" type="curve" smooth="yes"/>
			<point x="455" y="-14"/>
			<point x="566" y="62"/>
			<point x="566" y="187" type="curve" smooth="yes"/>
			<point x="566" y="302"/>
			<point x="494" y="367"/>
			<point x="342" y="402" type="curve" smooth="yes"/>
			<point x="235" y="427"/>
			<point x="194" y="458"/>
			<point x="194" y="525" type="curve" smooth="yes"/>
			<point x="194" y="590"/>
			<point x="245" y="620"/>
			<point x="310" y="620" type="curve" smooth="yes"/>
			<point x="390" y="620"/>
			<point x="436" y="573"/>
			<point x="444" y="494" type="curve"/>
			<point x="558" y="494" type="line"/>
			<point x="544" y="614"/>
			<point x="469" y="704"/>
		</contour>
	</outline>
</glyph>
<glyph name="Tcaron" format="2">
	<advance width="617"/>
	<unicode hex="0164"/>
	<note>
		Tcaron
	</note>
	<outline>
		<contour>
			<point x="218" y="838" type="line"/>
			<point x="284" y="736" type="line"/>
			<point x="365" y="736" type="line"/>
			<point x="431" y="838" type="line"/>
			<point x="356" y="838" type="line"/>
			<point x="325" y="777" type="line"/>
			<point x="294" y="838" type="line"/>
		</contour>
		<contour>
			<point x="379" y="603" type="line"/>
			<point x="620" y="603" type="line"/>
			<point x="620" y="690" type="line"/>
			<point x="29" y="690" type="line"/>
			<point x="29" y="603" type="line"/>
			<point x="270" y="603" type="line"/>
			<point x="270" y="0" type="line"/>
			<point x="379" y="0" type="line"/>
		</contour>
	</outline>
</glyph>
<glyph name="Uogonek" format="2">
	<advance width="691"/>
	<unicode hex="0172"/>
	<note>
		Uogonek
	</note>
	<outline>
		<contour>
			<point x="629" y="267" type="curve" smooth="yes"/>
			<point x="629" y="690" type="line"/>
			<point x="520" y="690" type="line"/>
			<point x="520" y="265" type="line" smooth="yes"/>
			<point x="520" y="244"/>
			<point x="520" y="225"/>
			<point x="518" y="209" type="curve" smooth="yes"/>
			<point x="511" y="126"/>
			<point x="458" y="70"/>
			<point x="358" y="70" type="curve" smooth="yes"/>
			<point x="259" y="70"/>
			<point x="206" y="126"/>
			<point x="199" y="209" type="curve" smooth="yes"/>
			<point x="197" y="225"/>
			<point x="197" y="244"/>
			<point x="197" y="265" type="curve" smooth="yes"/>
			<point x="197" y="690" type="line"/>
			<point x="88" y="690" type="line"/>
			<point x="88" y="267" type="line" smooth="yes"/>
			<point x="88" y="242"/>
			<point x="88" y="222"/>
			<point x="90" y="196" type="curve" smooth="yes"/>
			<point x="99" y="83"/>
			<point x="175" y="-10"/>
			<point x="347" y="-14" type="curve"/>
			<point x="310" y="-42"/>
			<point x="282" y="-85"/>
			<point x="282" y="-138" type="curve" smooth="yes"/>
			<point x="282" y="-201"/>
			<point x="322" y="-223"/>
			<point x="380" y="-223" type="curve" smooth="yes"/>
			<point x="421" y="-223"/>
			<point x="455" y="-212"/>
			<point x="481" y="-192" type="curve"/>
			<point x="481" y="-137" type="line"/>
			<point x="463" y="-151"/>
			<point x="446" y="-157"/>
			<point x="428" y="-157" type="curve" smooth="yes"/>
			<point x="401" y="-157"/>
			<point x="384" y="-144"/>
			<point x="384" y="-107" type="curve" smooth="yes"/>
			<point x="384" y="-57"/>
			<point x="413" y="-18"/>
			<point x="450" y="-4" type="curve"/>
			<point x="566" y="23"/>
			<point x="619" y="103"/>
			<point x="627" y="196" type="curve" smooth="yes"/>
			<point x="629" y="222"/>
			<point x="629" y="242"/>
		</contour>
	</outline>
</glyph>
<glyph name="uogonek" format="2">
	<advance width="604"/>
	<unicode hex="0173"/>
	<note>
		uogonek
	</note>
	<outline>
		<contour>
			<point x="501" y="0" type="curve"/>
			<point x="532" y="0" type="line"/>
			<point x="532" y="531" type="line"/>
			<point x="423" y="531" type="line"/>
			<point x="423" y="281" type="line" smooth="yes"/>
			<point x="423" y="127"/>
			<point x="365" y="68"/>
			<point x="288" y="68" type="curve" smooth="yes"/>
			<point x="220" y="68"/>
			<point x="182" y="106"/>
			<point x="174" y="164" type="curve" smooth="yes"/>
			<point x="171" y="191"/>
			<point x="170" y="220"/>
			<point x="170" y="237" type="curve" smooth="yes"/>
			<point x="170" y="531" type="line"/>
			<point x="61" y="531" type="line"/>
			<point x="61" y="215" type="line" smooth="yes"/>
			<point x="61" y="172"/>
			<point x="62" y="148"/>
			<point x="66" y="121" type="curve" smooth="yes"/>
			<point x="78" y="48"/>
			<point x="142" y="-14"/>
			<point x="252" y="-14" type="curve" smooth="yes"/>
			<point x="305" y="-14"/>
			<point x="344" y="-5"/>
			<point x="386" y="25" type="curve"/>
			<point x="423" y="91" type="line"/>
			<point x="423" y="10" type="line"/>
			<point x="368" y="-13"/>
			<point x="317" y="-66"/>
			<point x="317" y="-138" type="curve" smooth="yes"/>
			<point x="317" y="-201"/>
			<point x="357" y="-223"/>
			<point x="415" y="-223" type="curve" smooth="yes"/>
			<point x="456" y="-223"/>
			<point x="490" y="-212"/>
			<point x="516" y="-192" type="curve"/>
			<point x="516" y="-137" type="line"/>
			<point x="498" y="-151"/>
			<point x="481" y="-157"/>
			<point x="463" y="-157" type="curve" smooth="yes"/>
			<point x="436" y="-157"/>
			<point x="419" y="-144"/>
			<point x="419" y="-107" type="curve" smooth="yes"/>
			<point x="419" y="-50"/>
			<point x="457" y="-7"/>
		</contour>
	</outline>
</glyph>
<glyph name="Ycircumflex" format="2">
	<advance width="602"/>
	<unicode hex="0176"/>
	<note>
		Ycircumflex
	</note>
	<outline>
		<contour>
			<point x="210" y="736" type="line"/>
			<point x="285" y="736" type="line"/>
			<point x="316" y="796" type="line"/>
			<point x="347" y="736" type="line"/>
			<point x="423" y="736" type="line"/>
			<point x="357" y="838" type="line"/>
			<point x="276" y="838" type="line"/>
		</contour>
		<contour>
			<point x="371" y="0" type="line"/>
			<point x="371" y="270" type="line"/>
			<point x="615" y="690" type="line"/>
			<point x="493" y="690" type="line"/>
			<point x="321" y="371" type="line"/>
			<point x="143" y="690" type="line"/>
			<point x="18" y="690" type="line"/>
			<point x="262" y="270" type="line"/>
			<point x="262" y="0" type="line"/>
		</contour>
	</outline>
</glyph>
<glyph name="ycircumflex" format="2">
	<advance width="537"/>
	<unicode hex="0177"/>
	<note>
		ycircumflex
	</note>
	<outline>
		<contour>
			<point x="162" y="578" type="line"/>
			<point x="235" y="578" type="line"/>
			<point x="268" y="643" type="line"/>
			<point x="301" y="578" type="line"/>
			<point x="375" y="578" type="line"/>
			<point x="309" y="692" type="line"/>
			<point x="228" y="692" type="line"/>
		</contour>
		<contour>
			<point x="318" y="-34" type="curve" smooth="yes"/>
			<point x="534" y="531" type="line"/>
			<point x="415" y="531" type="line"/>
			<point x="270" y="82" type="line"/>
			<point x="124" y="531" type="line"/>
			<point x="1" y="531" type="line"/>
			<point x="215" y="-25" type="line"/>
			<point x="207" y="-44" type="line" smooth="yes"/>
			<point x="183" y="-106"/>
			<point x="149" y="-127"/>
			<point x="99" y="-127" type="curve" smooth="yes"/>
			<point x="88" y="-127"/>
			<point x="77" y="-127"/>
			<point x="64" y="-126" type="curve"/>
			<point x="64" y="-207" type="line"/>
			<point x="80" y="-210"/>
			<point x="94" y="-210"/>
			<point x="116" y="-210" type="curve" smooth="yes"/>
			<point x="212" y="-210"/>
			<point x="269" y="-160"/>
		</contour>
	</outline>
</glyph>
<glyph name="Zacute" format="2">
	<advance width="605"/>
	<unicode hex="0179"/>
	<note>
		Zacute
	</note>
	<outline>
		<contour>
			<point x="277" y="736" type="line"/>
			<point x="343" y="736" type="line"/>
			<point x="440" y="838" type="line"/>
			<point x="340" y="838" type="line"/>
		</contour>
		<contour>
			<point x="581" y="0" type="line"/>
			<point x="581" y="88" type="line"/>
			<point x="179" y="88" type="line"/>
			<point x="576" y="604" type="line"/>
			<point x="576" y="690" type="line"/>
			<point x="76" y="690" type="line"/>
			<point x="76" y="603" type="line"/>
			<point x="448" y="603" type="line"/>
			<point x="48" y="84" type="line"/>
			<point x="48" y="0" type="line"/>
		</contour>
	</outline>
</glyph>
<glyph name="zacute" format="2">
	<advance width="478"/>
	<unicode hex="017A"/>
	<note>
		zacute
	</note>
	<outline>
		<contour>
			<point x="203" y="578" type="line"/>
			<point x="269" y="578" type="line"/>
			<point x="372" y="692" type="line"/>
			<point x="272" y="692" type="line"/>
		</contour>
		<contour>
			<point x="449" y="0" type="line"/>
			<point x="449" y="79" type="line"/>
			<point x="148" y="79" type="line"/>
			<point x="445" y="448" type="line"/>
			<point x="445" y="527" type="line"/>
			<point x="44" y="527" type="line"/>
			<point x="44" y="448" type="line"/>
			<point x="323" y="448" type="line"/>
			<point x="24" y="76" type="line"/>
			<point x="24" y="0" type="line"/>
		</contour>
	</outline>
</glyph>
<glyph name="uni021A" format="2">
	<advance width="617"/>
	<unicode hex="021A"/>
	<note>
		uni021A
	</note>
	<outline>
		<contour>
			<point x="379" y="603" type="line"/>
			<point x="620" y="603" type="line"/>
			<point x="620" y="690" type="line"/>
			<point x="29" y="690" type="line"/>
			<point x="29" y="603" type="line"/>
			<point x="270" y="603" type="line"/>
			<point x="270" y="0" type="line"/>
			<point x="379" y="0" type="line"/>
		</contour>
		<contour>
			<point x="376" y="-48" type="line"/>
			<point x="295" y="-48" type="line"/>
			<point x="235" y="-200" type="line"/>
			<point x="305" y="-200" type="line"/>
			<point x="376" y="-59" type="line"/>
		</contour>
	</outline>
</glyph>
<glyph name="ring" format="2">
	<advance width="300"/>
	<unicode hex="02DA"/>
	<note>
		ring
	</note>
	<outline>
		<contour>
			<point x="150" y="745" type="curve" smooth="yes"/>
			<point x="93" y="745"/>
			<point x="52" y="708"/>
			<point x="52" y="655" type="curve" smooth="yes"/>
			<point x="52" y="603"/>
			<point x="93" y="566"/>
			<point x="150" y="566" type="curve" smooth="yes"/>
			<point x="207" y="566"/>
			<point x="248" y="603"/>
			<point x="248" y="655" type="curve" smooth="yes"/>
			<point x="248" y="708"/>
			<point x="207" y="745"/>
		</contour>
		<contour>
			<point x="150" y="702" type="curve" smooth="yes"/>
			<point x="173" y="702"/>
			<point x="190" y="684"/>
			<point x="190" y="655" type="curve" smooth="yes"/>
			<point x="190" y="626"/>
			<point x="173" y="609"/>
			<point x="150" y="609" type="curve" smooth="yes"/>
			<point x="127" y="609"/>
			<point x="110" y="626"/>
			<point x="110" y="655" type="curve" smooth="yes"/>
			<point x="110" y="684"/>
			<point x="127" y="702"/>
		</contour>
	</outline>
</glyph>
<glyph name="ogonek" format="2">
	<advance width="300"/>
	<unicode hex="02DB"/>
	<note>
		ogonek
	</note>
	<outline>
		<contour>
			<point x="228" y="0" type="curve"/>
			<point x="150" y="10" type="line"/>
			<point x="95" y="-13"/>
			<point x="44" y="-66"/>
			<point x="44" y="-138" type="curve" smooth="yes"/>
			<point x="44" y="-201"/>
			<point x="84" y="-223"/>
			<point x="142" y="-223" type="curve" smooth="yes"/>
			<point x="183" y="-223"/>
			<point x="217" y="-212"/>
			<point x="243" y="-192" type="curve"/>
			<point x="243" y="-137" type="line"/>
			<point x="225" y="-151"/>
			<point x="208" y="-157"/>
			<point x="190" y="-157" type="curve" smooth="yes"/>
			<point x="163" y="-157"/>
			<point x="146" y="-144"/>
			<point x="146" y="-107" type="curve" smooth="yes"/>
			<point x="146" y="-50"/>
			<point x="184" y="-7"/>
		</contour>
	</outline>
</glyph>
<glyph name="hungarumlaut" format="2">
	<advance width="300"/>
	<unicode hex="02DD"/>
	<note>
		hungarumlaut
	</note>
	<outline>
		<contour>
			<point x="40" y="578" type="line"/>
			<point x="106" y="578" type="line"/>
			<point x="208" y="692" type="line"/>
			<point x="108" y="692" type="line"/>
		</contour>
		<contour>
			<point x="179" y="578" type="line"/>
			<point x="245" y="578" type="line"/>
			<point x="347" y="692" type="line"/>
			<point x="247" y="692" type="line"/>
		</contour>
	</outline>
</glyph>
<glyph name="uni0326" format="2">
	<advance width="0"/>
	<unicode hex="0326"/>
	<note>
		uni0326
	</note>
	<outline>
		<contour>
			<point x="131" y="-200" type="line"/>
			<point x="202" y="-59" type="line"/>
			<point x="202" y="-48" type="line"/>
			<point x="121" y="-48" type="line"/>
			<point x="61" y="-200" type="line"/>
		</contour>
	</outline>
</glyph>
<glyph name="Wacute" format="2">
	<advance width="968"/>
	<unicode hex="1E82"/>
	<note>
		Wacute
	</note>
	<outline>
		<contour>
			<point x="459" y="736" type="line"/>
			<point x="525" y="736" type="line"/>
			<point x="622" y="838" type="line"/>
			<point x="522" y="838" type="line"/>
		</contour>
		<contour>
			<point x="778" y="0" type="line"/>
			<point x="966" y="690" type="line"/>
			<point x="852" y="690" type="line"/>
			<point x="712" y="88" type="line"/>
			<point x="573" y="680" type="line"/>
			<point x="422" y="680" type="line"/>
			<point x="279" y="91" type="line"/>
			<point x="147" y="690" type="line"/>
			<point x="26" y="690" type="line"/>
			<point x="204" y="0" type="line"/>
			<point x="350" y="0" type="line"/>
			<point x="495" y="588" type="line"/>
			<point x="633" y="0" type="line"/>
		</contour>
	</outline>
</glyph>
<glyph name="wacute" format="2">
	<advance width="806"/>
	<unicode hex="1E83"/>
	<note>
		wacute
	</note>
	<outline>
		<contour>
			<point x="365" y="578" type="line"/>
			<point x="431" y="578" type="line"/>
			<point x="534" y="692" type="line"/>
			<point x="434" y="692" type="line"/>
		</contour>
		<contour>
			<point x="634" y="0" type="line"/>
			<point x="803" y="531" type="line"/>
			<point x="686" y="531" type="line"/>
			<point x="577" y="97" type="line"/>
			<point x="471" y="530" type="line"/>
			<point x="337" y="530" type="line"/>
			<point x="234" y="98" type="line"/>
			<point x="125" y="531" type="line"/>
			<point x="1" y="531" type="line"/>
			<point x="170" y="0" type="line"/>
			<point x="297" y="0" type="line"/>
			<point x="403" y="429" type="line"/>
			<point x="508" y="0" type="line"/>
		</contour>
	</outline>
</glyph>
<glyph name="Wdieresis" format="2">
	<advance width="968"/>
	<unicode hex="1E84"/>
	<note>
		Wdieresis
	</note>
	<outline>
		<contour>
			<point x="778" y="0" type="line"/>
			<point x="966" y="690" type="line"/>
			<point x="852" y="690" type="line"/>
			<point x="712" y="88" type="line"/>
			<point x="573" y="680" type="line"/>
			<point x="422" y="680" type="line"/>
			<point x="279" y="91" type="line"/>
			<point x="147" y="690" type="line"/>
			<point x="26" y="690" type="line"/>
			<point x="204" y="0" type="line"/>
			<point x="350" y="0" type="line"/>
			<point x="495" y="588" type="line"/>
			<point x="633" y="0" type="line"/>
		</contour>
		<contour>
			<point x="366" y="839" type="line"/>
			<point x="366" y="733" type="line"/>
			<point x="474" y="733" type="line"/>
			<point x="474" y="839" type="line"/>
		</contour>
		<contour>
			<point x="521" y="839" type="line"/>
			<point x="521" y="733" type="line"/>
			<point x="629" y="733" type="line"/>
			<point x="629" y="839" type="line"/>
		</contour>
	</outline>
</glyph>
<glyph name="endash" format="2">
	<advance width="500"/>
	<unicode hex="2013"/>
	<note>
		endash
	</note>
	<outline>
		<contour>
			<point x="75" y="259" type="line"/>
			<point x="425" y="259" type="line"/>
			<point x="425" y="325" type="line"/>
			<point x="75" y="325" type="line"/>
		</contour>
	</outline>
</glyph>
<glyph name="emdash" format="2">
	<advance width="1000"/>
	<unicode hex="2014"/>
	<note>
		emdash
	</note>
	<outline>
		<contour>
			<point x="75" y="259" type="line"/>
			<point x="925" y="259" type="line"/>
			<point x="925" y="325" type="line"/>
			<point x="75" y="325" type="line"/>
		</contour>
	</outline>
</glyph>
<glyph name="quoteleft" format="2">
	<advance width="266"/>
	<unicode hex="2018"/>
	<note>
		quoteleft
	</note>
	<outline>
		<contour>
			<point x="153" y="735" type="line"/>
			<point x="55" y="484" type="line"/>
			<point x="55" y="474" type="line"/>
			<point x="167" y="474" type="line"/>
			<point x="245" y="735" type="line"/>
		</contour>
	</outline>
</glyph>
<glyph name="quotedblleft" format="2">
	<advance width="453"/>
	<unicode hex="201C"/>
	<note>
		quotedblleft
	</note>
	<outline>
		<contour>
			<point x="153" y="736" type="line"/>
			<point x="55" y="484" type="line"/>
			<point x="55" y="474" type="line"/>
			<point x="167" y="474" type="line"/>
			<point x="245" y="736" type="line"/>
		</contour>
		<contour>
			<point x="340" y="736" type="line"/>
			<point x="242" y="484" type="line"/>
			<point x="242" y="474" type="line"/>
			<point x="354" y="474" type="line"/>
			<point x="432" y="736" type="line"/>
		</contour>
	</outline>
</glyph>
<glyph name="quotedblbase" format="2">
	<advance width="419"/>
	<unicode hex="201E"/>
	<note>
		quotedblbase
	</note>
	<outline>
		<contour>
			<point x="66" y="-121" type="line"/>
			<point x="160" y="108" type="line"/>
			<point x="160" y="118" type="line"/>
			<point x="49" y="118" type="line"/>
			<point x="-30" y="-121" type="line"/>
		</contour>
		<contour>
			<point x="253" y="-121" type="line"/>
			<point x="348" y="108" type="line"/>
			<point x="348" y="118" type="line"/>
			<point x="236" y="118" type="line"/>
			<point x="158" y="-121" type="line"/>
		</contour>
	</outline>
</glyph>
<glyph name="daggerdbl" format="2">
	<advance width="555"/>
	<unicode hex="2021"/>
	<note>
		daggerdbl
	</note>
	<outline>
		<contour>
			<point x="324" y="158" type="line"/>
			<point x="324" y="372" type="line"/>
			<point x="504" y="365" type="line"/>
			<point x="504" y="461" type="line"/>
			<point x="325" y="455" type="line"/>
			<point x="336" y="690" type="line"/>
			<point x="219" y="690" type="line"/>
			<point x="230" y="455" type="line"/>
			<point x="51" y="461" type="line"/>
			<point x="51" y="365" type="line"/>
			<point x="231" y="371" type="line"/>
			<point x="231" y="159" type="line"/>
			<point x="51" y="165" type="line"/>
			<point x="51" y="69" type="line"/>
			<point x="230" y="75" type="line"/>
			<point x="219" y="-160" type="line"/>
			<point x="336" y="-160" type="line"/>
			<point x="325" y="75" type="line"/>
			<point x="504" y="69" type="line"/>
			<point x="504" y="165" type="line"/>
		</contour>
	</outline>
</glyph>
<glyph name="ellipsis" format="2">
	<advance width="672"/>
	<unicode hex="2026"/>
	<note>
		ellipsis
	</note>
	<outline>
		<contour>
			<point x="38" y="132" type="line"/>
			<point x="38" y="-14" type="line"/>
			<point x="185" y="-14" type="line"/>
			<point x="185" y="132" type="line"/>
		</contour>
		<contour>
			<point x="258" y="132" type="line"/>
			<point x="258" y="-14" type="line"/>
			<point x="405" y="-14" type="line"/>
			<point x="405" y="132" type="line"/>
		</contour>
		<contour>
			<point x="478" y="132" type="line"/>
			<point x="478" y="-14" type="line"/>
			<point x="625" y="-14" type="line"/>
			<point x="625" y="132" type="line"/>
		</contour>
	</outline>
</glyph>
<glyph name="guilsinglright" format="2">
	<advance width="396"/>
	<unicode hex="203A"/>
	<note>
		guilsinglright
	</note>
	<outline>
		<contour>
			<point x="141" y="82" type="line"/>
			<point x="278" y="248" type="line"/>
			<point x="141" y="414" type="line"/>
			<point x="54" y="414" type="line"/>
			<point x="191" y="248" type="line"/>
			<point x="54" y="82" type="line"/>
		</contour>
	</outline>
</glyph>
<glyph name="Euro" format="2">
	<advance width="601"/>
	<unicode hex="20AC"/>
	<note>
		Euro
	</note>
	<outline>
		<contour>
			<point x="225" y="251" type="curve"/>
			<point x="472" y="251" type="line"/>
			<point x="483" y="317" type="line"/>
			<point x="219" y="317" type="line"/>
			<point x="219" y="326"/>
			<point x="219" y="336"/>
			<point x="219" y="346" type="curve" smooth="yes"/>
			<point x="219" y="370" type="line"/>
			<point x="492" y="370" type="line"/>
			<point x="506" y="436" type="line"/>
			<point x="225" y="436" type="line"/>
			<point x="246" y="569"/>
			<point x="315" y="620"/>
			<point x="407" y="620" type="curve" smooth="yes"/>
			<point x="456" y="620"/>
			<point x="499" y="605"/>
			<point x="532" y="572" type="curve"/>
			<point x="579" y="642" type="line"/>
			<point x="543" y="682"/>
			<point x="485" y="704"/>
			<point x="406" y="704" type="curve" smooth="yes"/>
			<point x="252" y="704"/>
			<point x="136" y="620"/>
			<point x="107" y="436" type="curve"/>
			<point x="66" y="436" type="line"/>
			<point x="53" y="370" type="line"/>
			<point x="101" y="370" type="line"/>
			<point x="100" y="361"/>
			<point x="100" y="352"/>
			<point x="100" y="342" type="curve" smooth="yes"/>
			<point x="100" y="317" type="line"/>
			<point x="44" y="317" type="line"/>
			<point x="32" y="251" type="line"/>
			<point x="105" y="251" type="line"/>
			<point x="128" y="54"/>
			<point x="233" y="-14"/>
			<point x="391" y="-14" type="curve" smooth="yes"/>
			<point x="456" y="-14"/>
			<point x="504" y="-4"/>
			<point x="553" y="24" type="curve"/>
			<point x="553" y="110" type="line"/>
			<point x="509" y="82"/>
			<point x="463" y="70"/>
			<point x="406" y="70" type="curve" smooth="yes"/>
			<point x="308" y="70"/>
			<point x="244" y="120"/>
		</contour>
	</outline>
</glyph>
<glyph name="emptyset" format="2">
	<advance width="838"/>
	<unicode hex="2205"/>
	<note>
		emptyset
	</note>
	<outline>
		<contour>
			<point x="721" y="604" type="curve"/>
			<point x="802" y="685" type="line"/>
			<point x="754" y="733" type="line"/>
			<point x="674" y="653" type="line"/>
			<point x="606" y="713"/>
			<point x="517" y="749"/>
			<point x="419" y="749" type="curve" smooth="yes"/>
			<point x="203" y="749"/>
			<point x="30" y="574"/>
			<point x="30" y="355" type="curve" smooth="yes"/>
			<point x="30" y="258"/>
			<point x="64" y="169"/>
			<point x="121" y="100" type="curve"/>
			<point x="37" y="16" type="line"/>
			<point x="85" y="-33" type="line"/>
			<point x="170" y="52" type="line"/>
			<point x="237" y="-5"/>
			<point x="324" y="-39"/>
			<point x="419" y="-39" type="curve" smooth="yes"/>
			<point x="635" y="-39"/>
			<point x="808" y="136"/>
			<point x="808" y="355" type="curve" smooth="yes"/>
			<point x="808" y="450"/>
			<point x="776" y="536"/>
		</contour>
		<contour>
			<point x="104" y="355" type="curve" smooth="yes"/>
			<point x="104" y="536"/>
			<point x="243" y="681"/>
			<point x="419" y="681" type="curve" smooth="yes"/>
			<point x="498" y="681"/>
			<point x="569" y="652"/>
			<point x="624" y="603" type="curve"/>
			<point x="172" y="151" type="line"/>
			<point x="129" y="207"/>
			<point x="104" y="277"/>
		</contour>
		<contour>
			<point x="419" y="29" type="curve" smooth="yes"/>
			<point x="342" y="29"/>
			<point x="273" y="56"/>
			<point x="219" y="102" type="curve"/>
			<point x="670" y="553" type="line"/>
			<point x="710" y="498"/>
			<point x="734" y="430"/>
			<point x="734" y="355" type="curve" smooth="yes"/>
			<point x="734" y="173"/>
			<point x="595" y="29"/>
		</contour>
	</outline>
</glyph>
<glyph name="product" format="2">
	<advance width="601"/>
	<unicode hex="220F"/>
	<note>
		product
	</note>
	<outline>
		<contour>
			<point x="508" y="603" type="line"/>
			<point x="568" y="603" type="line"/>
			<point x="568" y="690" type="line"/>
			<point x="33" y="690" type="line"/>
			<point x="33" y="603" type="line"/>
			<point x="93" y="603" type="line"/>
			<point x="93" y="-110" type="line"/>
			<point x="202" y="-110" type="line"/>
			<point x="202" y="603" type="line"/>
			<point x="399" y="603" type="line"/>
			<point x="399" y="-110" type="line"/>
			<point x="508" y="-110" type="line"/>
		</contour>
	</outline>
</glyph>
<glyph name="radical" format="2">
	<advance width="601"/>
	<unicode hex="221A"/>
	<note>
		radical
	</note>
	<outline>
		<contour>
			<point x="349" y="-160" type="line"/>
			<point x="566" y="780" type="line"/>
			<point x="493" y="780" type="line"/>
			<point x="304" y="-74" type="line"/>
			<point x="189" y="310" type="line"/>
			<point x="64" y="310" type="line"/>
			<point x="64" y="246" type="line"/>
			<point x="134" y="246" type="line"/>
			<point x="261" y="-160" type="line"/>
		</contour>
	</outline>
</glyph>
<glyph name="infinity" format="2">
	<advance width="995"/>
	<unicode hex="221E"/>
	<note>
		infinity
	</note>
	<outline>
		<contour>
			<point x="720" y="544" type="curve" smooth="yes"/>
			<point x="616" y="544"/>
			<point x="552" y="499"/>
			<point x="502" y="396" type="curve"/>
			<point x="453" y="499"/>
			<point x="375" y="544"/>
			<point x="278" y="544" type="curve" smooth="yes"/>
			<point x="111" y="544"/>
			<point x="29" y="421"/>
			<point x="29" y="265" type="curve" smooth="yes"/>
			<point x="29" y="110"/>
			<point x="111" y="-14"/>
			<point x="275" y="-14" type="curve" smooth="yes"/>
			<point x="379" y="-14"/>
			<point x="444" y="31"/>
			<point x="494" y="134" type="curve"/>
			<point x="543" y="31"/>
			<point x="620" y="-14"/>
			<point x="718" y="-14" type="curve" smooth="yes"/>
			<point x="884" y="-14"/>
			<point x="967" y="110"/>
			<point x="967" y="265" type="curve" smooth="yes"/>
			<point x="967" y="421"/>
			<point x="884" y="544"/>
		</contour>
		<contour>
			<point x="280" y="66" type="curve" smooth="yes"/>
			<point x="201" y="66"/>
			<point x="145" y="147"/>
			<point x="145" y="265" type="curve" smooth="yes"/>
			<point x="145" y="383"/>
			<point x="201" y="464"/>
			<point x="280" y="464" type="curve" smooth="yes"/>
			<point x="350" y="464"/>
			<point x="403" y="410"/>
			<point x="429" y="265" type="curve"/>
			<point x="412" y="121"/>
			<point x="350" y="66"/>
		</contour>
		<contour>
			<point x="715" y="66" type="curve" smooth="yes"/>
			<point x="645" y="66"/>
			<point x="593" y="121"/>
			<point x="567" y="265" type="curve"/>
			<point x="584" y="409"/>
			<point x="645" y="464"/>
			<point x="715" y="464" type="curve" smooth="yes"/>
			<point x="795" y="464"/>
			<point x="850" y="383"/>
			<point x="850" y="265" type="curve" smooth="yes"/>
			<point x="850" y="147"/>
			<point x="795" y="66"/>
		</contour>
	</outline>
</glyph>
<glyph name="integral" format="2">
	<advance width="600"/>
	<unicode hex="222B"/>
	<note>
		integral
	</note>
	<outline>
		<contour>
			<point x="349" y="754" type="curve" smooth="yes"/>
			<point x="266" y="754"/>
			<point x="207" y="686"/>
			<point x="207" y="572" type="curve" smooth="yes"/>
			<point x="207" y="505"/>
			<point x="221" y="435"/>
			<point x="264" y="290" type="curve" smooth="yes"/>
			<point x="314" y="123"/>
			<point x="320" y="75"/>
			<point x="320" y="18" type="curve" smooth="yes"/>
			<point x="320" y="-57"/>
			<point x="287" y="-94"/>
			<point x="245" y="-94" type="curve" smooth="yes"/>
			<point x="221" y="-94"/>
			<point x="205" y="-90"/>
			<point x="184" y="-75" type="curve"/>
			<point x="169" y="-138" type="line"/>
			<point x="195" y="-156"/>
			<point x="218" y="-160"/>
			<point x="251" y="-160" type="curve" smooth="yes"/>
			<point x="334" y="-160"/>
			<point x="393" y="-92"/>
			<point x="393" y="23" type="curve" smooth="yes"/>
			<point x="393" y="89"/>
			<point x="379" y="159"/>
			<point x="336" y="304" type="curve" smooth="yes"/>
			<point x="286" y="471"/>
			<point x="280" y="520"/>
			<point x="280" y="577" type="curve" smooth="yes"/>
			<point x="280" y="651"/>
			<point x="313" y="688"/>
			<point x="355" y="688" type="curve" smooth="yes"/>
			<point x="379" y="688"/>
			<point x="395" y="684"/>
			<point x="416" y="669" type="curve"/>
			<point x="431" y="732" type="line"/>
			<point x="405" y="750"/>
			<point x="382" y="754"/>
		</contour>
	</outline>
</glyph>
<glyph name="notequal" format="2">
	<advance width="601"/>
	<unicode hex="2260"/>
	<note>
		notequal
	</note>
	<outline>
		<contour>
			<point x="301" y="248" type="line"/>
			<point x="376" y="384" type="line"/>
			<point x="519" y="384" type="line"/>
			<point x="519" y="448" type="line"/>
			<point x="412" y="448" type="line"/>
			<point x="464" y="541" type="line"/>
			<point x="388" y="541" type="line"/>
			<point x="336" y="448" type="line"/>
			<point x="82" y="448" type="line"/>
			<point x="82" y="384" type="line"/>
			<point x="300" y="384" type="line"/>
			<point x="225" y="248" type="line"/>
			<point x="82" y="248" type="line"/>
			<point x="82" y="184" type="line"/>
			<point x="189" y="184" type="line"/>
			<point x="137" y="91" type="line"/>
			<point x="213" y="91" type="line"/>
			<point x="265" y="184" type="line"/>
			<point x="519" y="184" type="line"/>
			<point x="519" y="248" type="line"/>
		</contour>
	</outline>
</glyph>
<glyph name="lessequal" format="2">
	<advance width="601"/>
	<unicode hex="2264"/>
	<note>
		lessequal
	</note>
	<outline>
		<contour>
			<point x="170" y="310" type="line"/>
			<point x="523" y="436" type="line"/>
			<point x="523" y="515" type="line"/>
			<point x="98" y="354" type="line"/>
			<point x="98" y="269" type="line"/>
			<point x="523" y="107" type="line"/>
			<point x="523" y="186" type="line"/>
		</contour>
		<contour>
			<point x="523" y="66" type="line"/>
			<point x="98" y="66" type="line"/>
			<point x="98" y="0" type="line"/>
			<point x="523" y="0" type="line"/>
		</contour>
	</outline>
</glyph>
<glyph name="greaterequal" format="2">
	<advance width="601"/>
	<unicode hex="2265"/>
	<note>
		greaterequal
	</note>
	<outline>
		<contour>
			<point x="501" y="269" type="line"/>
			<point x="501" y="354" type="line"/>
			<point x="78" y="515" type="line"/>
			<point x="78" y="436" type="line"/>
			<point x="429" y="312" type="line"/>
			<point x="78" y="186" type="line"/>
			<point x="78" y="107" type="line"/>
		</contour>
		<contour>
			<point x="501" y="66" type="line"/>
			<point x="78" y="66" type="line"/>
			<point x="78" y="0" type="line"/>
			<point x="501" y="0" type="line"/>
		</contour>
	</outline>
</glyph>
<glyph name="fi" format="2">
	<advance width="558"/>
	<unicode hex="FB01"/>
	<note>
		fi
	</note>
	<outline>
		<contour>
			<point x="486" y="0" type="line"/>
			<point x="486" y="527" type="line"/>
			<point x="187" y="527" type="line"/>
			<point x="187" y="545" type="line" smooth="yes"/>
			<point x="187" y="559"/>
			<point x="188" y="581"/>
			<point x="190" y="595" type="curve" smooth="yes"/>
			<point x="198" y="654"/>
			<point x="243" y="676"/>
			<point x="377" y="666" type="curve"/>
			<point x="377" y="748" type="line"/>
			<point x="356" y="752"/>
			<point x="335" y="754"/>
			<point x="308" y="754" type="curve" smooth="yes"/>
			<point x="155" y="754"/>
			<point x="90" y="699"/>
			<point x="80" y="601" type="curve" smooth="yes"/>
			<point x="78" y="583"/>
			<point x="78" y="558"/>
			<point x="78" y="539" type="curve" smooth="yes"/>
			<point x="78" y="527" type="line"/>
			<point x="21" y="527" type="line"/>
			<point x="21" y="450" type="line"/>
			<point x="78" y="450" type="line"/>
			<point x="78" y="0" type="line"/>
			<point x="187" y="0" type="line"/>
			<point x="187" y="450" type="line"/>
			<point x="377" y="450" type="line"/>
			<point x="377" y="0" type="line"/>
		</contour>
	</outline>
</glyph>
<glyph name="fl" format="2">
	<advance width="551"/>
	<unicode hex="FB02"/>
	<note>
		fl
	</note>
	<outline>
		<contour>
			<point x="465" y="112" type="curve" smooth="yes"/>
			<point x="464" y="128"/>
			<point x="464" y="144"/>
			<point x="464" y="162" type="curve" smooth="yes"/>
			<point x="464" y="732" type="line"/>
			<point x="420" y="747"/>
			<point x="363" y="754"/>
			<point x="291" y="754" type="curve" smooth="yes"/>
			<point x="148" y="754"/>
			<point x="80" y="696"/>
			<point x="70" y="599" type="curve" smooth="yes"/>
			<point x="68" y="581"/>
			<point x="68" y="558"/>
			<point x="68" y="539" type="curve" smooth="yes"/>
			<point x="68" y="527" type="line"/>
			<point x="21" y="527" type="line"/>
			<point x="21" y="450" type="line"/>
			<point x="68" y="450" type="line"/>
			<point x="68" y="0" type="line"/>
			<point x="177" y="0" type="line"/>
			<point x="177" y="450" type="line"/>
			<point x="286" y="450" type="line"/>
			<point x="286" y="527" type="line"/>
			<point x="177" y="527" type="line"/>
			<point x="177" y="545" type="line" smooth="yes"/>
			<point x="177" y="559"/>
			<point x="178" y="581"/>
			<point x="180" y="595" type="curve" smooth="yes"/>
			<point x="186" y="642"/>
			<point x="218" y="674"/>
			<point x="288" y="674" type="curve" smooth="yes"/>
			<point x="313" y="674"/>
			<point x="335" y="672"/>
			<point x="355" y="667" type="curve"/>
			<point x="355" y="159" type="line" smooth="yes"/>
			<point x="355" y="127"/>
			<point x="355" y="103"/>
			<point x="356" y="83" type="curve" smooth="yes"/>
			<point x="359" y="15"/>
			<point x="399" y="-6"/>
			<point x="454" y="-6" type="curve" smooth="yes"/>
			<point x="479" y="-6"/>
			<point x="505" y="-4"/>
			<point x="529" y="-1" type="curve"/>
			<point x="529" y="74" type="line"/>
			<point x="484" y="69"/>
			<point x="468" y="79"/>
		</contour>
	</outline>
</glyph>
<glyph name="uF1010" format="2">
	<advance width="942"/>
	<unicode hex="F1010"/>
	<outline>
		<contour>
			<point x="215" y="228" type="line"/>
			<point x="437" y="228" type="line"/>
			<point x="437" y="-69" type="line"/>
			<point x="914" y="-69" type="line"/>
			<point x="914" y="19" type="line"/>
			<point x="547" y="19" type="line"/>
			<point x="547" y="233" type="line"/>
			<point x="876" y="233" type="line"/>
			<point x="876" y="320" type="line"/>
			<point x="547" y="320" type="line"/>
			<point x="547" y="534" type="line"/>
			<point x="904" y="534" type="line"/>
			<point x="904" y="621" type="line"/>
			<point x="437" y="621" type="line"/>
			<point x="413" y="690" type="line"/>
			<point x="271" y="690" type="line"/>
			<point x="23" y="0" type="line"/>
			<point x="140" y="0" type="line"/>
		</contour>
		<contour>
			<point x="244" y="315" type="line"/>
			<point x="340" y="599" type="line"/>
			<point x="431" y="315" type="line"/>
		</contour>
	</outline>
</glyph>
<glyph name="uF1030" format="2">
	<advance width="1149"/>
	<unicode hex="F1030"/>
	<outline>
		<contour>
			<point x="215" y="228" type="line"/>
			<point x="461" y="228" type="line"/>
			<point x="498" y="79"/>
			<point x="610" y="-16"/>
			<point x="781" y="-16" type="curve" smooth="yes"/>
			<point x="992" y="-16"/>
			<point x="1113" y="130"/>
			<point x="1113" y="343" type="curve" smooth="yes"/>
			<point x="1113" y="557"/>
			<point x="992" y="702"/>
			<point x="781" y="702" type="curve" smooth="yes"/>
			<point x="630" y="702"/>
			<point x="526" y="629"/>
			<point x="478" y="510" type="curve"/>
			<point x="413" y="690" type="line"/>
			<point x="271" y="690" type="line"/>
			<point x="23" y="0" type="line"/>
			<point x="140" y="0" type="line"/>
		</contour>
		<contour>
			<point x="244" y="315" type="line"/>
			<point x="340" y="599" type="line"/>
			<point x="431" y="315" type="line"/>
		</contour>
		<contour>
			<point x="566" y="343" type="curve" smooth="yes"/>
			<point x="566" y="515"/>
			<point x="646" y="618"/>
			<point x="781" y="618" type="curve" smooth="yes"/>
			<point x="915" y="618"/>
			<point x="995" y="515"/>
			<point x="995" y="343" type="curve" smooth="yes"/>
			<point x="995" y="172"/>
			<point x="915" y="68"/>
			<point x="781" y="68" type="curve" smooth="yes"/>
			<point x="646" y="68"/>
			<point x="566" y="172"/>
		</contour>
	</outline>
</glyph>
<glyph name="uF1110" format="2">
	<advance width="894"/>
	<unicode hex="F1110"/>
	<outline>
		<contour>
			<point x="365" y="77" type="line"/>
			<point x="375" y="0" type="line"/>
			<point x="484" y="0" type="line"/>
			<point x="476" y="59"/>
			<point x="474" y="95"/>
			<point x="474" y="135" type="curve" smooth="yes"/>
			<point x="474" y="235" type="line"/>
			<point x="475" y="235" type="line"/>
			<point x="856" y="235" type="line"/>
			<point x="858" y="254"/>
			<point x="858" y="269"/>
			<point x="858" y="279" type="curve" smooth="yes"/>
			<point x="858" y="429"/>
			<point x="775" y="545"/>
			<point x="621" y="545" type="curve" smooth="yes"/>
			<point x="550" y="545"/>
			<point x="489" y="521"/>
			<point x="444" y="478" type="curve"/>
			<point x="415" y="520"/>
			<point x="361" y="545"/>
			<point x="271" y="545" type="curve" smooth="yes"/>
			<point x="150" y="545"/>
			<point x="63" y="479"/>
			<point x="56" y="363" type="curve"/>
			<point x="166" y="363" type="line"/>
			<point x="172" y="429"/>
			<point x="205" y="465"/>
			<point x="269" y="465" type="curve" smooth="yes"/>
			<point x="332" y="465"/>
			<point x="359" y="435"/>
			<point x="362" y="392" type="curve" smooth="yes"/>
			<point x="364" y="372"/>
			<point x="364" y="354"/>
			<point x="364" y="334" type="curve" smooth="yes"/>
			<point x="364" y="321" type="line"/>
			<point x="330" y="321" type="line" smooth="yes"/>
			<point x="129" y="321"/>
			<point x="35" y="257"/>
			<point x="35" y="139" type="curve" smooth="yes"/>
			<point x="35" y="40"/>
			<point x="112" y="-14"/>
			<point x="206" y="-14" type="curve" smooth="yes"/>
			<point x="256" y="-14"/>
			<point x="302" y="-5"/>
			<point x="338" y="20" type="curve"/>
		</contour>
		<contour>
			<point x="151" y="148" type="curve" smooth="yes"/>
			<point x="151" y="229"/>
			<point x="235" y="258"/>
			<point x="364" y="248" type="curve"/>
			<point x="364" y="199" type="line" smooth="yes"/>
			<point x="364" y="113"/>
			<point x="315" y="66"/>
			<point x="246" y="66" type="curve" smooth="yes"/>
			<point x="188" y="66"/>
			<point x="151" y="92"/>
		</contour>
		<contour>
			<point x="476" y="312" type="line"/>
			<point x="488" y="414"/>
			<point x="542" y="465"/>
			<point x="617" y="465" type="curve" smooth="yes"/>
			<point x="694" y="465"/>
			<point x="737" y="410"/>
			<point x="745" y="312" type="curve"/>
		</contour>
	</outline>
</glyph>
<glyph name="uF1510" format="2">
	<advance width="944"/>
	<unicode hex="F1510"/>
	<outline>
		<contour>
			<point x="286" y="545" type="curve" smooth="yes"/>
			<point x="147" y="545"/>
			<point x="29" y="444"/>
			<point x="29" y="263" type="curve" smooth="yes"/>
			<point x="29" y="74"/>
			<point x="134" y="-14"/>
			<point x="273" y="-14" type="curve" smooth="yes"/>
			<point x="398" y="-14"/>
			<point x="490" y="49"/>
			<point x="515" y="176" type="curve"/>
			<point x="403" y="176" type="line"/>
			<point x="387" y="104"/>
			<point x="342" y="66"/>
			<point x="279" y="66" type="curve" smooth="yes"/>
			<point x="205" y="66"/>
			<point x="145" y="127"/>
			<point x="145" y="271" type="curve" smooth="yes"/>
			<point x="145" y="404"/>
			<point x="206" y="465"/>
			<point x="283" y="465" type="curve" smooth="yes"/>
			<point x="348" y="465"/>
			<point x="391" y="428"/>
			<point x="407" y="347" type="curve"/>
			<point x="518" y="347" type="line"/>
			<point x="518" y="348" type="line"/>
			<point x="525" y="362"/>
			<point x="584" y="462"/>
			<point x="655" y="464" type="curve" smooth="yes"/>
			<point x="730" y="465"/>
			<point x="762" y="422"/>
			<point x="767" y="362" type="curve" smooth="yes"/>
			<point x="769" y="335"/>
			<point x="769" y="312"/>
			<point x="769" y="287" type="curve" smooth="yes"/>
			<point x="769" y="0" type="line"/>
			<point x="879" y="0" type="line"/>
			<point x="879" y="299" type="line" smooth="yes"/>
			<point x="879" y="342"/>
			<point x="878" y="366"/>
			<point x="876" y="393" type="curve" smooth="yes"/>
			<point x="866" y="486"/>
			<point x="801" y="545"/>
			<point x="687" y="545" type="curve" smooth="yes"/>
			<point x="634" y="545"/>
			<point x="595" y="536"/>
			<point x="553" y="504" type="curve"/>
			<point x="517" y="443" type="line"/>
			<point x="517" y="740" type="line"/>
			<point x="407" y="740" type="line"/>
			<point x="407" y="518" type="line"/>
			<point x="373" y="535"/>
			<point x="333" y="545"/>
		</contour>
	</outline>
</glyph>
<glyph name="uF1540" format="2">
	<advance width="998"/>
	<unicode hex="F1540"/>
	<outline>
		<contour>
			<point x="286" y="545" type="curve" smooth="yes"/>
			<point x="147" y="545"/>
			<point x="29" y="444"/>
			<point x="29" y="263" type="curve" smooth="yes"/>
			<point x="29" y="74"/>
			<point x="134" y="-14"/>
			<point x="273" y="-14" type="curve" smooth="yes"/>
			<point x="351" y="-14"/>
			<point x="416" y="10"/>
			<point x="460" y="59" type="curve"/>
			<point x="501" y="13"/>
			<point x="562" y="-14"/>
			<point x="637" y="-14" type="curve" smooth="yes"/>
			<point x="691" y="-14"/>
			<point x="746" y="2"/>
			<point x="776" y="26" type="curve"/>
			<point x="816" y="84" type="line"/>
			<point x="816" y="-196" type="line"/>
			<point x="926" y="-196" type="line"/>
			<point x="926" y="531" type="line"/>
			<point x="816" y="531" type="line"/>
			<point x="816" y="459" type="line"/>
			<point x="781" y="512" type="line"/>
			<point x="754" y="533"/>
			<point x="699" y="545"/>
			<point x="655" y="545" type="curve" smooth="yes"/>
			<point x="584" y="545"/>
			<point x="516" y="520"/>
			<point x="469" y="468" type="curve"/>
			<point x="428" y="516"/>
			<point x="366" y="545"/>
		</contour>
		<contour>
			<point x="145" y="271" type="curve" smooth="yes"/>
			<point x="145" y="404"/>
			<point x="206" y="465"/>
			<point x="283" y="465" type="curve" smooth="yes"/>
			<point x="348" y="465"/>
			<point x="391" y="428"/>
			<point x="407" y="347" type="curve"/>
			<point x="518" y="347" type="line"/>
			<point x="539" y="426"/>
			<point x="600" y="465"/>
			<point x="667" y="465" type="curve" smooth="yes"/>
			<point x="738" y="465"/>
			<point x="816" y="417"/>
			<point x="816" y="288" type="curve" smooth="yes"/>
			<point x="816" y="260" type="line" smooth="yes"/>
			<point x="816" y="118"/>
			<point x="745" y="66"/>
			<point x="662" y="66" type="curve" smooth="yes"/>
			<point x="593" y="66"/>
			<point x="536" y="107"/>
			<point x="515" y="176" type="curve"/>
			<point x="403" y="176" type="line"/>
			<point x="387" y="104"/>
			<point x="342" y="66"/>
			<point x="279" y="66" type="curve" smooth="yes"/>
			<point x="205" y="66"/>
			<point x="145" y="127"/>
		</contour>
	</outline>
</glyph>
<glyph name="uF1710" format="2">
	<advance width="981"/>
	<unicode hex="F1710"/>
	<outline>
		<contour>
			<point x="557" y="0" type="line"/>
			<point x="557" y="235" type="line"/>
			<point x="943" y="235" type="line"/>
			<point x="945" y="254"/>
			<point x="945" y="269"/>
			<point x="945" y="279" type="curve" smooth="yes"/>
			<point x="945" y="429"/>
			<point x="862" y="545"/>
			<point x="708" y="545" type="curve" smooth="yes"/>
			<point x="650" y="545"/>
			<point x="598" y="529"/>
			<point x="557" y="499" type="curve"/>
			<point x="557" y="735" type="line"/>
			<point x="447" y="735" type="line"/>
			<point x="447" y="459" type="line"/>
			<point x="412" y="512" type="line"/>
			<point x="385" y="533"/>
			<point x="330" y="545"/>
			<point x="286" y="545" type="curve" smooth="yes"/>
			<point x="149" y="545"/>
			<point x="29" y="451"/>
			<point x="29" y="257" type="curve" smooth="yes"/>
			<point x="29" y="101"/>
			<point x="116" y="-14"/>
			<point x="268" y="-14" type="curve" smooth="yes"/>
			<point x="322" y="-14"/>
			<point x="377" y="2"/>
			<point x="407" y="26" type="curve"/>
			<point x="447" y="84" type="line"/>
			<point x="447" y="0" type="line"/>
		</contour>
		<contour>
			<point x="145" y="266" type="curve" smooth="yes"/>
			<point x="145" y="398"/>
			<point x="211" y="465"/>
			<point x="298" y="465" type="curve" smooth="yes"/>
			<point x="369" y="465"/>
			<point x="447" y="417"/>
			<point x="447" y="288" type="curve" smooth="yes"/>
			<point x="447" y="260" type="line" smooth="yes"/>
			<point x="447" y="118"/>
			<point x="376" y="66"/>
			<point x="293" y="66" type="curve" smooth="yes"/>
			<point x="198" y="66"/>
			<point x="145" y="151"/>
		</contour>
		<contour>
			<point x="563" y="312" type="line"/>
			<point x="575" y="414"/>
			<point x="629" y="465"/>
			<point x="704" y="465" type="curve" smooth="yes"/>
			<point x="781" y="465"/>
			<point x="824" y="410"/>
			<point x="832" y="312" type="curve"/>
		</contour>
	</outline>
</glyph>
<glyph name="uF1810" format="2">
	<advance width="974"/>
	<unicode hex="F1810"/>
	<outline>
		<contour>
			<point x="572" y="0" type="line"/>
			<point x="572" y="88" type="line"/>
			<point x="205" y="88" type="line"/>
			<point x="205" y="302" type="line"/>
			<point x="778" y="302" type="line"/>
			<point x="853" y="74" type="line"/>
			<point x="972" y="74" type="line"/>
			<point x="731" y="764" type="line"/>
			<point x="589" y="764" type="line"/>
			<point x="561" y="690" type="line"/>
			<point x="95" y="690" type="line"/>
			<point x="95" y="0" type="line"/>
		</contour>
		<contour>
			<point x="205" y="389" type="line"/>
			<point x="205" y="603" type="line"/>
			<point x="529" y="603" type="line"/>
			<point x="449" y="389" type="line"/>
		</contour>
		<contour>
			<point x="562" y="389" type="line"/>
			<point x="658" y="673" type="line"/>
			<point x="749" y="389" type="line"/>
		</contour>
	</outline>
</glyph>
<glyph name="uF1950" format="2">
	<advance width="853"/>
	<unicode hex="F1950"/>
	<outline>
		<contour>
			<point x="526" y="279" type="curve" smooth="yes"/>
			<point x="526" y="315"/>
			<point x="521" y="348"/>
			<point x="512" y="379" type="curve" smooth="yes"/>
			<point x="482" y="478"/>
			<point x="406" y="545"/>
			<point x="289" y="545" type="curve" smooth="yes"/>
			<point x="136" y="545"/>
			<point x="29" y="432"/>
			<point x="29" y="264" type="curve" smooth="yes"/>
			<point x="29" y="76"/>
			<point x="136" y="-14"/>
			<point x="278" y="-14" type="curve" smooth="yes"/>
			<point x="394" y="-14"/>
			<point x="495" y="46"/>
			<point x="518" y="172" type="curve"/>
			<point x="407" y="172" type="line"/>
			<point x="396" y="105"/>
			<point x="346" y="66"/>
			<point x="282" y="66" type="curve" smooth="yes"/>
			<point x="210" y="66"/>
			<point x="152" y="108"/>
			<point x="143" y="235" type="curve"/>
			<point x="524" y="235" type="line"/>
			<point x="526" y="254"/>
			<point x="526" y="269"/>
		</contour>
		<contour>
			<point x="402" y="371" type="curve"/>
			<point x="403" y="371" type="line"/>
			<point x="429" y="264"/>
			<point x="507" y="212"/>
			<point x="620" y="212" type="curve" smooth="yes"/>
			<point x="736" y="212"/>
			<point x="827" y="263"/>
			<point x="827" y="366" type="curve" smooth="yes"/>
			<point x="827" y="460"/>
			<point x="766" y="506"/>
			<point x="650" y="536" type="curve" smooth="yes"/>
			<point x="571" y="557"/>
			<point x="532" y="577"/>
			<point x="532" y="625" type="curve" smooth="yes"/>
			<point x="532" y="665"/>
			<point x="557" y="694"/>
			<point x="609" y="694" type="curve" smooth="yes"/>
			<point x="663" y="694"/>
			<point x="696" y="661"/>
			<point x="707" y="605" type="curve"/>
			<point x="819" y="605" type="line"/>
			<point x="807" y="702"/>
			<point x="739" y="771"/>
			<point x="617" y="771" type="curve" smooth="yes"/>
			<point x="499" y="771"/>
			<point x="421" y="711"/>
			<point x="421" y="612" type="curve" smooth="yes"/>
			<point x="421" y="519"/>
			<point x="493" y="478"/>
			<point x="590" y="453" type="curve" smooth="yes"/>
			<point x="680" y="429"/>
			<point x="716" y="404"/>
			<point x="716" y="358" type="curve" smooth="yes"/>
			<point x="716" y="312"/>
			<point x="675" y="290"/>
			<point x="624" y="290" type="curve" smooth="yes"/>
			<point x="569" y="290"/>
			<point x="530" y="329"/>
			<point x="508" y="391" type="curve"/>
			<point x="400" y="385" type="line"/>
			<point x="401" y="380"/>
			<point x="402" y="376"/>
			<point x="403" y="371" type="curve"/>
			<point x="402" y="371" type="line"/>
			<point x="408" y="354"/>
			<point x="411" y="334"/>
			<point x="413" y="312" type="curve"/>
			<point x="144" y="312" type="line"/>
			<point x="156" y="414"/>
			<point x="210" y="465"/>
			<point x="285" y="465" type="curve" smooth="yes"/>
			<point x="345" y="465"/>
			<point x="384" y="432"/>
		</contour>
	</outline>
</glyph>
<glyph name="uF2030" format="2">
	<advance width="1385"/>
	<unicode hex="F2030"/>
	<outline>
		<contour>
			<point x="205" y="389" type="line"/>
			<point x="205" y="603" type="line"/>
			<point x="561" y="603" type="line"/>
			<point x="561" y="0" type="line"/>
			<point x="671" y="0" type="line"/>
			<point x="671" y="302" type="line"/>
			<point x="880" y="302" type="line"/>
			<point x="880" y="0" type="line"/>
			<point x="1357" y="0" type="line"/>
			<point x="1357" y="88" type="line"/>
			<point x="990" y="88" type="line"/>
			<point x="990" y="302" type="line"/>
			<point x="1319" y="302" type="line"/>
			<point x="1319" y="389" type="line"/>
			<point x="990" y="389" type="line"/>
			<point x="990" y="603" type="line"/>
			<point x="1347" y="603" type="line"/>
			<point x="1347" y="690" type="line"/>
			<point x="95" y="690" type="line"/>
			<point x="95" y="0" type="line"/>
			<point x="205" y="0" type="line"/>
			<point x="205" y="302" type="line"/>
			<point x="524" y="302" type="line"/>
			<point x="524" y="389" type="line"/>
		</contour>
		<contour>
			<point x="671" y="389" type="line"/>
			<point x="671" y="603" type="line"/>
			<point x="880" y="603" type="line"/>
			<point x="880" y="389" type="line"/>
		</contour>
	</outline>
</glyph>
<glyph name="uF2130" format="2">
	<advance width="884"/>
	<unicode hex="F2130"/>
	<outline>
		<contour>
			<point x="190" y="618" type="curve" smooth="yes"/>
			<point x="196" y="662"/>
			<point x="240" y="678"/>
			<point x="305" y="666" type="curve"/>
			<point x="305" y="748" type="line"/>
			<point x="287" y="752"/>
			<point x="266" y="754"/>
			<point x="244" y="754" type="curve" smooth="yes"/>
			<point x="144" y="754"/>
			<point x="89" y="706"/>
			<point x="80" y="624" type="curve" smooth="yes"/>
			<point x="78" y="606"/>
			<point x="78" y="580"/>
			<point x="78" y="561" type="curve" smooth="yes"/>
			<point x="78" y="527" type="line"/>
			<point x="21" y="527" type="line"/>
			<point x="21" y="450" type="line"/>
			<point x="78" y="450" type="line"/>
			<point x="78" y="0" type="line"/>
			<point x="187" y="0" type="line"/>
			<point x="187" y="450" type="line"/>
			<point x="349" y="450" type="line"/>
			<point x="349" y="0" type="line"/>
			<point x="458" y="0" type="line"/>
			<point x="458" y="219" type="line"/>
			<point x="465" y="217" type="line"/>
			<point x="846" y="217" type="line"/>
			<point x="848" y="236"/>
			<point x="848" y="251"/>
			<point x="848" y="261" type="curve" smooth="yes"/>
			<point x="848" y="411"/>
			<point x="765" y="527"/>
			<point x="611" y="527" type="curve" smooth="yes"/>
			<point x="458" y="527" type="line"/>
			<point x="458" y="567" type="line" smooth="yes"/>
			<point x="458" y="582"/>
			<point x="459" y="604"/>
			<point x="461" y="618" type="curve" smooth="yes"/>
			<point x="467" y="662"/>
			<point x="511" y="678"/>
			<point x="576" y="666" type="curve"/>
			<point x="576" y="748" type="line"/>
			<point x="558" y="752"/>
			<point x="537" y="754"/>
			<point x="515" y="754" type="curve" smooth="yes"/>
			<point x="415" y="754"/>
			<point x="360" y="706"/>
			<point x="351" y="624" type="curve" smooth="yes"/>
			<point x="349" y="606"/>
			<point x="349" y="580"/>
			<point x="349" y="561" type="curve" smooth="yes"/>
			<point x="349" y="527" type="line"/>
			<point x="187" y="527" type="line"/>
			<point x="187" y="567" type="line" smooth="yes"/>
			<point x="187" y="582"/>
			<point x="188" y="604"/>
		</contour>
		<contour>
			<point x="466" y="294" type="line"/>
			<point x="478" y="396"/>
			<point x="532" y="447"/>
			<point x="607" y="447" type="curve" smooth="yes"/>
			<point x="684" y="447"/>
			<point x="727" y="392"/>
			<point x="735" y="294" type="curve"/>
		</contour>
	</outline>
</glyph>
<glyph name="uF2150" format="2">
	<advance width="577"/>
	<unicode hex="F2150"/>
	<outline>
		<contour>
			<point x="190" y="618" type="curve" smooth="yes"/>
			<point x="196" y="662"/>
			<point x="240" y="678"/>
			<point x="305" y="666" type="curve"/>
			<point x="305" y="748" type="line"/>
			<point x="287" y="752"/>
			<point x="266" y="754"/>
			<point x="244" y="754" type="curve" smooth="yes"/>
			<point x="144" y="754"/>
			<point x="89" y="706"/>
			<point x="80" y="624" type="curve" smooth="yes"/>
			<point x="78" y="606"/>
			<point x="78" y="580"/>
			<point x="78" y="561" type="curve" smooth="yes"/>
			<point x="78" y="527" type="line"/>
			<point x="21" y="527" type="line"/>
			<point x="21" y="450" type="line"/>
			<point x="78" y="450" type="line"/>
			<point x="243" y="0" type="line"/>
			<point x="371" y="0" type="line"/>
			<point x="574" y="531" type="line"/>
			<point x="457" y="531" type="line"/>
			<point x="310" y="81" type="line"/>
			<point x="187" y="450" type="line"/>
			<point x="296" y="450" type="line"/>
			<point x="296" y="527" type="line"/>
			<point x="187" y="527" type="line"/>
			<point x="187" y="567" type="line" smooth="yes"/>
			<point x="187" y="582"/>
			<point x="188" y="604"/>
		</contour>
	</outline>
</glyph>
<glyph name="uF3250" format="2">
	<advance width="1071"/>
	<unicode hex="F3250"/>
	<outline>
		<contour>
			<point x="1009" y="49" type="curve" smooth="yes"/>
			<point x="1009" y="472" type="line"/>
			<point x="900" y="472" type="line"/>
			<point x="900" y="47" type="line" smooth="yes"/>
			<point x="900" y="26"/>
			<point x="900" y="7"/>
			<point x="898" y="-9" type="curve" smooth="yes"/>
			<point x="891" y="-92"/>
			<point x="838" y="-148"/>
			<point x="738" y="-148" type="curve" smooth="yes"/>
			<point x="639" y="-148"/>
			<point x="586" y="-92"/>
			<point x="579" y="-9" type="curve" smooth="yes"/>
			<point x="577" y="7"/>
			<point x="577" y="26"/>
			<point x="577" y="47" type="curve" smooth="yes"/>
			<point x="577" y="279" type="line"/>
			<point x="468" y="279" type="line"/>
			<point x="468" y="91" type="line"/>
			<point x="205" y="91" type="line"/>
			<point x="205" y="690" type="line"/>
			<point x="95" y="690" type="line"/>
			<point x="95" y="0" type="line"/>
			<point x="469" y="0" type="line"/>
			<point x="469" y="-7"/>
			<point x="469" y="-14"/>
			<point x="470" y="-22" type="curve" smooth="yes"/>
			<point x="479" y="-137"/>
			<point x="558" y="-232"/>
			<point x="738" y="-232" type="curve" smooth="yes"/>
			<point x="918" y="-232"/>
			<point x="997" y="-137"/>
			<point x="1007" y="-22" type="curve" smooth="yes"/>
			<point x="1009" y="4"/>
			<point x="1009" y="24"/>
		</contour>
	</outline>
</glyph>
<glyph name="uF3310" format="2">
	<advance width="598"/>
	<unicode hex="F3310"/>
	<outline>
		<contour>
			<point x="175" y="162" type="curve" smooth="yes"/>
			<point x="175" y="233" type="line"/>
			<point x="560" y="235" type="line"/>
			<point x="562" y="254"/>
			<point x="562" y="269"/>
			<point x="562" y="279" type="curve" smooth="yes"/>
			<point x="562" y="429"/>
			<point x="479" y="545"/>
			<point x="325" y="545" type="curve" smooth="yes"/>
			<point x="267" y="545"/>
			<point x="216" y="529"/>
			<point x="175" y="500" type="curve"/>
			<point x="175" y="735" type="line"/>
			<point x="65" y="735" type="line"/>
			<point x="65" y="159" type="line" smooth="yes"/>
			<point x="65" y="127"/>
			<point x="65" y="103"/>
			<point x="66" y="83" type="curve" smooth="yes"/>
			<point x="70" y="15"/>
			<point x="109" y="-6"/>
			<point x="167" y="-6" type="curve" smooth="yes"/>
			<point x="192" y="-6"/>
			<point x="217" y="-4"/>
			<point x="239" y="-1" type="curve"/>
			<point x="239" y="76" type="line"/>
			<point x="192" y="72"/>
			<point x="178" y="82"/>
			<point x="176" y="112" type="curve" smooth="yes"/>
			<point x="175" y="128"/>
			<point x="175" y="144"/>
		</contour>
		<contour>
			<point x="180" y="312" type="line"/>
			<point x="192" y="414"/>
			<point x="246" y="465"/>
			<point x="321" y="465" type="curve" smooth="yes"/>
			<point x="398" y="465"/>
			<point x="441" y="410"/>
			<point x="449" y="312" type="curve"/>
		</contour>
	</outline>
</glyph>
<glyph name="uF3330" format="2">
	<advance width="860"/>
	<unicode hex="F3330"/>
	<outline>
		<contour>
			<point x="175" y="162" type="curve" smooth="yes"/>
			<point x="175" y="735" type="line"/>
			<point x="65" y="735" type="line"/>
			<point x="65" y="159" type="line" smooth="yes"/>
			<point x="65" y="127"/>
			<point x="65" y="103"/>
			<point x="66" y="83" type="curve" smooth="yes"/>
			<point x="70" y="15"/>
			<point x="109" y="-6"/>
			<point x="167" y="-6" type="curve" smooth="yes"/>
			<point x="192" y="-6"/>
			<point x="217" y="-4"/>
			<point x="239" y="-1" type="curve"/>
			<point x="239" y="76" type="line"/>
			<point x="192" y="72"/>
			<point x="178" y="82"/>
			<point x="176" y="112" type="curve" smooth="yes"/>
			<point x="175" y="128"/>
			<point x="175" y="144"/>
		</contour>
		<contour>
			<point x="437" y="162" type="curve" smooth="yes"/>
			<point x="437" y="233" type="line"/>
			<point x="822" y="235" type="line"/>
			<point x="824" y="254"/>
			<point x="824" y="269"/>
			<point x="824" y="279" type="curve" smooth="yes"/>
			<point x="824" y="429"/>
			<point x="741" y="545"/>
			<point x="587" y="545" type="curve" smooth="yes"/>
			<point x="529" y="545"/>
			<point x="478" y="529"/>
			<point x="437" y="500" type="curve"/>
			<point x="437" y="735" type="line"/>
			<point x="327" y="735" type="line"/>
			<point x="327" y="159" type="line" smooth="yes"/>
			<point x="327" y="127"/>
			<point x="327" y="103"/>
			<point x="328" y="83" type="curve" smooth="yes"/>
			<point x="332" y="15"/>
			<point x="371" y="-6"/>
			<point x="429" y="-6" type="curve" smooth="yes"/>
			<point x="454" y="-6"/>
			<point x="479" y="-4"/>
			<point x="501" y="-1" type="curve"/>
			<point x="501" y="76" type="line"/>
			<point x="454" y="72"/>
			<point x="440" y="82"/>
			<point x="438" y="112" type="curve" smooth="yes"/>
			<point x="437" y="128"/>
			<point x="437" y="144"/>
		</contour>
		<contour>
			<point x="442" y="312" type="line"/>
			<point x="454" y="414"/>
			<point x="508" y="465"/>
			<point x="583" y="465" type="curve" smooth="yes"/>
			<point x="660" y="465"/>
			<point x="703" y="410"/>
			<point x="711" y="312" type="curve"/>
		</contour>
	</outline>
</glyph>
<glyph name="uF3410" format="2">
	<advance width="1216"/>
	<unicode hex="F3410"/>
	<outline>
		<contour>
			<point x="699" y="0" type="line"/>
			<point x="811" y="0" type="line"/>
			<point x="811" y="272" type="line"/>
			<point x="927" y="272" type="line" smooth="yes"/>
			<point x="964" y="272"/>
			<point x="989" y="272"/>
			<point x="1021" y="276" type="curve" smooth="yes"/>
			<point x="1121" y="289"/>
			<point x="1203" y="359"/>
			<point x="1203" y="481" type="curve" smooth="yes"/>
			<point x="1203" y="603"/>
			<point x="1129" y="672"/>
			<point x="1021" y="686" type="curve" smooth="yes"/>
			<point x="989" y="690"/>
			<point x="964" y="690"/>
			<point x="927" y="690" type="curve" smooth="yes"/>
			<point x="636" y="690" type="line"/>
			<point x="454" y="98" type="line"/>
			<point x="272" y="690" type="line"/>
			<point x="95" y="690" type="line"/>
			<point x="95" y="0" type="line"/>
			<point x="205" y="0" type="line"/>
			<point x="205" y="339" type="line" smooth="yes"/>
			<point x="205" y="418"/>
			<point x="205" y="511"/>
			<point x="203" y="585" type="curve"/>
			<point x="222" y="512"/>
			<point x="251" y="418"/>
			<point x="276" y="341" type="curve" smooth="yes"/>
			<point x="388" y="0" type="line"/>
			<point x="515" y="0" type="line"/>
			<point x="626" y="340" type="line" smooth="yes"/>
			<point x="652" y="418"/>
			<point x="681" y="513"/>
			<point x="701" y="586" type="curve"/>
			<point x="699" y="513"/>
			<point x="699" y="418"/>
			<point x="699" y="339" type="curve" smooth="yes"/>
		</contour>
		<contour>
			<point x="811" y="361" type="line"/>
			<point x="811" y="601" type="line"/>
			<point x="930" y="601" type="line" smooth="yes"/>
			<point x="958" y="601"/>
			<point x="982" y="600"/>
			<point x="1000" y="597" type="curve" smooth="yes"/>
			<point x="1048" y="588"/>
			<point x="1087" y="554"/>
			<point x="1087" y="481" type="curve" smooth="yes"/>
			<point x="1087" y="408"/>
			<point x="1048" y="374"/>
			<point x="1000" y="365" type="curve" smooth="yes"/>
			<point x="982" y="362"/>
			<point x="958" y="361"/>
			<point x="930" y="361" type="curve" smooth="yes"/>
		</contour>
	</outline>
</glyph>
<glyph name="uF3620" format="2">
	<advance width="1064"/>
	<unicode hex="F3620"/>
	<outline>
		<contour>
			<point x="507" y="0" type="line"/>
			<point x="1036" y="0" type="line"/>
			<point x="1036" y="88" type="line"/>
			<point x="669" y="88" type="line"/>
			<point x="669" y="302" type="line"/>
			<point x="998" y="302" type="line"/>
			<point x="998" y="389" type="line"/>
			<point x="669" y="389" type="line"/>
			<point x="669" y="603" type="line"/>
			<point x="1026" y="603" type="line"/>
			<point x="1026" y="690" type="line"/>
			<point x="556" y="690" type="line"/>
			<point x="556" y="358" type="line" smooth="yes"/>
			<point x="556" y="287"/>
			<point x="557" y="195"/>
			<point x="559" y="117" type="curve"/>
			<point x="250" y="690" type="line"/>
			<point x="95" y="690" type="line"/>
			<point x="95" y="0" type="line"/>
			<point x="205" y="0" type="line"/>
			<point x="205" y="330" type="line" smooth="yes"/>
			<point x="205" y="401"/>
			<point x="204" y="490"/>
			<point x="201" y="569" type="curve"/>
		</contour>
	</outline>
</glyph>
<glyph name="uF3720" format="2">
	<advance width="964"/>
	<unicode hex="F3720"/>
	<outline>
		<contour>
			<point x="928" y="279" type="curve" smooth="yes"/>
			<point x="928" y="429"/>
			<point x="845" y="545"/>
			<point x="691" y="545" type="curve" smooth="yes"/>
			<point x="618" y="545"/>
			<point x="555" y="519"/>
			<point x="510" y="474" type="curve"/>
			<point x="479" y="519"/>
			<point x="425" y="545"/>
			<point x="349" y="545" type="curve" smooth="yes"/>
			<point x="296" y="545"/>
			<point x="257" y="536"/>
			<point x="215" y="504" type="curve"/>
			<point x="179" y="443" type="line"/>
			<point x="179" y="531" type="line"/>
			<point x="69" y="531" type="line"/>
			<point x="69" y="0" type="line"/>
			<point x="179" y="0" type="line"/>
			<point x="179" y="238" type="line" smooth="yes"/>
			<point x="179" y="404"/>
			<point x="241" y="464"/>
			<point x="317" y="464" type="curve" smooth="yes"/>
			<point x="392" y="464"/>
			<point x="424" y="422"/>
			<point x="429" y="362" type="curve" smooth="yes"/>
			<point x="431" y="335"/>
			<point x="431" y="312"/>
			<point x="431" y="287" type="curve" smooth="yes"/>
			<point x="431" y="0" type="line"/>
			<point x="541" y="0" type="line"/>
			<point x="541" y="235" type="line"/>
			<point x="926" y="235" type="line"/>
			<point x="928" y="254"/>
			<point x="928" y="269"/>
		</contour>
		<contour>
			<point x="546" y="312" type="line"/>
			<point x="558" y="414"/>
			<point x="612" y="465"/>
			<point x="687" y="465" type="curve" smooth="yes"/>
			<point x="764" y="465"/>
			<point x="807" y="410"/>
			<point x="815" y="312" type="curve"/>
		</contour>
	</outline>
</glyph>
<glyph name="uF3750" format="2">
	<advance width="1326"/>
	<unicode hex="F3750"/>
	<outline>
		<contour>
			<point x="1290" y="514" type="curve" smooth="yes"/>
			<point x="1290" y="664"/>
			<point x="1207" y="780"/>
			<point x="1053" y="780" type="curve" smooth="yes"/>
			<point x="981" y="780"/>
			<point x="918" y="755"/>
			<point x="873" y="710" type="curve"/>
			<point x="843" y="756"/>
			<point x="788" y="783"/>
			<point x="711" y="783" type="curve" smooth="yes"/>
			<point x="658" y="783"/>
			<point x="619" y="774"/>
			<point x="577" y="742" type="curve"/>
			<point x="541" y="681" type="line"/>
			<point x="541" y="769" type="line"/>
			<point x="431" y="769" type="line"/>
			<point x="431" y="532" type="line"/>
			<point x="407" y="541"/>
			<point x="380" y="545"/>
			<point x="349" y="545" type="curve" smooth="yes"/>
			<point x="296" y="545"/>
			<point x="257" y="536"/>
			<point x="215" y="504" type="curve"/>
			<point x="179" y="443" type="line"/>
			<point x="179" y="531" type="line"/>
			<point x="69" y="531" type="line"/>
			<point x="69" y="0" type="line"/>
			<point x="179" y="0" type="line"/>
			<point x="179" y="238" type="line" smooth="yes"/>
			<point x="179" y="404"/>
			<point x="241" y="464"/>
			<point x="317" y="464" type="curve" smooth="yes"/>
			<point x="392" y="464"/>
			<point x="424" y="422"/>
			<point x="429" y="362" type="curve" smooth="yes"/>
			<point x="431" y="335"/>
			<point x="431" y="312"/>
			<point x="431" y="287" type="curve" smooth="yes"/>
			<point x="431" y="0" type="line"/>
			<point x="541" y="0" type="line"/>
			<point x="541" y="476" type="line" smooth="yes"/>
			<point x="541" y="642"/>
			<point x="603" y="702"/>
			<point x="679" y="702" type="curve" smooth="yes"/>
			<point x="754" y="702"/>
			<point x="786" y="660"/>
			<point x="791" y="600" type="curve" smooth="yes"/>
			<point x="793" y="573"/>
			<point x="793" y="525"/>
			<point x="793" y="525" type="curve"/>
			<point x="793" y="518" type="line"/>
			<point x="793" y="499" type="line" smooth="yes"/>
			<point x="793" y="311"/>
			<point x="900" y="221"/>
			<point x="1042" y="221" type="curve"/>
			<point x="1042" y="301" type="line"/>
			<point x="970" y="301"/>
			<point x="916" y="343"/>
			<point x="907" y="470" type="curve"/>
			<point x="1288" y="470" type="line"/>
			<point x="1290" y="489"/>
			<point x="1290" y="504"/>
		</contour>
		<contour>
			<point x="908" y="547" type="line"/>
			<point x="920" y="649"/>
			<point x="974" y="700"/>
			<point x="1049" y="700" type="curve" smooth="yes"/>
			<point x="1126" y="700"/>
			<point x="1169" y="645"/>
			<point x="1177" y="547" type="curve"/>
		</contour>
	</outline>
</glyph>
<glyph name="uF3850" format="2">
	<advance width="1462"/>
	<unicode hex="F3850"/>
	<outline>
		<contour>
			<point x="382" y="704" type="curve" smooth="yes"/>
			<point x="170" y="704"/>
			<point x="49" y="559"/>
			<point x="49" y="345" type="curve" smooth="yes"/>
			<point x="49" y="132"/>
			<point x="170" y="-14"/>
			<point x="382" y="-14" type="curve" smooth="yes"/>
			<point x="593" y="-14"/>
			<point x="714" y="132"/>
			<point x="714" y="345" type="curve" smooth="yes"/>
			<point x="714" y="451"/>
			<point x="684" y="540"/>
			<point x="629" y="603" type="curve"/>
			<point x="714" y="603" type="line"/>
			<point x="714" y="0" type="line"/>
			<point x="823" y="0" type="line"/>
			<point x="823" y="603" type="line"/>
			<point x="957" y="603" type="line"/>
			<point x="957" y="0" type="line"/>
			<point x="1434" y="0" type="line"/>
			<point x="1434" y="88" type="line"/>
			<point x="1067" y="88" type="line"/>
			<point x="1067" y="302" type="line"/>
			<point x="1396" y="302" type="line"/>
			<point x="1396" y="389" type="line"/>
			<point x="1067" y="389" type="line"/>
			<point x="1067" y="603" type="line"/>
			<point x="1424" y="603" type="line"/>
			<point x="1424" y="690" type="line"/>
			<point x="488" y="690" type="line"/>
			<point x="456" y="699"/>
			<point x="420" y="704"/>
		</contour>
		<contour>
			<point x="167" y="345" type="curve" smooth="yes"/>
			<point x="167" y="517"/>
			<point x="247" y="620"/>
			<point x="382" y="620" type="curve" smooth="yes"/>
			<point x="516" y="620"/>
			<point x="596" y="517"/>
			<point x="596" y="345" type="curve" smooth="yes"/>
			<point x="596" y="174"/>
			<point x="516" y="70"/>
			<point x="382" y="70" type="curve" smooth="yes"/>
			<point x="247" y="70"/>
			<point x="167" y="174"/>
		</contour>
	</outline>
</glyph>
<glyph name="uF3910" format="2">
	<advance width="692"/>
	<unicode hex="F3910"/>
	<outline>
		<contour>
			<point x="298" y="545" type="curve" smooth="yes"/>
			<point x="119" y="545"/>
			<point x="29" y="421"/>
			<point x="29" y="266" type="curve" smooth="yes"/>
			<point x="29" y="111"/>
			<point x="119" y="-14"/>
			<point x="298" y="-14" type="curve" smooth="yes"/>
			<point x="476" y="-14"/>
			<point x="567" y="111"/>
			<point x="567" y="266" type="curve" smooth="yes"/>
			<point x="567" y="450" type="line"/>
			<point x="676" y="450" type="line"/>
			<point x="676" y="527" type="line"/>
			<point x="567" y="527" type="line"/>
			<point x="567" y="567" type="line" smooth="yes"/>
			<point x="567" y="582"/>
			<point x="568" y="604"/>
			<point x="570" y="618" type="curve" smooth="yes"/>
			<point x="576" y="662"/>
			<point x="620" y="678"/>
			<point x="685" y="666" type="curve"/>
			<point x="685" y="748" type="line"/>
			<point x="667" y="752"/>
			<point x="646" y="754"/>
			<point x="624" y="754" type="curve" smooth="yes"/>
			<point x="524" y="754"/>
			<point x="469" y="706"/>
			<point x="460" y="624" type="curve" smooth="yes"/>
			<point x="458" y="606"/>
			<point x="458" y="580"/>
			<point x="458" y="561" type="curve" smooth="yes"/>
			<point x="458" y="527" type="line"/>
			<point x="406" y="527" type="line"/>
			<point x="374" y="539"/>
			<point x="338" y="545"/>
		</contour>
		<contour>
			<point x="145" y="266" type="curve" smooth="yes"/>
			<point x="145" y="386"/>
			<point x="201" y="465"/>
			<point x="298" y="465" type="curve" smooth="yes"/>
			<point x="394" y="465"/>
			<point x="450" y="386"/>
			<point x="450" y="266" type="curve" smooth="yes"/>
			<point x="450" y="146"/>
			<point x="394" y="66"/>
			<point x="298" y="66" type="curve" smooth="yes"/>
			<point x="201" y="66"/>
			<point x="145" y="146"/>
		</contour>
	</outline>
</glyph>
<glyph name="uF3970" format="2">
	<advance width="640"/>
	<unicode hex="F3970"/>
	<outline>
		<contour>
			<point x="298" y="545" type="curve" smooth="yes"/>
			<point x="119" y="545"/>
			<point x="29" y="421"/>
			<point x="29" y="266" type="curve" smooth="yes"/>
			<point x="29" y="111"/>
			<point x="119" y="-14"/>
			<point x="298" y="-14" type="curve" smooth="yes"/>
			<point x="476" y="-14"/>
			<point x="567" y="111"/>
			<point x="567" y="266" type="curve" smooth="yes"/>
			<point x="568" y="531" type="line"/>
			<point x="458" y="531" type="line"/>
			<point x="458" y="500" type="line"/>
			<point x="416" y="528"/>
			<point x="363" y="545"/>
		</contour>
		<contour>
			<point x="145" y="266" type="curve" smooth="yes"/>
			<point x="145" y="386"/>
			<point x="201" y="465"/>
			<point x="298" y="465" type="curve" smooth="yes"/>
			<point x="394" y="465"/>
			<point x="450" y="386"/>
			<point x="450" y="266" type="curve" smooth="yes"/>
			<point x="450" y="146"/>
			<point x="394" y="66"/>
			<point x="298" y="66" type="curve" smooth="yes"/>
			<point x="201" y="66"/>
			<point x="145" y="146"/>
		</contour>
		<contour>
			<point x="383" y="582" type="line"/>
			<point x="491" y="582" type="line"/>
			<point x="491" y="688" type="line"/>
			<point x="383" y="688" type="line"/>
		</contour>
		<contour>
			<point x="538" y="582" type="line"/>
			<point x="646" y="582" type="line"/>
			<point x="646" y="688" type="line"/>
			<point x="538" y="688" type="line"/>
		</contour>
	</outline>
</glyph>
<glyph name="uF4010" format="2">
	<advance width="1141"/>
	<unicode hex="F4010"/>
	<outline>
		<contour>
			<point x="415" y="686" type="curve" smooth="yes"/>
			<point x="394" y="689"/>
			<point x="376" y="690"/>
			<point x="356" y="690" type="curve"/>
			<point x="321" y="690" type="line"/>
			<point x="95" y="690" type="line"/>
			<point x="95" y="0" type="line"/>
			<point x="205" y="0" type="line"/>
			<point x="205" y="272" type="line"/>
			<point x="321" y="272" type="line" smooth="yes"/>
			<point x="358" y="272"/>
			<point x="383" y="272"/>
			<point x="415" y="276" type="curve" smooth="yes"/>
			<point x="463" y="282"/>
			<point x="507" y="302"/>
			<point x="539" y="334" type="curve"/>
			<point x="649" y="0" type="line"/>
			<point x="776" y="0" type="line"/>
			<point x="887" y="340" type="line" smooth="yes"/>
			<point x="913" y="418"/>
			<point x="942" y="513"/>
			<point x="962" y="586" type="curve"/>
			<point x="960" y="513"/>
			<point x="960" y="418"/>
			<point x="960" y="339" type="curve" smooth="yes"/>
			<point x="960" y="0" type="line"/>
			<point x="1069" y="0" type="line"/>
			<point x="1069" y="690" type="line"/>
			<point x="897" y="690" type="line"/>
			<point x="715" y="98" type="line"/>
			<point x="597" y="481" type="line"/>
			<point x="597" y="603"/>
			<point x="523" y="672"/>
		</contour>
		<contour>
			<point x="205" y="361" type="line"/>
			<point x="205" y="601" type="line"/>
			<point x="324" y="601" type="line" smooth="yes"/>
			<point x="352" y="601"/>
			<point x="376" y="600"/>
			<point x="394" y="597" type="curve" smooth="yes"/>
			<point x="442" y="588"/>
			<point x="481" y="554"/>
			<point x="481" y="481" type="curve" smooth="yes"/>
			<point x="481" y="408"/>
			<point x="442" y="374"/>
			<point x="394" y="365" type="curve" smooth="yes"/>
			<point x="376" y="362"/>
			<point x="352" y="361"/>
			<point x="324" y="361" type="curve" smooth="yes"/>
		</contour>
	</outline>
</glyph>
<glyph name="uF4410" format="2">
	<advance width="912"/>
	<unicode hex="F4410"/>
	<outline>
		<contour>
			<point x="570" y="178" type="curve" smooth="yes"/>
			<point x="565" y="227"/>
			<point x="552" y="271"/>
			<point x="524" y="302" type="curve"/>
			<point x="846" y="302" type="line"/>
			<point x="846" y="389" type="line"/>
			<point x="562" y="389" type="line"/>
			<point x="587" y="417"/>
			<point x="603" y="454"/>
			<point x="603" y="502" type="curve" smooth="yes"/>
			<point x="603" y="543"/>
			<point x="594" y="577"/>
			<point x="578" y="603" type="curve"/>
			<point x="874" y="603" type="line"/>
			<point x="874" y="690" type="line"/>
			<point x="95" y="690" type="line"/>
			<point x="95" y="0" type="line"/>
			<point x="205" y="0" type="line"/>
			<point x="205" y="288" type="line"/>
			<point x="312" y="288" type="line" smooth="yes"/>
			<point x="329" y="288"/>
			<point x="346" y="288"/>
			<point x="363" y="287" type="curve" smooth="yes"/>
			<point x="426" y="283"/>
			<point x="453" y="237"/>
			<point x="462" y="164" type="curve" smooth="yes"/>
			<point x="470" y="88"/>
			<point x="479" y="45"/>
			<point x="497" y="0" type="curve"/>
			<point x="884" y="0" type="line"/>
			<point x="884" y="88" type="line"/>
			<point x="582" y="88" type="line"/>
			<point x="577" y="113"/>
			<point x="573" y="143"/>
		</contour>
		<contour>
			<point x="205" y="373" type="line"/>
			<point x="205" y="603" type="line"/>
			<point x="327" y="603" type="line" smooth="yes"/>
			<point x="355" y="603"/>
			<point x="373" y="602"/>
			<point x="391" y="599" type="curve" smooth="yes"/>
			<point x="450" y="591"/>
			<point x="487" y="561"/>
			<point x="487" y="488" type="curve" smooth="yes"/>
			<point x="487" y="415"/>
			<point x="442" y="381"/>
			<point x="382" y="375" type="curve" smooth="yes"/>
			<point x="365" y="373"/>
			<point x="348" y="373"/>
			<point x="320" y="373" type="curve" smooth="yes"/>
		</contour>
	</outline>
</glyph>
<glyph name="uF4490" format="2">
	<advance width="1779"/>
	<unicode hex="F4490"/>
	<outline>
		<contour>
			<point x="570" y="178" type="curve" smooth="yes"/>
			<point x="563" y="250"/>
			<point x="537" y="310"/>
			<point x="475" y="337" type="curve"/>
			<point x="548" y="359"/>
			<point x="603" y="412"/>
			<point x="603" y="502" type="curve" smooth="yes"/>
			<point x="603" y="620"/>
			<point x="528" y="673"/>
			<point x="428" y="686" type="curve" smooth="yes"/>
			<point x="395" y="690"/>
			<point x="370" y="690"/>
			<point x="333" y="690" type="curve" smooth="yes"/>
			<point x="95" y="690" type="line"/>
			<point x="95" y="0" type="line"/>
			<point x="205" y="0" type="line"/>
			<point x="205" y="288" type="line"/>
			<point x="312" y="288" type="line" smooth="yes"/>
			<point x="329" y="288"/>
			<point x="346" y="288"/>
			<point x="363" y="287" type="curve" smooth="yes"/>
			<point x="426" y="283"/>
			<point x="453" y="237"/>
			<point x="462" y="164" type="curve" smooth="yes"/>
			<point x="470" y="88"/>
			<point x="479" y="45"/>
			<point x="497" y="0" type="curve"/>
			<point x="618" y="0" type="line"/>
			<point x="590" y="38"/>
			<point x="578" y="91"/>
		</contour>
		<contour>
			<point x="205" y="373" type="line"/>
			<point x="205" y="603" type="line"/>
			<point x="327" y="603" type="line" smooth="yes"/>
			<point x="355" y="603"/>
			<point x="373" y="602"/>
			<point x="391" y="599" type="curve" smooth="yes"/>
			<point x="450" y="591"/>
			<point x="487" y="561"/>
			<point x="487" y="488" type="curve" smooth="yes"/>
			<point x="487" y="415"/>
			<point x="442" y="381"/>
			<point x="382" y="375" type="curve" smooth="yes"/>
			<point x="365" y="373"/>
			<point x="348" y="373"/>
			<point x="320" y="373" type="curve" smooth="yes"/>
		</contour>
		<contour>
			<point x="660" y="661" type="line"/>
			<point x="770" y="661" type="line"/>
			<point x="770" y="770" type="line"/>
			<point x="660" y="770" type="line"/>
		</contour>
		<contour>
			<point x="774" y="342" type="curve" smooth="yes"/>
			<point x="774" y="132"/>
			<point x="895" y="-14"/>
			<point x="1092" y="-14" type="curve" smooth="yes"/>
			<point x="1235" y="-14"/>
			<point x="1328" y="51"/>
			<point x="1367" y="145" type="curve"/>
			<point x="1744" y="145" type="line"/>
			<point x="1744" y="234" type="line"/>
			<point x="1388" y="234" type="line"/>
			<point x="1279" y="234" type="line"/>
			<point x="1277" y="224" type="line" smooth="yes"/>
			<point x="1258" y="131"/>
			<point x="1201" y="70"/>
			<point x="1097" y="70" type="curve" smooth="yes"/>
			<point x="975" y="70"/>
			<point x="893" y="176"/>
			<point x="893" y="347" type="curve" smooth="yes"/>
			<point x="893" y="510"/>
			<point x="974" y="620"/>
			<point x="1102" y="620" type="curve" smooth="yes"/>
			<point x="1206" y="620"/>
			<point x="1263" y="561"/>
			<point x="1282" y="468" type="curve" smooth="yes"/>
			<point x="1284" y="458" type="line"/>
			<point x="1723" y="458" type="line"/>
			<point x="1723" y="545" type="line"/>
			<point x="1394" y="545" type="line"/>
			<point x="1394" y="759" type="line"/>
			<point x="1751" y="759" type="line"/>
			<point x="1751" y="846" type="line"/>
			<point x="1284" y="846" type="line"/>
			<point x="1284" y="657" type="line"/>
			<point x="1239" y="687"/>
			<point x="1179" y="704"/>
			<point x="1104" y="704" type="curve" smooth="yes"/>
			<point x="910" y="704"/>
			<point x="774" y="559"/>
		</contour>
	</outline>
</glyph>
<glyph name="uF4590" format="2">
	<advance width="1320"/>
	<unicode hex="F4590"/>
	<outline>
		<contour>
			<point x="306" y="544" type="curve" smooth="yes"/>
			<point x="279" y="544"/>
			<point x="248" y="533"/>
			<point x="224" y="514" type="curve"/>
			<point x="179" y="441" type="line"/>
			<point x="179" y="531" type="line"/>
			<point x="69" y="531" type="line"/>
			<point x="69" y="0" type="line"/>
			<point x="179" y="0" type="line"/>
			<point x="179" y="276" type="line" smooth="yes"/>
			<point x="179" y="407"/>
			<point x="242" y="459"/>
			<point x="343" y="452" type="curve"/>
			<point x="343" y="538" type="line"/>
			<point x="332" y="542"/>
			<point x="321" y="544"/>
		</contour>
		<contour>
			<point x="369" y="716" type="line"/>
			<point x="369" y="589" type="line"/>
			<point x="480" y="589" type="line"/>
			<point x="480" y="716" type="line"/>
		</contour>
		<contour>
			<point x="670" y="545" type="curve" smooth="yes"/>
			<point x="531" y="545"/>
			<point x="413" y="444"/>
			<point x="413" y="263" type="curve" smooth="yes"/>
			<point x="413" y="74"/>
			<point x="518" y="-14"/>
			<point x="657" y="-14" type="curve" smooth="yes"/>
			<point x="782" y="-14"/>
			<point x="874" y="49"/>
			<point x="899" y="176" type="curve"/>
			<point x="787" y="176" type="line"/>
			<point x="771" y="104"/>
			<point x="726" y="66"/>
			<point x="663" y="66" type="curve" smooth="yes"/>
			<point x="589" y="66"/>
			<point x="529" y="127"/>
			<point x="529" y="271" type="curve" smooth="yes"/>
			<point x="529" y="404"/>
			<point x="590" y="465"/>
			<point x="667" y="465" type="curve" smooth="yes"/>
			<point x="732" y="465"/>
			<point x="775" y="428"/>
			<point x="791" y="347" type="curve"/>
			<point x="902" y="347" type="line"/>
			<point x="889" y="464"/>
			<point x="804" y="545"/>
		</contour>
		<contour>
			<point x="1284" y="391" type="curve" smooth="yes"/>
			<point x="1284" y="541"/>
			<point x="1201" y="657"/>
			<point x="1047" y="657" type="curve" smooth="yes"/>
			<point x="894" y="657"/>
			<point x="787" y="544"/>
			<point x="787" y="376" type="curve"/>
			<point x="901" y="347" type="line"/>
			<point x="1282" y="347" type="line"/>
			<point x="1284" y="366"/>
			<point x="1284" y="381"/>
		</contour>
		<contour>
			<point x="1043" y="577" type="curve" smooth="yes"/>
			<point x="1120" y="577"/>
			<point x="1163" y="522"/>
			<point x="1171" y="424" type="curve"/>
			<point x="902" y="424" type="line"/>
			<point x="914" y="526"/>
			<point x="968" y="577"/>
		</contour>
	</outline>
</glyph>
<glyph name="uF45C0" format="2">
	<advance width="522"/>
	<unicode hex="F45C0"/>
	<outline>
		<contour>
			<point x="306" y="544" type="curve" smooth="yes"/>
			<point x="279" y="544"/>
			<point x="248" y="533"/>
			<point x="224" y="514" type="curve"/>
			<point x="179" y="441" type="line"/>
			<point x="179" y="531" type="line"/>
			<point x="69" y="531" type="line"/>
			<point x="69" y="0" type="line" smooth="yes"/>
			<point x="71" y="-126"/>
			<point x="171" y="-173"/>
			<point x="289" y="-173" type="curve" smooth="yes"/>
			<point x="405" y="-173"/>
			<point x="496" y="-122"/>
			<point x="496" y="-19" type="curve" smooth="yes"/>
			<point x="496" y="75"/>
			<point x="435" y="121"/>
			<point x="319" y="151" type="curve" smooth="yes"/>
			<point x="240" y="172"/>
			<point x="201" y="192"/>
			<point x="201" y="240" type="curve" smooth="yes"/>
			<point x="201" y="280"/>
			<point x="226" y="309"/>
			<point x="278" y="309" type="curve" smooth="yes"/>
			<point x="332" y="309"/>
			<point x="365" y="276"/>
			<point x="376" y="220" type="curve"/>
			<point x="488" y="220" type="line"/>
			<point x="476" y="317"/>
			<point x="408" y="386"/>
			<point x="286" y="386" type="curve" smooth="yes"/>
			<point x="252" y="386"/>
			<point x="221" y="381"/>
			<point x="195" y="371" type="curve"/>
			<point x="219" y="432"/>
			<point x="272" y="457"/>
			<point x="343" y="452" type="curve"/>
			<point x="343" y="538" type="line"/>
			<point x="332" y="542"/>
			<point x="321" y="544"/>
		</contour>
		<contour>
			<point x="179" y="0" type="curve" smooth="yes"/>
			<point x="179" y="96" type="line"/>
			<point x="202" y="85"/>
			<point x="230" y="76"/>
			<point x="259" y="68" type="curve" smooth="yes"/>
			<point x="349" y="44"/>
			<point x="385" y="19"/>
			<point x="385" y="-27" type="curve" smooth="yes"/>
			<point x="385" y="-73"/>
			<point x="344" y="-95"/>
			<point x="293" y="-95" type="curve" smooth="yes"/>
			<point x="238" y="-95"/>
			<point x="179" y="-74"/>
		</contour>
	</outline>
</glyph>
<glyph name="uF4640" format="2">
	<advance width="949"/>
	<unicode hex="F4640"/>
	<outline>
		<contour>
			<point x="316" y="704" type="curve" smooth="yes"/>
			<point x="187" y="704"/>
			<point x="78" y="629"/>
			<point x="78" y="507" type="curve" smooth="yes"/>
			<point x="78" y="387"/>
			<point x="165" y="338"/>
			<point x="296" y="307" type="curve" smooth="yes"/>
			<point x="408" y="281"/>
			<point x="436" y="244"/>
			<point x="436" y="172" type="curve" smooth="yes"/>
			<point x="436" y="109"/>
			<point x="393" y="70"/>
			<point x="321" y="70" type="curve" smooth="yes"/>
			<point x="240" y="70"/>
			<point x="180" y="115"/>
			<point x="162" y="200" type="curve"/>
			<point x="48" y="200" type="line"/>
			<point x="62" y="61"/>
			<point x="163" y="-14"/>
			<point x="321" y="-14" type="curve" smooth="yes"/>
			<point x="367" y="-14"/>
			<point x="409" y="-5"/>
			<point x="444" y="12" type="curve"/>
			<point x="444" y="-193" type="line"/>
			<point x="921" y="-193" type="line"/>
			<point x="921" y="-105" type="line"/>
			<point x="554" y="-105" type="line"/>
			<point x="554" y="109" type="line"/>
			<point x="883" y="109" type="line"/>
			<point x="883" y="196" type="line"/>
			<point x="554" y="196" type="line"/>
			<point x="554" y="410" type="line"/>
			<point x="911" y="410" type="line"/>
			<point x="911" y="497" type="line"/>
			<point x="558" y="497" type="line"/>
			<point x="543" y="615"/>
			<point x="468" y="704"/>
		</contour>
		<contour>
			<point x="194" y="525" type="curve" smooth="yes"/>
			<point x="194" y="590"/>
			<point x="245" y="620"/>
			<point x="310" y="620" type="curve" smooth="yes"/>
			<point x="390" y="620"/>
			<point x="436" y="573"/>
			<point x="444" y="494" type="curve"/>
			<point x="444" y="367" type="line"/>
			<point x="416" y="381"/>
			<point x="382" y="393"/>
			<point x="342" y="402" type="curve" smooth="yes"/>
			<point x="235" y="427"/>
			<point x="194" y="458"/>
		</contour>
	</outline>
</glyph>
<glyph name="uF46E0" format="2">
	<advance width="1738"/>
	<unicode hex="F46E0"/>
	<outline>
		<contour>
			<point x="316" y="704" type="curve" smooth="yes"/>
			<point x="187" y="704"/>
			<point x="78" y="629"/>
			<point x="78" y="507" type="curve" smooth="yes"/>
			<point x="78" y="387"/>
			<point x="165" y="338"/>
			<point x="296" y="307" type="curve" smooth="yes"/>
			<point x="408" y="281"/>
			<point x="450" y="244"/>
			<point x="450" y="172" type="curve" smooth="yes"/>
			<point x="450" y="109"/>
			<point x="393" y="70"/>
			<point x="321" y="70" type="curve" smooth="yes"/>
			<point x="240" y="70"/>
			<point x="180" y="115"/>
			<point x="162" y="200" type="curve"/>
			<point x="48" y="200" type="line"/>
			<point x="62" y="61"/>
			<point x="163" y="-14"/>
			<point x="321" y="-14" type="curve" smooth="yes"/>
			<point x="455" y="-14"/>
			<point x="566" y="62"/>
			<point x="566" y="187" type="curve" smooth="yes"/>
			<point x="566" y="302"/>
			<point x="494" y="367"/>
			<point x="342" y="402" type="curve" smooth="yes"/>
			<point x="235" y="427"/>
			<point x="194" y="458"/>
			<point x="194" y="525" type="curve" smooth="yes"/>
			<point x="194" y="590"/>
			<point x="245" y="620"/>
			<point x="310" y="620" type="curve" smooth="yes"/>
			<point x="390" y="620"/>
			<point x="436" y="573"/>
			<point x="444" y="494" type="curve"/>
			<point x="558" y="494" type="line"/>
			<point x="544" y="614"/>
			<point x="469" y="704"/>
		</contour>
		<contour>
			<point x="624" y="603" type="line"/>
			<point x="865" y="603" type="line"/>
			<point x="865" y="-300" type="line"/>
			<point x="1342" y="-300" type="line"/>
			<point x="1342" y="-212" type="line"/>
			<point x="975" y="-212" type="line"/>
			<point x="975" y="2" type="line"/>
			<point x="1214" y="2" type="line"/>
			<point x="1255" y="-82"/>
			<point x="1343" y="-126"/>
			<point x="1464" y="-126" type="curve" smooth="yes"/>
			<point x="1598" y="-126"/>
			<point x="1709" y="-50"/>
			<point x="1709" y="75" type="curve" smooth="yes"/>
			<point x="1709" y="190"/>
			<point x="1637" y="255"/>
			<point x="1485" y="290" type="curve" smooth="yes"/>
			<point x="1378" y="315"/>
			<point x="1337" y="346"/>
			<point x="1337" y="413" type="curve" smooth="yes"/>
			<point x="1337" y="478"/>
			<point x="1388" y="508"/>
			<point x="1453" y="508" type="curve" smooth="yes"/>
			<point x="1533" y="508"/>
			<point x="1579" y="461"/>
			<point x="1587" y="382" type="curve"/>
			<point x="1701" y="382" type="line"/>
			<point x="1687" y="502"/>
			<point x="1612" y="592"/>
			<point x="1459" y="592" type="curve" smooth="yes"/>
			<point x="1330" y="592"/>
			<point x="1221" y="517"/>
			<point x="1221" y="395" type="curve" smooth="yes"/>
			<point x="1221" y="390" type="line"/>
			<point x="974" y="390" type="line"/>
			<point x="974" y="603" type="line"/>
			<point x="1215" y="603" type="line"/>
			<point x="1215" y="690" type="line"/>
			<point x="624" y="690" type="line"/>
		</contour>
		<contour>
			<point x="975" y="89" type="line"/>
			<point x="975" y="303" type="line"/>
			<point x="1244" y="303" type="line"/>
			<point x="1279" y="247"/>
			<point x="1348" y="216"/>
			<point x="1439" y="195" type="curve" smooth="yes"/>
			<point x="1551" y="169"/>
			<point x="1593" y="132"/>
			<point x="1593" y="60" type="curve" smooth="yes"/>
			<point x="1593" y="-3"/>
			<point x="1536" y="-42"/>
			<point x="1464" y="-42" type="curve" smooth="yes"/>
			<point x="1383" y="-42"/>
			<point x="1323" y="3"/>
			<point x="1305" y="88" type="curve"/>
			<point x="1304" y="88" type="line"/>
			<point x="1304" y="89" type="line"/>
		</contour>
	</outline>
</glyph>
<glyph name="uF4760" format="2">
	<advance width="527"/>
	<unicode hex="F4760"/>
	<outline>
		<contour>
			<point x="240" y="545" type="curve" smooth="yes"/>
			<point x="122" y="545"/>
			<point x="44" y="485"/>
			<point x="44" y="386" type="curve" smooth="yes"/>
			<point x="44" y="293"/>
			<point x="116" y="252"/>
			<point x="213" y="227" type="curve" smooth="yes"/>
			<point x="303" y="203"/>
			<point x="339" y="178"/>
			<point x="339" y="132" type="curve" smooth="yes"/>
			<point x="339" y="86"/>
			<point x="298" y="64"/>
			<point x="247" y="64" type="curve" smooth="yes"/>
			<point x="192" y="64"/>
			<point x="147" y="91"/>
			<point x="134" y="159" type="curve"/>
			<point x="23" y="159" type="line"/>
			<point x="38" y="39"/>
			<point x="125" y="-14"/>
			<point x="243" y="-14" type="curve" smooth="yes"/>
			<point x="359" y="-14"/>
			<point x="450" y="37"/>
			<point x="450" y="140" type="curve" smooth="yes"/>
			<point x="450" y="234"/>
			<point x="389" y="280"/>
			<point x="273" y="310" type="curve" smooth="yes"/>
			<point x="194" y="331"/>
			<point x="155" y="351"/>
			<point x="155" y="399" type="curve" smooth="yes"/>
			<point x="155" y="439"/>
			<point x="180" y="468"/>
			<point x="232" y="468" type="curve" smooth="yes"/>
			<point x="286" y="468"/>
			<point x="319" y="435"/>
			<point x="330" y="379" type="curve" smooth="yes"/>
			<point x="331" y="374"/>
			<point x="331" y="369"/>
			<point x="331" y="365" type="curve" smooth="yes"/>
			<point x="335" y="297"/>
			<point x="374" y="276"/>
			<point x="432" y="276" type="curve" smooth="yes"/>
			<point x="457" y="276"/>
			<point x="482" y="278"/>
			<point x="504" y="281" type="curve"/>
			<point x="504" y="358" type="line"/>
			<point x="457" y="354"/>
			<point x="443" y="364"/>
			<point x="441" y="394" type="curve" smooth="yes"/>
			<point x="440" y="410"/>
			<point x="440" y="426"/>
			<point x="440" y="444" type="curve" smooth="yes"/>
			<point x="440" y="878" type="line"/>
			<point x="330" y="878" type="line"/>
			<point x="330" y="530" type="line"/>
			<point x="304" y="540"/>
			<point x="274" y="545"/>
		</contour>
	</outline>
</glyph>
<glyph name="uF4910" format="2">
	<advance width="830"/>
	<unicode hex="F4910"/>
	<outline>
		<contour>
			<point x="200" y="172" type="curve" smooth="yes"/>
			<point x="200" y="450" type="line"/>
			<point x="792" y="450" type="line"/>
			<point x="794" y="469"/>
			<point x="794" y="484"/>
			<point x="794" y="494" type="curve" smooth="yes"/>
			<point x="794" y="644"/>
			<point x="711" y="760"/>
			<point x="557" y="760" type="curve" smooth="yes"/>
			<point x="419" y="760"/>
			<point x="319" y="668"/>
			<point x="300" y="527" type="curve"/>
			<point x="200" y="527" type="line"/>
			<point x="200" y="654" type="line"/>
			<point x="91" y="654" type="line"/>
			<point x="91" y="527" type="line"/>
			<point x="16" y="527" type="line"/>
			<point x="16" y="450" type="line"/>
			<point x="91" y="450" type="line"/>
			<point x="91" y="162" type="line" smooth="yes"/>
			<point x="91" y="132"/>
			<point x="91" y="109"/>
			<point x="92" y="91" type="curve" smooth="yes"/>
			<point x="97" y="21"/>
			<point x="133" y="-10"/>
			<point x="216" y="-10" type="curve" smooth="yes"/>
			<point x="243" y="-10"/>
			<point x="269" y="-8"/>
			<point x="297" y="-4" type="curve"/>
			<point x="297" y="72" type="line"/>
			<point x="225" y="65"/>
			<point x="205" y="76"/>
			<point x="201" y="128" type="curve" smooth="yes"/>
			<point x="200" y="142"/>
			<point x="200" y="154"/>
		</contour>
		<contour>
			<point x="412" y="527" type="line"/>
			<point x="424" y="629"/>
			<point x="478" y="680"/>
			<point x="553" y="680" type="curve" smooth="yes"/>
			<point x="630" y="680"/>
			<point x="673" y="625"/>
			<point x="681" y="527" type="curve"/>
		</contour>
	</outline>
</glyph>
<glyph name="uF5070" format="2">
	<advance width="1639"/>
	<unicode hex="F5070"/>
	<outline>
		<contour>
			<point x="629" y="265" type="curve" smooth="yes"/>
			<point x="629" y="292" type="line"/>
			<point x="896" y="292" type="line"/>
			<point x="896" y="0" type="line"/>
			<point x="1611" y="0" type="line"/>
			<point x="1610" y="92" type="line"/>
			<point x="1244" y="92" type="line"/>
			<point x="1244" y="302" type="line"/>
			<point x="1573" y="302" type="line"/>
			<point x="1573" y="389" type="line"/>
			<point x="1244" y="389" type="line"/>
			<point x="1244" y="603" type="line"/>
			<point x="1601" y="603" type="line"/>
			<point x="1601" y="690" type="line"/>
			<point x="1134" y="690" type="line"/>
			<point x="1134" y="91" type="line"/>
			<point x="1006" y="91" type="line"/>
			<point x="1006" y="690" type="line"/>
			<point x="896" y="690" type="line"/>
			<point x="896" y="383" type="line"/>
			<point x="629" y="383" type="line"/>
			<point x="629" y="982" type="line"/>
			<point x="521" y="982" type="line"/>
			<point x="520" y="292" type="line"/>
			<point x="520" y="263" type="line" smooth="yes"/>
			<point x="520" y="242"/>
			<point x="520" y="223"/>
			<point x="518" y="207" type="curve" smooth="yes"/>
			<point x="511" y="124"/>
			<point x="458" y="68"/>
			<point x="358" y="68" type="curve" smooth="yes"/>
			<point x="259" y="68"/>
			<point x="206" y="124"/>
			<point x="199" y="207" type="curve" smooth="yes"/>
			<point x="197" y="223"/>
			<point x="197" y="242"/>
			<point x="197" y="263" type="curve" smooth="yes"/>
			<point x="197" y="688" type="line"/>
			<point x="88" y="688" type="line"/>
			<point x="88" y="265" type="line" smooth="yes"/>
			<point x="88" y="240"/>
			<point x="88" y="220"/>
			<point x="90" y="194" type="curve" smooth="yes"/>
			<point x="99" y="79"/>
			<point x="178" y="-16"/>
			<point x="358" y="-16" type="curve" smooth="yes"/>
			<point x="538" y="-16"/>
			<point x="617" y="79"/>
			<point x="627" y="194" type="curve" smooth="yes"/>
			<point x="629" y="220"/>
			<point x="629" y="240"/>
		</contour>
	</outline>
</glyph>
<glyph name="uF5170" format="2">
	<advance width="1217"/>
	<unicode hex="F5170"/>
	<outline>
		<contour>
			<point x="532" y="161" type="curve" smooth="yes"/>
			<point x="532" y="734" type="line"/>
			<point x="422" y="734" type="line"/>
			<point x="422" y="247" type="line"/>
			<point x="414" y="118"/>
			<point x="359" y="68"/>
			<point x="288" y="68" type="curve" smooth="yes"/>
			<point x="220" y="68"/>
			<point x="182" y="106"/>
			<point x="174" y="164" type="curve" smooth="yes"/>
			<point x="171" y="191"/>
			<point x="170" y="220"/>
			<point x="170" y="237" type="curve" smooth="yes"/>
			<point x="170" y="531" type="line"/>
			<point x="61" y="531" type="line"/>
			<point x="61" y="215" type="line" smooth="yes"/>
			<point x="61" y="172"/>
			<point x="62" y="148"/>
			<point x="66" y="121" type="curve" smooth="yes"/>
			<point x="78" y="48"/>
			<point x="142" y="-14"/>
			<point x="252" y="-14" type="curve" smooth="yes"/>
			<point x="305" y="-14"/>
			<point x="344" y="-5"/>
			<point x="386" y="25" type="curve"/>
			<point x="423" y="90" type="line"/>
			<point x="423" y="82" type="line" smooth="yes"/>
			<point x="423" y="14"/>
			<point x="466" y="-7"/>
			<point x="524" y="-7" type="curve" smooth="yes"/>
			<point x="549" y="-7"/>
			<point x="574" y="-5"/>
			<point x="596" y="-2" type="curve"/>
			<point x="596" y="75" type="line"/>
			<point x="549" y="71"/>
			<point x="535" y="81"/>
			<point x="533" y="111" type="curve" smooth="yes"/>
			<point x="532" y="127"/>
			<point x="532" y="143"/>
		</contour>
		<contour>
			<point x="684" y="158" type="line" smooth="yes"/>
			<point x="684" y="126"/>
			<point x="684" y="102"/>
			<point x="685" y="82" type="curve" smooth="yes"/>
			<point x="689" y="14"/>
			<point x="728" y="-7"/>
			<point x="786" y="-7" type="curve" smooth="yes"/>
			<point x="811" y="-7"/>
			<point x="836" y="-5"/>
			<point x="858" y="-2" type="curve"/>
			<point x="858" y="75" type="line"/>
			<point x="811" y="71"/>
			<point x="797" y="81"/>
			<point x="795" y="111" type="curve" smooth="yes"/>
			<point x="794" y="127"/>
			<point x="794" y="143"/>
			<point x="794" y="161" type="curve" smooth="yes"/>
			<point x="794" y="232" type="line"/>
			<point x="1179" y="234" type="line"/>
			<point x="1181" y="253"/>
			<point x="1181" y="268"/>
			<point x="1181" y="278" type="curve" smooth="yes"/>
			<point x="1181" y="428"/>
			<point x="1098" y="544"/>
			<point x="944" y="544" type="curve" smooth="yes"/>
			<point x="886" y="544"/>
			<point x="835" y="528"/>
			<point x="794" y="499" type="curve"/>
			<point x="794" y="734" type="line"/>
			<point x="684" y="734" type="line"/>
		</contour>
		<contour>
			<point x="799" y="311" type="line"/>
			<point x="811" y="413"/>
			<point x="865" y="464"/>
			<point x="940" y="464" type="curve" smooth="yes"/>
			<point x="1017" y="464"/>
			<point x="1060" y="409"/>
			<point x="1068" y="311" type="curve"/>
		</contour>
	</outline>
</glyph>
<glyph name="uF5640" format="2">
	<advance width="829"/>
	<unicode hex="F5640"/>
	<outline>
		<contour>
			<point x="331" y="279" type="line"/>
			<point x="336" y="284" type="line"/>
			<point x="336" y="0" type="line"/>
			<point x="813" y="0" type="line"/>
			<point x="813" y="91" type="line"/>
			<point x="446" y="91" type="line"/>
			<point x="446" y="690" type="line"/>
			<point x="336" y="690" type="line"/>
			<point x="336" y="420" type="line"/>
			<point x="166" y="690" type="line"/>
			<point x="40" y="690" type="line"/>
			<point x="269" y="348" type="line"/>
			<point x="22" y="0" type="line"/>
			<point x="151" y="0" type="line"/>
		</contour>
	</outline>
</glyph>
<glyph name="uF56B0" format="2">
	<advance width="1184"/>
	<unicode hex="F56B0"/>
	<outline>
		<contour>
			<point x="551" y="504" type="curve" smooth="yes"/>
			<point x="464" y="504"/>
			<point x="386" y="470"/>
			<point x="345" y="410" type="curve"/>
			<point x="336" y="420" type="line"/>
			<point x="166" y="690" type="line"/>
			<point x="40" y="690" type="line"/>
			<point x="269" y="348" type="line"/>
			<point x="22" y="0" type="line"/>
			<point x="151" y="0" type="line"/>
			<point x="318" y="259" type="line"/>
			<point x="339" y="173"/>
			<point x="419" y="134"/>
			<point x="531" y="107" type="curve" smooth="yes"/>
			<point x="643" y="81"/>
			<point x="671" y="44"/>
			<point x="671" y="-28" type="curve" smooth="yes"/>
			<point x="671" y="-91"/>
			<point x="628" y="-130"/>
			<point x="556" y="-130" type="curve" smooth="yes"/>
			<point x="475" y="-130"/>
			<point x="415" y="-85"/>
			<point x="397" y="0" type="curve"/>
			<point x="283" y="0" type="line"/>
			<point x="297" y="-139"/>
			<point x="398" y="-214"/>
			<point x="556" y="-214" type="curve" smooth="yes"/>
			<point x="602" y="-214"/>
			<point x="644" y="-205"/>
			<point x="679" y="-188" type="curve"/>
			<point x="679" y="-393" type="line"/>
			<point x="1156" y="-393" type="line"/>
			<point x="1156" y="-305" type="line"/>
			<point x="789" y="-305" type="line"/>
			<point x="789" y="-91" type="line"/>
			<point x="1118" y="-91" type="line"/>
			<point x="1118" y="-4" type="line"/>
			<point x="789" y="-4" type="line"/>
			<point x="789" y="210" type="line"/>
			<point x="1146" y="210" type="line"/>
			<point x="1146" y="297" type="line"/>
			<point x="793" y="297" type="line"/>
			<point x="778" y="415"/>
			<point x="703" y="504"/>
		</contour>
		<contour>
			<point x="429" y="325" type="curve" smooth="yes"/>
			<point x="429" y="390"/>
			<point x="480" y="420"/>
			<point x="545" y="420" type="curve" smooth="yes"/>
			<point x="625" y="420"/>
			<point x="671" y="373"/>
			<point x="679" y="294" type="curve"/>
			<point x="679" y="167" type="line"/>
			<point x="651" y="181"/>
			<point x="617" y="193"/>
			<point x="577" y="202" type="curve" smooth="yes"/>
			<point x="470" y="227"/>
			<point x="429" y="258"/>
		</contour>
	</outline>
</glyph>
